<svg width="109" height="89" viewBox="0 0 109 89" fill="none" xmlns="http://www.w3.org/2000/svg">
<g clip-path="url(#clip0_125_13352)">
<path d="M107.243 28.8652L48.4388 87.6689C47.2125 88.8951 45.2213 88.8951 43.9838 87.6689C39.7763 83.4614 32.9363 83.4614 28.7288 87.6689C27.5025 88.8951 25.5113 88.8951 24.2738 87.6689L1.0875 64.4602C-0.138746 63.2339 -0.138746 61.2427 1.0875 60.0052L59.8913 1.21266C61.1175 -0.0135938 63.1088 -0.0135938 64.3463 1.21266C68.5538 5.42016 75.3938 5.42016 79.6012 1.21266C80.8275 -0.0135938 82.8187 -0.0135938 84.0563 1.21266L107.254 24.4102C108.48 25.6364 108.48 27.6277 107.254 28.8652H107.243ZM46.0088 81.2001L100.571 26.6377L81.615 7.68141C75.8213 11.6527 68.115 11.6527 62.3213 7.68141L7.75875 62.2327L26.715 81.1889C32.5088 77.2177 40.215 77.2177 46.0088 81.1889V81.2001Z" fill="white"/>
<path d="M81.8175 3.43994L105.015 26.6374L46.2113 85.4412C40.7663 79.9962 31.9463 79.9962 26.5013 85.4412L3.315 62.2324L62.1075 3.43994C67.5525 8.88494 76.3725 8.88494 81.8175 3.43994Z" fill="#2E86CE"/>
<path d="M105.499 26.165L82.29 2.95627C82.0312 2.69752 81.6037 2.69752 81.3337 2.95627C76.1587 8.13127 67.755 8.13127 62.58 2.95627C62.3212 2.69752 61.8937 2.69752 61.6237 2.95627L2.83124 61.76C2.57249 62.0188 2.57249 62.4463 2.83124 62.7163L26.0287 85.9138C26.2875 86.1725 26.715 86.1725 26.985 85.9138C32.16 80.7388 40.5637 80.7388 45.7387 85.9138C45.9975 86.1725 46.425 86.1725 46.695 85.9138L105.499 27.11C105.757 26.8513 105.757 26.4238 105.499 26.1538V26.165ZM84.5962 46.1113L84.1237 45.6388C83.9887 45.5038 83.775 45.5038 83.6512 45.6388C83.5162 45.7738 83.5162 45.9875 83.6512 46.1113L84.1237 46.5838L46.2112 84.4963C40.6537 79.4225 32.0925 79.4225 26.5237 84.4963L4.25999 62.2325L52.0162 14.4763L52.4887 14.9488C52.6237 15.0838 52.8375 15.0838 52.9612 14.9488C53.0962 14.8138 53.0962 14.6 52.9612 14.4763L52.4887 14.0038L62.1187 4.37377C67.6762 9.44752 76.2375 9.44752 81.8062 4.37377L104.07 26.6375L84.6075 46.1L84.5962 46.1113Z" fill="#0E1219"/>
<path d="M74.4825 36.9427C74.6175 37.0777 74.8312 37.0777 74.955 36.9427C75.09 36.8077 75.09 36.5939 74.955 36.4702L73.1212 34.6364C72.9862 34.5014 72.7725 34.5014 72.6487 34.6364C72.5137 34.7714 72.5137 34.9852 72.6487 35.1089L74.4825 36.9427Z" fill="#0E1219"/>
<path d="M79.9838 41.9601C79.8488 42.0951 79.8488 42.3089 79.9838 42.4326L81.8175 44.2664C81.9525 44.4014 82.1663 44.4014 82.29 44.2664C82.425 44.1314 82.425 43.9176 82.29 43.7939L80.4563 41.9601C80.3213 41.8251 80.1075 41.8251 79.9838 41.9601Z" fill="#0E1219"/>
<path d="M76.7887 38.3039C76.6537 38.1689 76.44 38.1689 76.3162 38.3039C76.1812 38.4389 76.1812 38.6526 76.3162 38.7764L78.15 40.6101C78.285 40.7451 78.4987 40.7451 78.6225 40.6101C78.7575 40.4751 78.7575 40.2614 78.6225 40.1376L76.7887 38.3039Z" fill="#0E1219"/>
<path d="M70.815 33.2752C70.95 33.4102 71.1638 33.4102 71.2875 33.2752C71.4225 33.1402 71.4225 32.9264 71.2875 32.8027L69.4538 30.9689C69.3188 30.8339 69.105 30.8339 68.9813 30.9689C68.8463 31.1039 68.8463 31.3177 68.9813 31.4414L70.815 33.2752Z" fill="#0E1219"/>
<path d="M59.8237 22.284C59.9587 22.419 60.1725 22.419 60.2962 22.284C60.4312 22.149 60.4312 21.9352 60.2962 21.8115L58.4625 19.9777C58.3275 19.8427 58.1137 19.8427 57.99 19.9777C57.855 20.1127 57.855 20.3265 57.99 20.4502L59.8237 22.284Z" fill="#0E1219"/>
<path d="M56.1563 18.6277C56.2913 18.7627 56.505 18.7627 56.6288 18.6277C56.7638 18.4927 56.7638 18.279 56.6288 18.1552L54.795 16.3215C54.66 16.1865 54.4463 16.1865 54.3225 16.3215C54.1875 16.4565 54.1875 16.6702 54.3225 16.794L56.1563 18.6277Z" fill="#0E1219"/>
<path d="M63.4912 25.9514C63.6262 26.0864 63.84 26.0864 63.9637 25.9514C64.0987 25.8164 64.0987 25.6027 63.9637 25.4789L62.13 23.6452C61.995 23.5102 61.7812 23.5102 61.6575 23.6452C61.5225 23.7802 61.5225 23.9939 61.6575 24.1177L63.4912 25.9514Z" fill="#0E1219"/>
<path d="M67.1588 29.6189C67.2938 29.7539 67.5075 29.7539 67.6313 29.6189C67.755 29.4839 67.7663 29.2702 67.6313 29.1464L65.7975 27.3127C65.6625 27.1777 65.4488 27.1777 65.325 27.3127C65.19 27.4477 65.19 27.6614 65.325 27.7852L67.1588 29.6189Z" fill="#0E1219"/>
<path d="M12.0675 63.8297L15.2737 65.0897L15.6 63.3235L21.6187 69.6572L24.6 66.9347L15.69 57.271L12.5962 60.106L12.0675 63.8297Z" fill="#0E1219"/>
<path d="M26.2425 51.6798C25.7362 51.4886 25.2075 51.3648 24.6787 51.2973C24.1387 51.2298 23.61 51.2298 23.0925 51.3086C22.575 51.3873 22.0687 51.5448 21.585 51.7698C21.1012 52.0061 20.6512 52.3211 20.235 52.7373C19.8187 53.1536 19.4925 53.6036 19.2562 54.0873C19.02 54.5823 18.8625 55.0773 18.7837 55.6061C18.705 56.1236 18.705 56.6523 18.7725 57.1923C18.84 57.7323 18.9637 58.2498 19.155 58.7673C19.3462 59.2736 19.5825 59.7686 19.8862 60.2298C20.1787 60.7023 20.5275 61.1186 20.8987 61.5011C21.27 61.8836 21.6975 62.2211 22.17 62.5136C22.6312 62.8061 23.1262 63.0536 23.6325 63.2336C24.1387 63.4248 24.6675 63.5486 25.1962 63.6161C25.7362 63.6836 26.265 63.6723 26.7825 63.6048C27.3 63.5261 27.8062 63.3686 28.29 63.1323C28.7737 62.8961 29.235 62.5698 29.6512 62.1536C30.0675 61.7373 30.3825 61.2873 30.6187 60.8036C30.855 60.3198 31.0125 59.8136 31.0912 59.2961C31.17 58.7786 31.17 58.2498 31.1025 57.7098C31.035 57.1811 30.9112 56.6523 30.72 56.1461C30.5287 55.6398 30.2925 55.1448 30 54.6836C29.7075 54.2223 29.37 53.7948 28.9875 53.4123C28.605 53.0298 28.1887 52.6923 27.7162 52.3998C27.2437 52.1073 26.76 51.8598 26.2537 51.6686L26.2425 51.6798ZM26.985 57.0911C27.165 57.3836 27.3112 57.6761 27.4012 57.9911C27.4912 58.3061 27.525 58.6211 27.5025 58.9248C27.4687 59.2286 27.3337 59.5098 27.1087 59.7461C26.8725 59.9823 26.5912 60.1173 26.2875 60.1511C25.9837 60.1848 25.6687 60.1511 25.3537 60.0611C25.0387 59.9711 24.735 59.8248 24.4537 59.6448C24.1612 59.4648 23.925 59.2736 23.7337 59.0823C23.5425 58.8911 23.3512 58.6548 23.1712 58.3623C22.9912 58.0698 22.845 57.7773 22.755 57.4623C22.665 57.1473 22.6312 56.8323 22.665 56.5286C22.6987 56.2248 22.8337 55.9436 23.07 55.7073C23.3062 55.4711 23.5762 55.3361 23.8912 55.3136C24.195 55.2798 24.51 55.3136 24.825 55.4148C25.14 55.5161 25.4437 55.6511 25.725 55.8311C26.0175 56.0111 26.2537 56.2023 26.445 56.3936C26.6362 56.5848 26.8275 56.8211 27.0075 57.1136L26.985 57.0911Z" fill="#0E1219"/>
<path d="M36.165 43.9399C35.6925 43.6362 35.2087 43.3999 34.7025 43.2087C34.1962 43.0174 33.6675 42.8937 33.1387 42.8262C32.5987 42.7587 32.07 42.7587 31.5525 42.8374C31.035 42.9162 30.5287 43.0737 30.045 43.2987C29.5612 43.5349 29.1112 43.8499 28.695 44.2662C28.2787 44.6824 27.9525 45.1324 27.7162 45.6162C27.48 46.1112 27.3225 46.6062 27.2437 47.1349C27.165 47.6524 27.165 48.1812 27.2325 48.7212C27.3 49.2612 27.4237 49.7787 27.615 50.2962C27.8062 50.8024 28.0425 51.2974 28.3462 51.7587C28.65 52.2199 28.9875 52.6474 29.3587 53.0299C29.73 53.4124 30.1575 53.7499 30.63 54.0424C31.0912 54.3349 31.5862 54.5824 32.0925 54.7624C32.5987 54.9537 33.1275 55.0774 33.6562 55.1449C34.1962 55.2124 34.725 55.2012 35.2425 55.1337C35.76 55.0549 36.2662 54.8974 36.75 54.6612C37.2337 54.4249 37.695 54.0987 38.1112 53.6824C38.5275 53.2662 38.8425 52.8162 39.0787 52.3324C39.315 51.8487 39.4725 51.3424 39.54 50.8249C39.6187 50.3074 39.6187 49.7787 39.5512 49.2387C39.4837 48.7099 39.36 48.1812 39.1687 47.6749C38.9775 47.1687 38.7412 46.6737 38.4487 46.2124C38.1562 45.7512 37.8187 45.3237 37.4362 44.9412C37.0537 44.5587 36.6375 44.2212 36.165 43.9287V43.9399ZM35.4337 48.6199C35.6137 48.9124 35.76 49.2049 35.85 49.5199C35.9512 49.8349 35.9737 50.1499 35.9512 50.4537C35.9175 50.7574 35.7825 51.0387 35.5575 51.2749C35.3212 51.5112 35.04 51.6462 34.7362 51.6799C34.4325 51.7137 34.1175 51.6799 33.8025 51.5899C33.4875 51.4999 33.1837 51.3537 32.9025 51.1737C32.61 50.9937 32.3737 50.8024 32.1825 50.6112C31.9912 50.4199 31.8 50.1837 31.62 49.8912C31.44 49.5987 31.2937 49.3062 31.2037 48.9912C31.1137 48.6762 31.08 48.3612 31.1137 48.0574C31.1475 47.7537 31.2825 47.4724 31.5187 47.2362C31.755 46.9999 32.025 46.8649 32.34 46.8424C32.6437 46.8087 32.9587 46.8424 33.2737 46.9437C33.5887 47.0449 33.8925 47.1799 34.1737 47.3599C34.4662 47.5399 34.7025 47.7312 34.8937 47.9224C35.085 48.1137 35.2762 48.3499 35.4562 48.6424L35.4337 48.6199Z" fill="#0E1219"/>
<path d="M87.7125 23.6113L91.3912 20.225L90.3112 19.055L88.8937 18.8525L88.4212 20.0675L89.085 20.1913L86.6775 22.4863L87.7125 23.6113Z" fill="#0E1219"/>
<path d="M90.2662 21.8224C90.0862 21.9349 89.9288 22.0699 89.7825 22.2049C89.6363 22.3512 89.5125 22.5087 89.4 22.6887C89.2875 22.8687 89.1975 23.0487 89.1187 23.2399C89.0512 23.4312 88.995 23.6337 88.9725 23.8362C88.95 24.0387 88.95 24.2412 88.9725 24.4437C88.995 24.6462 89.0625 24.8374 89.1525 25.0174C89.2425 25.1974 89.3663 25.3774 89.5238 25.5349C89.6813 25.6924 89.85 25.8162 90.0412 25.9062C90.2212 25.9962 90.4125 26.0524 90.615 26.0862C90.8175 26.1199 91.0088 26.1199 91.2225 26.0862C91.425 26.0637 91.6275 26.0074 91.8188 25.9399C92.01 25.8724 92.2012 25.7824 92.37 25.6699C92.5387 25.5574 92.7075 25.4337 92.8537 25.2874C93 25.1412 93.1238 24.9837 93.2363 24.8037C93.3488 24.6237 93.4388 24.4437 93.5175 24.2412C93.585 24.0499 93.6413 23.8474 93.6638 23.6449C93.6863 23.4424 93.6863 23.2399 93.6638 23.0374C93.6413 22.8349 93.5737 22.6437 93.4837 22.4637C93.3937 22.2837 93.27 22.1037 93.1125 21.9462C92.955 21.7887 92.7863 21.6649 92.595 21.5749C92.4038 21.4849 92.2125 21.4287 92.0213 21.3949C91.8188 21.3612 91.6275 21.3612 91.4138 21.3949C91.2113 21.4174 91.0088 21.4737 90.8175 21.5412C90.6263 21.6087 90.435 21.7099 90.255 21.8224H90.2662ZM91.3237 22.9137C91.4475 22.8799 91.56 22.8687 91.6837 22.8799C91.7962 22.8912 91.9087 22.9474 91.9987 23.0374C92.0887 23.1274 92.1338 23.2287 92.145 23.3524C92.1563 23.4649 92.145 23.5887 92.1113 23.7124C92.0775 23.8362 92.0212 23.9487 91.9537 24.0499C91.8862 24.1624 91.8075 24.2524 91.74 24.3199C91.6725 24.3874 91.5713 24.4662 91.47 24.5337C91.3688 24.6012 91.245 24.6574 91.1325 24.6912C91.0088 24.7249 90.8963 24.7362 90.7725 24.7249C90.66 24.7137 90.5475 24.6574 90.4575 24.5787C90.3675 24.4887 90.3113 24.3874 90.3 24.2637C90.2888 24.1512 90.3 24.0274 90.3338 23.9037C90.3675 23.7799 90.4238 23.6674 90.4913 23.5549C90.5588 23.4424 90.6375 23.3524 90.705 23.2849C90.7725 23.2174 90.8738 23.1387 90.975 23.0712C91.0875 23.0037 91.2 22.9474 91.3237 22.9137Z" fill="#0E1219"/>
<path d="M93 25.4227C92.8537 25.569 92.73 25.7265 92.6175 25.9065C92.505 26.0865 92.415 26.2665 92.3475 26.4577C92.28 26.649 92.2237 26.8515 92.2012 27.054C92.1787 27.2565 92.1787 27.459 92.2012 27.6615C92.235 27.864 92.2912 28.0552 92.3812 28.2352C92.4712 28.4152 92.595 28.5952 92.7525 28.7527C92.91 28.9102 93.0787 29.034 93.27 29.124C93.45 29.214 93.6412 29.2702 93.8437 29.304C94.0462 29.3377 94.2375 29.3377 94.4512 29.304C94.6537 29.2815 94.8562 29.2252 95.0474 29.1577C95.2387 29.0902 95.43 29.0002 95.5987 28.8877C95.7787 28.7752 95.9362 28.6515 96.0825 28.5052C96.2287 28.359 96.3525 28.2015 96.465 28.0215C96.5775 27.8415 96.6675 27.6615 96.7462 27.459C96.8137 27.2677 96.87 27.0652 96.8925 26.8627C96.915 26.6602 96.915 26.4577 96.8925 26.2552C96.87 26.0527 96.8025 25.8615 96.7125 25.6815C96.6225 25.5015 96.4987 25.3215 96.3412 25.164C96.1837 25.0065 96.015 24.8827 95.8237 24.7927C95.6325 24.7027 95.4412 24.6465 95.25 24.6127C95.0475 24.579 94.8562 24.579 94.6425 24.6127C94.4287 24.6465 94.2375 24.6915 94.0462 24.759C93.855 24.8265 93.6637 24.9277 93.4837 25.0402C93.3037 25.1527 93.1462 25.2877 93 25.4227ZM93.5512 27.1102C93.585 26.9865 93.6412 26.874 93.7087 26.7615C93.7762 26.649 93.8549 26.559 93.9224 26.4915C93.9899 26.424 94.0912 26.3452 94.1925 26.2777C94.305 26.2102 94.4175 26.154 94.5412 26.1202C94.665 26.0865 94.7775 26.0752 94.9012 26.0865C95.0137 26.0977 95.1262 26.154 95.2162 26.244C95.3062 26.334 95.3512 26.4352 95.3625 26.559C95.3737 26.6715 95.3624 26.7952 95.3287 26.919C95.295 27.0427 95.2387 27.1552 95.1712 27.2565C95.1037 27.3577 95.025 27.459 94.9575 27.5265C94.89 27.594 94.7887 27.6727 94.6875 27.7402C94.575 27.8077 94.4625 27.864 94.35 27.8977C94.2375 27.9315 94.1137 27.9427 93.99 27.9315C93.8775 27.9202 93.765 27.864 93.675 27.7852C93.585 27.6952 93.5287 27.594 93.5175 27.4702C93.5062 27.3577 93.5175 27.234 93.5512 27.1102Z" fill="#0E1219"/>
<path d="M49.3163 72.2114C49.2825 72.3014 49.2488 72.3914 49.2038 72.4701C49.1588 72.5601 49.1138 72.6389 49.0688 72.7176C49.0238 72.7964 48.9675 72.8639 48.9 72.9201C48.8213 72.9989 48.7425 73.0551 48.6525 73.1001C48.5625 73.1451 48.4838 73.1676 48.3938 73.1676C48.3038 73.1676 48.2138 73.1564 48.135 73.1114C48.0563 73.0664 47.9663 73.0101 47.8763 72.9089C47.7413 72.7626 47.6513 72.6164 47.6063 72.4589C47.5613 72.3014 47.5388 72.1551 47.5613 71.9976C47.5725 71.8514 47.6175 71.7051 47.6963 71.5589C47.775 71.4239 47.865 71.2889 47.9775 71.1764C48.0225 71.1314 48.0675 71.0864 48.1238 71.0526C48.1688 71.0076 48.225 70.9739 48.2925 70.9401C47.9888 70.5239 47.685 70.1189 47.3925 69.7026C47.2463 69.7476 47.1113 69.8151 46.9763 69.9051C46.8413 69.9951 46.7288 70.0964 46.6163 70.2089C46.335 70.4901 46.1325 70.8051 46.02 71.1426C45.9075 71.4801 45.8738 71.8176 45.9075 72.1664C45.9413 72.5151 46.0425 72.8639 46.2113 73.2126C46.38 73.5614 46.5938 73.8876 46.8638 74.1914C47.0663 74.4164 47.3025 74.5964 47.55 74.7201C47.7975 74.8439 48.0563 74.9114 48.3263 74.9339C48.585 74.9451 48.8438 74.9114 49.1025 74.8214C49.3613 74.7314 49.5863 74.5739 49.7888 74.3714C49.8563 74.3039 49.9238 74.2251 49.9913 74.1351C50.0588 74.0451 50.1263 73.9551 50.1825 73.8539C50.2388 73.7526 50.295 73.6626 50.34 73.5614C50.385 73.4601 50.43 73.3589 50.4525 73.2689C50.1038 72.8301 49.7438 72.3914 49.395 71.9414C49.3725 72.0201 49.35 72.1101 49.3163 72.2001V72.2114Z" fill="#0E1219"/>
<path d="M49.0913 67.869C49.7325 68.5327 50.3738 69.1965 51.015 69.8602L50.4863 70.389C49.9125 69.7477 49.3388 69.1065 48.7763 68.4652C48.3825 68.814 48 69.174 47.6063 69.5227C48.7313 70.7715 49.8563 72.0202 50.97 73.2802L52.05 72.2002C51.7013 71.8065 51.3525 71.424 50.9925 71.0302C51.2175 70.8052 51.3188 70.704 51.5438 70.479C51.9263 70.8727 52.32 71.2665 52.7025 71.6602C53.085 71.2327 53.4675 70.8165 53.85 70.389C52.6238 69.2077 51.3975 68.0265 50.1713 66.834L49.08 67.869H49.0913Z" fill="#0E1219"/>
<path d="M50.6212 66.6312C51.7687 67.7787 52.905 68.9262 54.0525 70.0737C54.3787 69.7137 54.6937 69.3537 55.02 69.0049C53.9512 67.7787 52.8712 66.5524 51.8025 65.3262C51.4087 65.7649 51.015 66.2037 50.6325 66.6424L50.6212 66.6312Z" fill="#0E1219"/>
<path d="M55.9312 65.4276C55.8525 65.5176 55.7625 65.6076 55.6725 65.6976C55.5937 65.7764 55.5262 65.8439 55.4475 65.9226C55.3687 66.0014 55.3012 66.0689 55.2225 66.1364C54.8512 65.7651 54.5025 65.3714 54.1537 64.9776C53.805 64.5839 53.4675 64.1901 53.1187 63.7964C52.7137 64.2014 52.3087 64.6064 51.9037 65.0114C52.4775 65.6076 53.0625 66.2039 53.6362 66.7889C54.2212 67.3739 54.795 67.9701 55.38 68.5551C55.9987 67.8239 56.6175 67.0926 57.2362 66.3614C56.8875 65.9676 56.5275 65.5626 56.1787 65.1689C56.0887 65.2589 55.9987 65.3489 55.92 65.4389L55.9312 65.4276Z" fill="#0E1219"/>
<path d="M58.1475 63.2112C58.0688 63.3012 57.9788 63.3912 57.8888 63.4812L57.6638 63.7062C57.585 63.785 57.5175 63.8525 57.4388 63.92C57.0675 63.5488 56.6963 63.1662 56.3475 62.7837C55.9988 62.4012 55.65 62.0075 55.29 61.625C54.885 62.03 54.48 62.435 54.075 62.84C54.66 63.425 55.2563 64.01 55.8413 64.5838C56.4375 65.1575 57.0225 65.7425 57.6188 66.3162C58.2375 65.585 58.8563 64.8538 59.475 64.1225C59.115 63.7288 58.755 63.3463 58.395 62.9525C58.305 63.0425 58.215 63.1325 58.1363 63.2225L58.1475 63.2112Z" fill="#0E1219"/>
<path d="M61.2075 58.7449C60.9712 58.9924 60.735 59.2399 60.4987 59.4986C60.78 59.8249 60.915 59.9824 61.1962 60.3086C61.4325 60.0724 61.5562 59.9599 61.7925 59.7236C61.86 59.8024 61.905 59.8474 61.9725 59.9374C61.9725 60.0274 61.9387 60.1174 61.8825 60.1961C61.8375 60.2749 61.77 60.3536 61.7137 60.4211C61.6237 60.5111 61.5225 60.5786 61.41 60.6011C61.2975 60.6236 61.1962 60.6349 61.0837 60.6236C60.9712 60.6124 60.87 60.5674 60.7687 60.4999C60.6675 60.4436 60.5775 60.3649 60.4875 60.2749C60.3525 60.1286 60.2625 59.9824 60.2062 59.8136C60.15 59.6561 60.1275 59.4874 60.1387 59.3299C60.1387 59.1724 60.195 59.0036 60.2625 58.8574C60.33 58.6999 60.4312 58.5649 60.5662 58.4299C60.6562 58.3399 60.7575 58.2499 60.87 58.1711C60.9825 58.0924 61.095 58.0136 61.2187 57.9686C60.9262 57.6199 60.645 57.2711 60.3525 56.9224C60.2512 56.9449 60.1612 56.9786 60.06 57.0349C59.9587 57.0911 59.8687 57.1361 59.7787 57.2036C59.6887 57.2711 59.5987 57.3386 59.52 57.4061C59.4412 57.4736 59.3625 57.5524 59.295 57.6199C59.115 57.7999 58.9687 58.0024 58.8562 58.2161C58.7437 58.4299 58.665 58.6549 58.62 58.8911C58.575 59.1274 58.5525 59.3636 58.575 59.6111C58.5862 59.8586 58.6312 60.0949 58.71 60.3311C58.7775 60.5674 58.8787 60.8036 59.0025 61.0174C59.1262 61.2424 59.2725 61.4449 59.4525 61.6361C59.6775 61.8836 59.925 62.0861 60.2062 62.2211C60.4875 62.3561 60.7687 62.4349 61.0612 62.4461C61.3537 62.4574 61.6462 62.4124 61.9275 62.2999C62.2087 62.1874 62.4787 62.0074 62.715 61.7711C62.8387 61.6474 62.9625 61.5011 63.075 61.3436C63.1875 61.1861 63.2887 61.0061 63.3787 60.8261C63.4575 60.6461 63.525 60.4549 63.57 60.2749C63.615 60.0836 63.6262 59.9036 63.6037 59.7236C63.0412 59.1611 62.4787 58.5986 61.9275 58.0361C61.6912 58.2949 61.455 58.5424 61.2187 58.7899L61.2075 58.7449Z" fill="#0E1219"/>
<path d="M65.91 56.3486C65.82 56.1348 65.7188 55.9323 65.595 55.7298C65.4713 55.5273 65.3475 55.3361 65.2125 55.1561C65.0775 54.9761 64.9425 54.8073 64.7963 54.6498C64.6613 54.4923 64.5263 54.3573 64.4025 54.2336C64.1663 53.9973 63.9188 53.7836 63.66 53.5698C63.2888 53.9411 62.9063 54.3236 62.535 54.6948C62.67 54.8186 62.805 54.9423 62.94 55.0661C63.075 55.1898 63.21 55.3136 63.3338 55.4486C63.3675 55.4823 63.4238 55.5386 63.4913 55.6061C63.5588 55.6736 63.6375 55.7636 63.7275 55.8648C63.8175 55.9661 63.9075 56.0673 64.0088 56.1911C64.11 56.3036 64.2 56.4273 64.3013 56.5511C64.3913 56.6748 64.4813 56.7986 64.56 56.9223C64.6388 57.0461 64.7063 57.1586 64.7513 57.2598C64.7963 57.3611 64.83 57.4623 64.83 57.5411C64.83 57.6198 64.8188 57.6873 64.7738 57.7436C64.7288 57.7886 64.6725 57.7998 64.605 57.7886C64.5375 57.7886 64.4588 57.7548 64.38 57.7211C64.3013 57.6873 64.2113 57.6311 64.1325 57.5748C64.0425 57.5186 63.9638 57.4511 63.8963 57.3948C63.8175 57.3273 63.75 57.2711 63.6938 57.2148C63.6375 57.1586 63.5925 57.1248 63.5588 57.0911C63.3 56.8323 63.0413 56.5398 62.8163 56.2473C62.5913 55.9548 62.355 55.6511 62.1413 55.3473C61.7475 55.7073 61.365 56.0673 60.9713 56.4273C61.1625 56.7086 61.3538 56.9673 61.5563 57.2373C61.7588 57.5073 61.9838 57.7436 62.2088 57.9798C62.355 58.1373 62.5238 58.2836 62.6925 58.4411C62.8613 58.5986 63.0525 58.7336 63.2438 58.8573C63.435 58.9811 63.6375 59.0823 63.84 59.1611C64.0425 59.2398 64.245 59.2848 64.4588 59.2848C64.6613 59.2848 64.875 59.2511 65.0775 59.1723C65.28 59.0936 65.4825 58.9586 65.6738 58.7673C65.8425 58.5986 65.9663 58.4298 66.045 58.2386C66.1238 58.0473 66.1688 57.8448 66.18 57.6423C66.18 57.4398 66.18 57.2261 66.1238 57.0123C66.0675 56.7986 66.0113 56.5848 65.9213 56.3711L65.91 56.3486Z" fill="#0E1219"/>
<path d="M67.0012 50.3413C66.585 50.7013 66.1687 51.0613 65.7637 51.4101C65.9325 51.9613 66.1012 52.5126 66.27 53.0638C65.8312 52.7826 65.3925 52.5013 64.965 52.2088C64.6162 52.6701 64.2562 53.1313 63.9075 53.5926C64.7737 53.9751 65.6287 54.3463 66.495 54.7176C67.0125 55.2351 67.5412 55.7526 68.0587 56.2701C68.4525 55.8763 68.8462 55.4826 69.24 55.0888C68.7225 54.5601 68.205 54.0426 67.6762 53.5138C67.4625 52.4563 67.2375 51.3988 67.0012 50.3413Z" fill="#0E1219"/>
<path d="M75.1912 43.9064C74.5725 43.2877 73.56 43.2877 72.9412 43.9064L68.8687 47.9789C68.25 48.5977 68.25 49.6102 68.8687 50.2289L70.41 51.7702C71.0287 52.3889 72.0412 52.3889 72.66 51.7702L76.7325 47.6977C77.3512 47.0789 77.3512 46.0664 76.7325 45.4477L75.1912 43.9064ZM73.4475 49.0589C73.425 49.1714 73.38 49.2839 73.335 49.3964C73.29 49.5089 73.2225 49.6102 73.155 49.7114C73.0875 49.8127 73.0087 49.9027 72.93 49.9814C72.7837 50.1277 72.615 50.2402 72.4462 50.3189C72.2775 50.3977 72.0975 50.4314 71.9062 50.4314C71.7262 50.4314 71.5462 50.3977 71.3662 50.3302C71.1862 50.2514 71.0287 50.1502 70.8825 50.0039C70.77 49.8914 70.68 49.7677 70.59 49.6327C70.5112 49.4977 70.4437 49.3627 70.3987 49.2277C70.3537 49.0927 70.3312 48.9464 70.32 48.8002C70.32 48.6539 70.32 48.5077 70.3537 48.3614C70.3875 48.2152 70.4437 48.0802 70.5112 47.9452C70.59 47.8102 70.68 47.6864 70.8037 47.5627C70.8487 47.5177 70.8937 47.4727 70.95 47.4277C71.0062 47.3827 71.0625 47.3377 71.1187 47.2927C71.175 47.2477 71.2425 47.2139 71.2987 47.1802C71.3662 47.1464 71.4225 47.1239 71.49 47.1127L72.0412 47.7427C71.9625 47.7764 71.8837 47.8214 71.8162 47.8777C71.7487 47.9339 71.6812 47.9902 71.625 48.0464C71.5462 48.1252 71.4787 48.2152 71.4225 48.3164C71.3775 48.4064 71.3437 48.5077 71.3325 48.5977C71.3325 48.6989 71.3325 48.7889 71.3662 48.8902C71.4 48.9914 71.4562 49.0814 71.5462 49.1602C71.6025 49.2164 71.6587 49.2614 71.7262 49.2952C71.7937 49.3289 71.8612 49.3514 71.9287 49.3627C71.9962 49.3627 72.0637 49.3627 72.1312 49.3514C72.1987 49.3289 72.2662 49.2952 72.3225 49.2389C72.3675 49.1939 72.4012 49.1602 72.4237 49.1039C72.4575 49.0477 72.48 49.0027 72.48 48.9464L72.3675 48.8227L71.9962 49.1827L71.5462 48.6989C71.6925 48.5414 71.8387 48.3839 71.9962 48.2264C72.1425 48.0689 72.3 47.9114 72.4462 47.7539L73.47 48.7439C73.47 48.8564 73.47 48.9689 73.4475 49.0814V49.0589ZM75.585 46.9214C75.5625 47.0339 75.5175 47.1464 75.4725 47.2589C75.4275 47.3714 75.36 47.4727 75.2925 47.5739C75.225 47.6752 75.1462 47.7652 75.0675 47.8439C74.9212 47.9902 74.7525 48.1027 74.5837 48.1814C74.4037 48.2602 74.2237 48.2939 74.0437 48.2939C73.8637 48.2939 73.6837 48.2602 73.515 48.1814C73.335 48.1139 73.1775 48.0014 73.0312 47.8552C72.9187 47.7427 72.8175 47.6189 72.7387 47.4839C72.66 47.3489 72.5925 47.2139 72.5475 47.0789C72.5025 46.9439 72.48 46.7977 72.4687 46.6514C72.4687 46.5052 72.4687 46.3589 72.5025 46.2127C72.5362 46.0664 72.5812 45.9314 72.66 45.7964C72.7387 45.6614 72.8287 45.5377 72.9525 45.4252C72.9975 45.3802 73.0425 45.3352 73.0987 45.2902C73.155 45.2452 73.2112 45.2002 73.2675 45.1552C73.3237 45.1102 73.3912 45.0764 73.4475 45.0427C73.515 45.0089 73.5712 44.9864 73.6387 44.9639L74.19 45.5939C74.1112 45.6277 74.0325 45.6727 73.965 45.7289C73.8975 45.7852 73.83 45.8414 73.7737 45.8977C73.695 45.9764 73.6275 46.0664 73.5712 46.1564C73.5262 46.2464 73.4925 46.3477 73.4812 46.4377C73.4812 46.5389 73.4812 46.6289 73.515 46.7302C73.5487 46.8202 73.605 46.9214 73.695 47.0002C73.7512 47.0564 73.8075 47.1014 73.875 47.1352C73.9425 47.1689 74.01 47.1914 74.0775 47.2027C74.145 47.2027 74.2125 47.2027 74.28 47.1914C74.3475 47.1689 74.415 47.1352 74.4712 47.0789C74.505 47.0452 74.55 47.0002 74.5725 46.9439C74.6062 46.8877 74.6287 46.8427 74.6287 46.7864L74.5162 46.6627L74.1337 47.0227L73.6837 46.5389C73.83 46.3814 73.9762 46.2239 74.1337 46.0664C74.28 45.9089 74.4375 45.7514 74.5837 45.5939L75.6075 46.5839C75.6075 46.6964 75.6075 46.8089 75.585 46.9214Z" fill="#0E1219"/>
</g>
<defs>
<clipPath id="clip0_125_13352">
<rect width="108" height="88.29" fill="white" transform="translate(0.165009 0.290039)"/>
</clipPath>
</defs>
</svg>
