<svg width="109" height="89" viewBox="0 0 109 89" fill="none" xmlns="http://www.w3.org/2000/svg">
<g clip-path="url(#clip0_125_13265)">
<path d="M107.232 28.5751L48.4287 87.3789C47.2025 88.6051 45.2112 88.6051 43.9737 87.3789C39.7662 83.1714 32.9262 83.1714 28.7187 87.3789C27.4925 88.6051 25.5012 88.6051 24.2637 87.3789L1.07746 64.1701C-0.148787 62.9439 -0.148787 60.9526 1.07746 59.7151L59.8812 0.922617C61.1075 -0.303633 63.0987 -0.303633 64.3362 0.922617C68.5437 5.13012 75.3837 5.13012 79.5912 0.922617C80.8175 -0.303633 82.8087 -0.303633 84.0462 0.922617L107.244 24.1201C108.47 25.3464 108.47 27.3376 107.244 28.5751H107.232ZM45.9987 80.9101L100.561 26.3476L81.605 7.39137C75.8112 11.3626 68.105 11.3626 62.3112 7.39137L7.74871 61.9426L26.705 80.8989C32.4987 76.9276 40.205 76.9276 45.9987 80.8989V80.9101Z" fill="white"/>
<path d="M81.8075 3.1499L105.005 26.3474L46.2012 85.1511C40.7562 79.7061 31.9362 79.7061 26.4912 85.1511L3.30499 61.9424L62.0975 3.1499C67.5425 8.5949 76.3625 8.5949 81.8075 3.1499Z" fill="#6B8E5C"/>
<path d="M105.489 25.875L82.2799 2.66623C82.0212 2.40748 81.5937 2.40748 81.3237 2.66623C76.1487 7.84123 67.7449 7.84123 62.57 2.66623C62.3112 2.40748 61.8837 2.40748 61.6137 2.66623L2.8212 61.47C2.56245 61.7287 2.56245 62.1562 2.8212 62.4262L26.0187 85.6237C26.2774 85.8825 26.7049 85.8825 26.9749 85.6237C32.1499 80.4487 40.5537 80.4487 45.7287 85.6237C45.9874 85.8825 46.415 85.8825 46.685 85.6237L105.489 26.82C105.747 26.5612 105.747 26.1337 105.489 25.8637V25.875ZM84.5862 45.8212L84.1137 45.3487C83.9787 45.2137 83.7649 45.2137 83.6412 45.3487C83.5062 45.4837 83.5062 45.6975 83.6412 45.8212L84.1137 46.2937L46.2012 84.2062C40.6437 79.1325 32.0824 79.1325 26.5137 84.2062L4.24995 61.9425L52.0062 14.1862L52.4787 14.6587C52.6137 14.7937 52.8274 14.7937 52.9512 14.6587C53.0862 14.5237 53.0862 14.31 52.9512 14.1862L52.4787 13.7137L62.1087 4.08373C67.6662 9.15748 76.2274 9.15748 81.7962 4.08373L104.06 26.3475L84.5974 45.81L84.5862 45.8212Z" fill="#0E1219"/>
<path d="M74.4725 36.6526C74.6075 36.7876 74.8212 36.7876 74.945 36.6526C75.0687 36.5176 75.08 36.3039 74.945 36.1801L73.1112 34.3464C72.9762 34.2114 72.7625 34.2114 72.6387 34.3464C72.5037 34.4814 72.5037 34.6951 72.6387 34.8189L74.4725 36.6526Z" fill="#0E1219"/>
<path d="M70.805 32.9851C70.94 33.1201 71.1537 33.1201 71.2775 32.9851C71.4125 32.8501 71.4125 32.6364 71.2775 32.5126L69.4437 30.6789C69.3087 30.5439 69.095 30.5439 68.9712 30.6789C68.8362 30.8139 68.8362 31.0276 68.9712 31.1514L70.805 32.9851Z" fill="#0E1219"/>
<path d="M76.7787 38.0138C76.6437 37.8788 76.43 37.8788 76.3062 38.0138C76.1712 38.1488 76.1712 38.3626 76.3062 38.4863L78.14 40.3201C78.275 40.4551 78.4887 40.4551 78.6125 40.3201C78.7362 40.1851 78.7475 39.9713 78.6125 39.8476L76.7787 38.0138Z" fill="#0E1219"/>
<path d="M79.9737 41.6701C79.8387 41.8051 79.8387 42.0188 79.9737 42.1426L81.8074 43.9763C81.9424 44.1113 82.1562 44.1113 82.2799 43.9763C82.4037 43.8413 82.4149 43.6276 82.2799 43.5038L80.4462 41.6701C80.3112 41.5351 80.0974 41.5351 79.9737 41.6701Z" fill="#0E1219"/>
<path d="M59.8137 21.9939C59.9487 22.1289 60.1624 22.1289 60.2862 21.9939C60.4212 21.8589 60.4212 21.6452 60.2862 21.5214L58.4524 19.6877C58.3174 19.5527 58.1037 19.5527 57.9799 19.6877C57.8449 19.8227 57.8449 20.0364 57.9799 20.1602L59.8137 21.9939Z" fill="#0E1219"/>
<path d="M67.1487 29.3289C67.2837 29.4639 67.4975 29.4639 67.6212 29.3289C67.7562 29.1939 67.7562 28.9801 67.6212 28.8564L65.7875 27.0226C65.6525 26.8876 65.4387 26.8876 65.315 27.0226C65.18 27.1576 65.18 27.3714 65.315 27.4951L67.1487 29.3289Z" fill="#0E1219"/>
<path d="M56.1462 18.3377C56.2812 18.4727 56.4949 18.4727 56.6187 18.3377C56.7537 18.2027 56.7537 17.9889 56.6187 17.8652L54.7849 16.0314C54.6499 15.8964 54.4362 15.8964 54.3124 16.0314C54.1887 16.1664 54.1774 16.3802 54.3124 16.5039L56.1462 18.3377Z" fill="#0E1219"/>
<path d="M63.4811 25.6614C63.6161 25.7964 63.8299 25.7964 63.9536 25.6614C64.0886 25.5264 64.0886 25.3127 63.9536 25.1889L62.1199 23.3552C61.9849 23.2202 61.7711 23.2202 61.6474 23.3552C61.5124 23.4902 61.5124 23.7039 61.6474 23.8277L63.4811 25.6614Z" fill="#0E1219"/>
<path d="M12.0574 63.5397L15.2637 64.7997L15.5899 63.0335L21.6087 69.3672L24.5899 66.6447L15.6799 56.981L12.5862 59.816L12.0574 63.5397Z" fill="#0E1219"/>
<path d="M27.6949 52.1211C27.2224 51.8286 26.7387 51.5811 26.2324 51.3898C25.7262 51.1986 25.1974 51.0748 24.6687 51.0073C24.1399 50.9398 23.5999 50.9398 23.0824 51.0186C22.5649 51.0973 22.0587 51.2548 21.5749 51.4911C21.0912 51.7273 20.6412 52.0423 20.2249 52.4586C19.8087 52.8748 19.4824 53.3248 19.2462 53.8086C19.0099 54.2923 18.8524 54.7986 18.7737 55.3273C18.6949 55.8448 18.6949 56.3736 18.7624 56.9136C18.8299 57.4536 18.9537 57.9711 19.1449 58.4886C19.3362 58.9948 19.5724 59.4898 19.8762 59.9511C20.1687 60.4236 20.5174 60.8398 20.8887 61.2223C21.2599 61.6048 21.6874 61.9423 22.1599 62.2348C22.6212 62.5273 23.1162 62.7748 23.6224 62.9548C24.1287 63.1348 24.6574 63.2698 25.1862 63.3373C25.7262 63.4048 26.2549 63.3936 26.7724 63.3261C27.2899 63.2473 27.7962 63.0898 28.2799 62.8536C28.7637 62.6173 29.2249 62.2911 29.6412 61.8748C30.0574 61.4586 30.3724 61.0086 30.6087 60.5248C30.8449 60.0411 31.0024 59.5348 31.0812 59.0173C31.1599 58.4998 31.1599 57.9711 31.0924 57.4311C31.0249 56.9023 30.9012 56.3736 30.7099 55.8673C30.5187 55.3611 30.2824 54.8661 29.9899 54.4048C29.6974 53.9436 29.3599 53.5161 28.9774 53.1336C28.5949 52.7511 28.1787 52.4136 27.7062 52.1211H27.6949ZM26.9637 56.8011C27.1437 57.0936 27.2899 57.3861 27.3799 57.7011C27.4812 58.0161 27.5037 58.3311 27.4812 58.6348C27.4474 58.9386 27.3124 59.2198 27.0874 59.4561C26.8512 59.6923 26.5699 59.8273 26.2662 59.8611C25.9624 59.8948 25.6474 59.8611 25.3324 59.7711C25.0174 59.6811 24.7137 59.5348 24.4324 59.3548C24.1399 59.1748 23.9037 58.9836 23.7124 58.7923C23.5212 58.6011 23.3299 58.3648 23.1499 58.0723C22.9699 57.7798 22.8237 57.4873 22.7337 57.1723C22.6437 56.8573 22.6099 56.5423 22.6437 56.2386C22.6774 55.9348 22.8124 55.6536 23.0487 55.4173C23.2849 55.1811 23.5549 55.0461 23.8699 55.0236C24.1737 54.9898 24.4887 55.0236 24.8037 55.1248C25.1187 55.2261 25.4224 55.3611 25.7037 55.5411C25.9962 55.7211 26.2324 55.9123 26.4237 56.1036C26.6149 56.2948 26.8062 56.5311 26.9862 56.8236L26.9637 56.8011Z" fill="#0E1219"/>
<path d="M90.92 26.5385L94.5988 23.1523L93.5188 21.9823L92.1013 21.7798L91.6288 22.9948L92.2925 23.1185L89.885 25.4135L90.92 26.5385Z" fill="#0E1219"/>
<path d="M93.4737 24.7502C93.2937 24.8627 93.1362 24.9977 92.9899 25.1327C92.8437 25.2789 92.7199 25.4364 92.6074 25.6164C92.4949 25.7964 92.4049 25.9764 92.3374 26.1677C92.2699 26.3589 92.2137 26.5614 92.1912 26.7639C92.1687 26.9664 92.1687 27.1689 92.1912 27.3714C92.2249 27.5739 92.2812 27.7652 92.3712 27.9452C92.4612 28.1252 92.5849 28.3052 92.7424 28.4627C92.8999 28.6202 93.0687 28.7439 93.2599 28.8339C93.4399 28.9239 93.6312 28.9802 93.8337 29.0139C94.0362 29.0477 94.2274 29.0477 94.4412 29.0139C94.6437 28.9914 94.8462 28.9352 95.0374 28.8677C95.2287 28.8002 95.4199 28.7102 95.5887 28.5977C95.7687 28.4852 95.9262 28.3614 96.0724 28.2152C96.2187 28.0689 96.3424 27.9114 96.4549 27.7314C96.5674 27.5514 96.6574 27.3714 96.7362 27.1689C96.8037 26.9777 96.8599 26.7752 96.8824 26.5727C96.9049 26.3702 96.9049 26.1677 96.8824 25.9652C96.8599 25.7627 96.7924 25.5714 96.7024 25.3914C96.6124 25.2114 96.4887 25.0314 96.3312 24.8739C96.1737 24.7164 96.0049 24.5927 95.8137 24.5027C95.6224 24.4127 95.4312 24.3564 95.2399 24.3227C95.0374 24.2889 94.8462 24.2889 94.6324 24.3227C94.4187 24.3564 94.2274 24.4014 94.0362 24.4689C93.8449 24.5364 93.6537 24.6377 93.4737 24.7502ZM94.5312 25.8414C94.6549 25.8077 94.7674 25.7964 94.8912 25.8077C95.0037 25.8189 95.1162 25.8752 95.2062 25.9652C95.2962 26.0552 95.3412 26.1564 95.3524 26.2802C95.3637 26.3927 95.3524 26.5164 95.3187 26.6402C95.2849 26.7639 95.2287 26.8764 95.1612 26.9777C95.0937 27.0789 95.0149 27.1802 94.9474 27.2477C94.8799 27.3152 94.7787 27.3939 94.6774 27.4614C94.5649 27.5289 94.4524 27.5852 94.3399 27.6189C94.2162 27.6527 94.1037 27.6639 93.9799 27.6527C93.8674 27.6414 93.7549 27.5852 93.6649 27.5064C93.5749 27.4164 93.5187 27.3152 93.5074 27.1914C93.4962 27.0789 93.5074 26.9552 93.5412 26.8314C93.5749 26.7077 93.6312 26.5952 93.6987 26.4827C93.7662 26.3702 93.8449 26.2802 93.9124 26.2127C93.9799 26.1452 94.0812 26.0664 94.1824 25.9989C94.2949 25.9314 94.4074 25.8752 94.5312 25.8414Z" fill="#0E1219"/>
<path d="M49.3062 71.9213C49.2725 72.0113 49.2387 72.1014 49.1937 72.1801C49.1487 72.2701 49.1037 72.3488 49.0587 72.4276C49.0137 72.5063 48.9575 72.5738 48.89 72.6301C48.8112 72.7088 48.7325 72.7651 48.6425 72.8101C48.5525 72.8551 48.4737 72.8776 48.3837 72.8776C48.2937 72.8776 48.2037 72.8664 48.125 72.8214C48.035 72.7764 47.9562 72.7201 47.8662 72.6189C47.7312 72.4726 47.6412 72.3263 47.5962 72.1688C47.5512 72.0113 47.5287 71.8651 47.5512 71.7076C47.5625 71.5613 47.6075 71.4151 47.6862 71.2688C47.765 71.1226 47.855 70.9988 47.9675 70.8863C48.0125 70.8413 48.0575 70.7963 48.1137 70.7626C48.1587 70.7176 48.215 70.6838 48.2825 70.6501C47.9787 70.2338 47.675 69.8288 47.3825 69.4126C47.2362 69.4576 47.1012 69.5251 46.9662 69.6151C46.8312 69.7051 46.7187 69.8063 46.6062 69.9188C46.325 70.2001 46.1225 70.5151 46.01 70.8526C45.8975 71.1901 45.8637 71.5276 45.8975 71.8763C45.9312 72.2251 46.0325 72.5738 46.2012 72.9226C46.37 73.2713 46.5837 73.5976 46.8537 73.9013C47.0562 74.1263 47.2925 74.3064 47.54 74.4301C47.7875 74.5539 48.0462 74.6213 48.3162 74.6438C48.575 74.6551 48.8337 74.6213 49.0925 74.5313C49.3512 74.4413 49.5762 74.2838 49.7787 74.0813C49.8462 74.0138 49.9137 73.9351 49.9812 73.8451C50.0487 73.7551 50.1162 73.6651 50.1725 73.5638C50.2287 73.4626 50.285 73.3726 50.33 73.2713C50.375 73.1701 50.42 73.0688 50.4425 72.9788C50.0937 72.5401 49.7337 72.1013 49.385 71.6513C49.3625 71.7301 49.34 71.8201 49.3062 71.9101V71.9213Z" fill="#0E1219"/>
<path d="M49.0812 67.5789C49.7224 68.2427 50.3637 68.9064 51.0049 69.5702L50.4762 70.0989C49.9024 69.4577 49.3287 68.8164 48.7662 68.1752C48.3724 68.5239 47.9899 68.8839 47.5962 69.2327C48.7212 70.4814 49.8462 71.7302 50.9599 72.9902C51.3199 72.6302 51.6799 72.2702 52.0399 71.9102C51.6912 71.5164 51.3424 71.1339 50.9824 70.7402C51.2074 70.5152 51.3087 70.4139 51.5337 70.1889C51.9162 70.5827 52.3099 70.9764 52.6924 71.3702C53.0749 70.9427 53.4574 70.5264 53.8399 70.0989C52.6137 68.9177 51.3874 67.7364 50.1612 66.5439L49.0699 67.5789H49.0812Z" fill="#0E1219"/>
<path d="M50.6112 66.3411C51.7587 67.4886 52.895 68.6361 54.0425 69.7836C54.3687 69.4236 54.6837 69.0636 55.01 68.7149C53.9412 67.4886 52.8612 66.2624 51.7925 65.0361C51.3987 65.4749 51.005 65.9136 50.6225 66.3524L50.6112 66.3411Z" fill="#0E1219"/>
<path d="M55.9212 65.1376C55.8424 65.2276 55.7524 65.3176 55.6624 65.4076L55.4374 65.6326C55.3699 65.7113 55.2912 65.7788 55.2124 65.8463C54.8412 65.4751 54.4924 65.0813 54.1437 64.6876C53.7949 64.2938 53.4574 63.9001 53.1087 63.5063C52.7037 63.9113 52.2987 64.3163 51.8937 64.7213C52.4674 65.3176 53.0524 65.9138 53.6262 66.4988C54.2112 67.0838 54.7849 67.6801 55.3699 68.2651C55.9887 67.5338 56.6074 66.8026 57.2262 66.0713C56.8774 65.6776 56.5174 65.2726 56.1687 64.8788C56.0787 64.9688 55.9887 65.0588 55.9099 65.1488L55.9212 65.1376Z" fill="#0E1219"/>
<path d="M58.1374 62.9212C58.0587 63.0112 57.9687 63.1012 57.8787 63.1912L57.6537 63.4162C57.5749 63.495 57.5074 63.5625 57.4287 63.63C57.0574 63.2587 56.6862 62.8762 56.3374 62.4937C55.9887 62.1112 55.6399 61.7175 55.2799 61.335C54.8749 61.74 54.4699 62.145 54.0649 62.55C54.6499 63.135 55.2462 63.72 55.8312 64.2937C56.4162 64.8675 57.0124 65.4525 57.6087 66.0262C58.2274 65.295 58.8462 64.5637 59.4649 63.8325C59.1049 63.4387 58.7449 63.0562 58.3849 62.6625C58.2949 62.7525 58.2049 62.8425 58.1262 62.9325L58.1374 62.9212Z" fill="#0E1219"/>
<path d="M61.1975 58.4548C60.9612 58.7023 60.725 58.9498 60.4887 59.2086C60.77 59.5348 60.905 59.6923 61.1862 60.0186C61.4225 59.7823 61.5462 59.6698 61.7825 59.4336C61.85 59.5123 61.895 59.5573 61.9625 59.6473C61.9625 59.7373 61.9287 59.8273 61.8725 59.9061C61.8275 59.9848 61.76 60.0636 61.7037 60.1311C61.6137 60.2211 61.5125 60.2886 61.4 60.3111C61.2987 60.3448 61.1862 60.3448 61.0737 60.3336C60.9612 60.3111 60.86 60.2773 60.7587 60.2098C60.6575 60.1536 60.5675 60.0748 60.4775 59.9848C60.3425 59.8386 60.2525 59.6923 60.1962 59.5236C60.14 59.3548 60.1175 59.1973 60.1287 59.0398C60.1287 58.8823 60.185 58.7136 60.2525 58.5673C60.32 58.4098 60.4212 58.2748 60.5562 58.1398C60.6462 58.0498 60.7475 57.9598 60.86 57.8811C60.9725 57.8023 61.085 57.7236 61.2087 57.6786C60.9162 57.3298 60.635 56.9811 60.3425 56.6323C60.2412 56.6548 60.1512 56.6886 60.05 56.7448C59.9487 56.7898 59.8587 56.8461 59.7687 56.9136C59.6787 56.9811 59.5887 57.0486 59.51 57.1161C59.4312 57.1836 59.3525 57.2623 59.285 57.3298C59.105 57.5098 58.9587 57.7123 58.8462 57.9261C58.7337 58.1398 58.655 58.3648 58.61 58.6011C58.565 58.8373 58.5425 59.0736 58.565 59.3211C58.5875 59.5686 58.6212 59.8048 58.7 60.0411C58.7675 60.2773 58.8687 60.5136 58.9925 60.7273C59.1162 60.9411 59.2625 61.1548 59.4425 61.3461C59.6675 61.5936 59.915 61.7961 60.1962 61.9311C60.4775 62.0661 60.7587 62.1448 61.0512 62.1561C61.3437 62.1673 61.6362 62.1223 61.9175 62.0098C62.1987 61.8973 62.4687 61.7173 62.705 61.4811C62.8287 61.3573 62.9525 61.2111 63.065 61.0536C63.1775 60.8848 63.2787 60.7161 63.3687 60.5361C63.4475 60.3561 63.515 60.1648 63.56 59.9848C63.605 59.7936 63.6162 59.6136 63.5937 59.4336C63.0312 58.8711 62.4687 58.3086 61.9175 57.7461C61.6812 58.0048 61.445 58.2523 61.2087 58.4998L61.1975 58.4548Z" fill="#0E1219"/>
<path d="M65.8999 56.0585C65.8099 55.8448 65.7087 55.6423 65.5849 55.4398C65.4612 55.2373 65.3374 55.046 65.2024 54.866C65.0674 54.686 64.9324 54.5173 64.7862 54.3598C64.6399 54.2023 64.5162 54.0673 64.3924 53.9435C64.1562 53.7073 63.9087 53.4935 63.6499 53.2798C63.2787 53.651 62.8962 54.0335 62.5249 54.4048C62.6599 54.5285 62.7949 54.6523 62.9299 54.776C63.0649 54.8998 63.1999 55.0235 63.3237 55.1585C63.3574 55.1923 63.4137 55.2485 63.4812 55.316C63.5487 55.3948 63.6274 55.4735 63.7174 55.5748C63.8074 55.676 63.8974 55.7773 63.9987 55.901C64.0999 56.0135 64.1899 56.1373 64.2912 56.261C64.3812 56.3848 64.4712 56.5085 64.5499 56.6323C64.6287 56.756 64.6962 56.8685 64.7412 56.9698C64.7862 57.071 64.8199 57.1723 64.8199 57.251C64.8199 57.3298 64.8087 57.3973 64.7637 57.4535C64.7187 57.4985 64.6624 57.5098 64.5949 57.4985C64.5274 57.4985 64.4487 57.4648 64.3699 57.431C64.2912 57.3973 64.2012 57.341 64.1224 57.2848C64.0437 57.2285 63.9537 57.161 63.8862 57.1048C63.8074 57.0373 63.7399 56.981 63.6837 56.9248C63.6274 56.8685 63.5824 56.8348 63.5487 56.801C63.2899 56.5423 63.0312 56.2498 62.8062 55.9573C62.5812 55.6648 62.3449 55.361 62.1312 55.0573C61.7374 55.4173 61.3549 55.7773 60.9612 56.1373C61.1524 56.4185 61.3437 56.6773 61.5462 56.9473C61.7487 57.206 61.9737 57.4535 62.1987 57.6898C62.3449 57.8473 62.5137 57.9935 62.6824 58.151C62.8624 58.3085 63.0424 58.4435 63.2337 58.5673C63.4249 58.691 63.6274 58.7923 63.8299 58.871C64.0324 58.9498 64.2349 58.9948 64.4487 58.9948C64.6512 58.9948 64.8649 58.961 65.0674 58.8823C65.2699 58.8035 65.4724 58.6685 65.6637 58.4773C65.8324 58.3085 65.9562 58.1398 66.0349 57.9485C66.1137 57.7573 66.1587 57.5548 66.1699 57.3523C66.1699 57.1498 66.1699 56.936 66.1137 56.7223C66.0687 56.5085 66.0012 56.2948 65.9112 56.081L65.8999 56.0585Z" fill="#0E1219"/>
<path d="M66.9912 50.0513C66.575 50.4113 66.1587 50.7713 65.7537 51.12C65.9225 51.6713 66.0912 52.2225 66.26 52.7738C65.8212 52.4925 65.3825 52.2113 64.955 51.9188C64.6062 52.38 64.2462 52.8413 63.8975 53.3025C64.7637 53.685 65.6187 54.0563 66.485 54.4275C67.0025 54.945 67.5312 55.4625 68.0487 55.98C68.4425 55.5863 68.8362 55.1925 69.23 54.7988C68.7125 54.27 68.195 53.7525 67.6662 53.2238C67.4525 52.1663 67.2275 51.1088 66.9912 50.0513Z" fill="#0E1219"/>
<path d="M75.1812 43.6164C74.5625 42.9977 73.55 42.9977 72.9312 43.6164L68.8587 47.6889C68.24 48.3077 68.24 49.3202 68.8587 49.9389L70.4 51.4802C71.0187 52.0989 72.0312 52.0989 72.65 51.4802L76.7225 47.4077C77.3412 46.7889 77.3412 45.7764 76.7225 45.1577L75.1812 43.6164ZM73.4375 48.7689C73.415 48.8814 73.37 48.9939 73.325 49.1064C73.28 49.2189 73.2125 49.3202 73.145 49.4214C73.0775 49.5227 72.9987 49.6127 72.92 49.6914C72.7737 49.8377 72.605 49.9502 72.4362 50.0289C72.2675 50.1077 72.0875 50.1414 71.8962 50.1414C71.7162 50.1414 71.5362 50.1077 71.3562 50.0402C71.1762 49.9614 71.0187 49.8602 70.8725 49.7139C70.76 49.6014 70.67 49.4777 70.58 49.3427C70.5012 49.2077 70.4337 49.0727 70.3887 48.9377C70.3437 48.8027 70.3212 48.6564 70.31 48.5102C70.31 48.3639 70.31 48.2177 70.3437 48.0714C70.3775 47.9252 70.4337 47.7902 70.5012 47.6552C70.58 47.5202 70.67 47.3964 70.7937 47.2727C70.8387 47.2277 70.8837 47.1827 70.94 47.1377C70.9962 47.0927 71.0525 47.0477 71.1087 47.0027C71.165 46.9577 71.2325 46.9239 71.2887 46.8902C71.3562 46.8564 71.4125 46.8339 71.48 46.8227L72.0312 47.4527C71.9525 47.4864 71.8737 47.5314 71.8062 47.5877C71.7387 47.6439 71.6712 47.7002 71.615 47.7564C71.5362 47.8352 71.4687 47.9252 71.4125 48.0264C71.3675 48.1164 71.3337 48.2177 71.3225 48.3077C71.3225 48.4089 71.3225 48.4989 71.3562 48.6002C71.39 48.7014 71.4462 48.7914 71.5362 48.8702C71.5925 48.9264 71.6487 48.9714 71.7162 49.0052C71.7837 49.0389 71.8512 49.0614 71.9187 49.0727C71.9862 49.0727 72.0537 49.0727 72.1212 49.0614C72.1887 49.0389 72.2562 49.0052 72.3125 48.9489C72.3575 48.9039 72.3912 48.8702 72.4137 48.8139C72.4475 48.7577 72.47 48.7127 72.47 48.6564L72.3575 48.5327L71.9862 48.8927L71.5362 48.4089C71.6825 48.2514 71.8287 48.0939 71.9862 47.9364C72.1325 47.7789 72.29 47.6214 72.4362 47.4639L73.46 48.4539C73.46 48.5664 73.46 48.6789 73.4375 48.7914V48.7689ZM75.575 46.6314C75.5525 46.7439 75.5075 46.8564 75.4625 46.9689C75.4175 47.0814 75.35 47.1827 75.2825 47.2839C75.215 47.3852 75.1362 47.4752 75.0575 47.5539C74.9112 47.7002 74.7425 47.8127 74.5737 47.8914C74.405 47.9702 74.2137 48.0039 74.0337 48.0039C73.8537 48.0039 73.6737 47.9702 73.505 47.8914C73.325 47.8127 73.1675 47.7114 73.0212 47.5652C72.9087 47.4527 72.8075 47.3289 72.7287 47.1939C72.65 47.0589 72.5825 46.9239 72.5375 46.7889C72.4925 46.6539 72.47 46.5077 72.4587 46.3614C72.4587 46.2152 72.4587 46.0689 72.4925 45.9227C72.5262 45.7764 72.5712 45.6414 72.65 45.5064C72.7287 45.3714 72.8187 45.2477 72.9425 45.1352C72.9875 45.0902 73.0325 45.0452 73.0887 45.0002C73.145 44.9552 73.2012 44.9102 73.2575 44.8652C73.3137 44.8202 73.3812 44.7864 73.4375 44.7527C73.505 44.7189 73.5612 44.6964 73.6287 44.6739L74.18 45.3039C74.1012 45.3377 74.0225 45.3827 73.955 45.4389C73.8875 45.4952 73.82 45.5514 73.7637 45.6077C73.685 45.6864 73.6175 45.7764 73.5612 45.8664C73.5162 45.9564 73.4825 46.0577 73.4712 46.1477C73.4712 46.2489 73.4712 46.3389 73.505 46.4402C73.5387 46.5302 73.595 46.6314 73.685 46.7102C73.7412 46.7664 73.7975 46.8114 73.865 46.8452C73.9325 46.8789 74 46.9014 74.0675 46.9127C74.135 46.9127 74.2025 46.9127 74.27 46.9014C74.3375 46.8789 74.405 46.8452 74.4612 46.7889C74.495 46.7552 74.54 46.7102 74.5625 46.6539C74.5962 46.5977 74.6187 46.5527 74.6187 46.4964L74.5062 46.3727L74.1237 46.7327L73.6737 46.2489C73.82 46.0914 73.9662 45.9339 74.1237 45.7764C74.27 45.6189 74.4275 45.4614 74.5737 45.3039L75.5975 46.2939C75.5975 46.4064 75.5975 46.5189 75.575 46.6314Z" fill="#0E1219"/>
</g>
<defs>
<clipPath id="clip0_125_13265">
<rect width="108" height="88.29" fill="white" transform="translate(0.154968)"/>
</clipPath>
</defs>
</svg>
