<svg width="109" height="89" viewBox="0 0 109 89" fill="none" xmlns="http://www.w3.org/2000/svg">
<path d="M107.243 28.5751L48.4388 87.3789C47.2125 88.6051 45.2213 88.6051 43.9838 87.3789C39.7763 83.1714 32.9363 83.1714 28.7288 87.3789C27.5025 88.6051 25.5113 88.6051 24.2738 87.3789L1.0875 64.1701C-0.138746 62.9439 -0.138746 60.9526 1.0875 59.7151L59.8913 0.922617C61.1175 -0.303633 63.1088 -0.303633 64.3463 0.922617C68.5538 5.13012 75.3938 5.13012 79.6012 0.922617C80.8275 -0.303633 82.8187 -0.303633 84.0563 0.922617L107.254 24.1201C108.48 25.3464 108.48 27.3376 107.254 28.5751H107.243ZM46.0088 80.9101L100.571 26.3476L81.615 7.39137C75.8213 11.3626 68.115 11.3626 62.3213 7.39137L7.75875 61.9426L26.715 80.8989C32.5088 76.9276 40.215 76.9276 46.0088 80.8989V80.9101Z" fill="white"/>
<path d="M81.8175 3.1499L105.015 26.3474L46.2113 85.1511C40.7663 79.7061 31.9463 79.7061 26.5013 85.1511L3.315 61.9424L62.1075 3.1499C67.5525 8.5949 76.3725 8.5949 81.8175 3.1499Z" fill="#DBC6A9"/>
<path d="M105.499 25.875L82.29 2.66623C82.0312 2.40748 81.6037 2.40748 81.3337 2.66623C76.1587 7.84123 67.755 7.84123 62.58 2.66623C62.3212 2.40748 61.8937 2.40748 61.6237 2.66623L2.83124 61.47C2.57249 61.7287 2.57249 62.1562 2.83124 62.4262L26.0287 85.6237C26.2875 85.8825 26.715 85.8825 26.985 85.6237C32.16 80.4487 40.5637 80.4487 45.7387 85.6237C45.9975 85.8825 46.425 85.8825 46.695 85.6237L105.499 26.82C105.757 26.5612 105.757 26.1337 105.499 25.8637V25.875ZM84.5962 45.8212L84.1237 45.3487C83.9887 45.2137 83.775 45.2137 83.6512 45.3487C83.5162 45.4837 83.5162 45.6975 83.6512 45.8212L84.1237 46.2937L46.2112 84.2062C40.6537 79.1325 32.0925 79.1325 26.5237 84.2062L4.25999 61.9425L52.0162 14.1862L52.4887 14.6587C52.6237 14.7937 52.8375 14.7937 52.9612 14.6587C53.0962 14.5237 53.0962 14.31 52.9612 14.1862L52.4887 13.7137L62.1187 4.08373C67.6762 9.15748 76.2375 9.15748 81.8062 4.08373L104.07 26.3475L84.6075 45.81L84.5962 45.8212Z" fill="#0E1219"/>
<path d="M76.7888 38.0138C76.6538 37.8788 76.44 37.8788 76.3163 38.0138C76.1925 38.1488 76.1813 38.3626 76.3163 38.4863L78.15 40.3201C78.285 40.4551 78.4987 40.4551 78.6225 40.3201C78.7575 40.1851 78.7575 39.9713 78.6225 39.8476L76.7888 38.0138Z" fill="#0E1219"/>
<path d="M70.815 32.9851C70.95 33.1201 71.1637 33.1201 71.2875 32.9851C71.4225 32.8501 71.4225 32.6364 71.2875 32.5126L69.4537 30.6789C69.3187 30.5439 69.105 30.5439 68.9812 30.6789C68.8575 30.8139 68.8462 31.0276 68.9812 31.1514L70.815 32.9851Z" fill="#0E1219"/>
<path d="M79.9838 41.6701C79.8488 41.8051 79.8488 42.0188 79.9838 42.1426L81.8175 43.9763C81.9525 44.1113 82.1663 44.1113 82.29 43.9763C82.425 43.8413 82.425 43.6276 82.29 43.5038L80.4563 41.6701C80.3213 41.5351 80.1075 41.5351 79.9838 41.6701Z" fill="#0E1219"/>
<path d="M74.4825 36.6526C74.6175 36.7876 74.8312 36.7876 74.955 36.6526C75.09 36.5176 75.09 36.3039 74.955 36.1801L73.1212 34.3464C72.9862 34.2114 72.7725 34.2114 72.6487 34.3464C72.525 34.4814 72.5137 34.6951 72.6487 34.8189L74.4825 36.6526Z" fill="#0E1219"/>
<path d="M56.1563 18.3377C56.2913 18.4727 56.505 18.4727 56.6288 18.3377C56.7638 18.2027 56.7638 17.9889 56.6288 17.8652L54.795 16.0314C54.66 15.8964 54.4463 15.8964 54.3225 16.0314C54.1875 16.1664 54.1875 16.3802 54.3225 16.5039L56.1563 18.3377Z" fill="#0E1219"/>
<path d="M67.1587 29.3289C67.2937 29.4639 67.5075 29.4639 67.6312 29.3289C67.7662 29.1939 67.7662 28.9801 67.6312 28.8564L65.7975 27.0226C65.6625 26.8876 65.4487 26.8876 65.325 27.0226C65.2012 27.1576 65.19 27.3714 65.325 27.4951L67.1587 29.3289Z" fill="#0E1219"/>
<path d="M59.8237 21.9939C59.9587 22.1289 60.1725 22.1289 60.2962 21.9939C60.4312 21.8589 60.4312 21.6452 60.2962 21.5214L58.4625 19.6877C58.3275 19.5527 58.1137 19.5527 57.99 19.6877C57.855 19.8227 57.855 20.0364 57.99 20.1602L59.8237 21.9939Z" fill="#0E1219"/>
<path d="M63.4912 25.6614C63.6262 25.7964 63.84 25.7964 63.9637 25.6614C64.0987 25.5264 64.0987 25.3127 63.9637 25.1889L62.13 23.3552C61.995 23.2202 61.7812 23.2202 61.6575 23.3552C61.5225 23.4902 61.5225 23.7039 61.6575 23.8277L63.4912 25.6614Z" fill="#0E1219"/>
<path d="M12.63 59.7936L12.09 63.5623L15.3412 64.8336L15.6787 63.0448L21.7762 69.4686L24.7912 66.7123L15.7687 56.9136L12.63 59.7936Z" fill="#0E1219"/>
<path d="M94.1475 29.7676L97.8262 26.3701L96.7462 25.2001L95.3287 24.9976L94.8562 26.2126L95.52 26.3363L93.1125 28.6313L94.1475 29.7676Z" fill="#0E1219"/>
<path d="M49.3163 71.9213C49.2825 72.0113 49.2488 72.1014 49.2038 72.1801C49.1588 72.2701 49.1138 72.3488 49.0688 72.4276C49.0125 72.5063 48.9675 72.5738 48.9 72.6301C48.8213 72.7088 48.7425 72.7651 48.6525 72.8101C48.5625 72.8551 48.4838 72.8776 48.3938 72.8776C48.3038 72.8776 48.2138 72.8664 48.135 72.8214C48.045 72.7764 47.9663 72.7201 47.8763 72.6189C47.7413 72.4726 47.6513 72.3263 47.6063 72.1688C47.5613 72.0113 47.5388 71.8651 47.5613 71.7076C47.5725 71.5613 47.6175 71.4151 47.6963 71.2688C47.775 71.1338 47.865 70.9988 47.9775 70.8863C48.0225 70.8413 48.0675 70.7963 48.1238 70.7626C48.1688 70.7176 48.225 70.6838 48.2925 70.6501C47.9888 70.2338 47.685 69.8288 47.3925 69.4126C47.2463 69.4576 47.1113 69.5251 46.9763 69.6151C46.8413 69.7051 46.7288 69.8063 46.6163 69.9188C46.335 70.2001 46.1325 70.5151 46.02 70.8526C45.9075 71.1901 45.8738 71.5276 45.9075 71.8763C45.9413 72.2251 46.0425 72.5738 46.2113 72.9226C46.38 73.2713 46.5938 73.5976 46.8638 73.9013C47.0663 74.1263 47.3025 74.3064 47.55 74.4301C47.7975 74.5539 48.0563 74.6213 48.3263 74.6438C48.5963 74.6663 48.8438 74.6213 49.1025 74.5313C49.3613 74.4413 49.5863 74.2838 49.7888 74.0813C49.8563 74.0138 49.9238 73.9351 49.9913 73.8451C50.0588 73.7551 50.1263 73.6651 50.1825 73.5638C50.2388 73.4626 50.295 73.3726 50.34 73.2713C50.385 73.1701 50.43 73.0688 50.4525 72.9788C50.1038 72.5401 49.7438 72.1013 49.395 71.6513C49.3725 71.7301 49.35 71.8201 49.3163 71.9101V71.9213Z" fill="#0E1219"/>
<path d="M49.0913 67.5789C49.7325 68.2427 50.3738 68.9064 51.015 69.5702L50.4863 70.0989C49.9125 69.4577 49.3388 68.8164 48.7763 68.1752C48.3825 68.5239 48 68.8839 47.6063 69.2327C48.7313 70.4814 49.8563 71.7302 50.97 72.9902C51.33 72.6302 51.69 72.2702 52.05 71.9102C51.7013 71.5164 51.3525 71.1339 50.9925 70.7402L51.5438 70.1889C51.9263 70.5827 52.32 70.9764 52.7025 71.3702C53.085 70.9427 53.4675 70.5264 53.85 70.0989C52.6238 68.9177 51.3975 67.7364 50.1713 66.5439C49.8113 66.8927 49.44 67.2302 49.08 67.5789H49.0913Z" fill="#0E1219"/>
<path d="M50.6212 66.3411C51.7687 67.4886 52.905 68.6361 54.0525 69.7836C54.3787 69.4236 54.6937 69.0636 55.02 68.7149C53.9512 67.4886 52.8712 66.2624 51.8025 65.0361C51.4087 65.4749 51.015 65.9136 50.6325 66.3524L50.6212 66.3411Z" fill="#0E1219"/>
<path d="M55.9312 65.1376C55.8525 65.2276 55.7625 65.3176 55.6725 65.4076L55.4475 65.6326C55.38 65.7113 55.3012 65.7788 55.2225 65.8463C54.8512 65.4751 54.5025 65.0813 54.1537 64.6876C53.805 64.2938 53.4675 63.9001 53.1187 63.5063C52.7137 63.9113 52.3087 64.3163 51.9037 64.7213C52.4775 65.3176 53.0625 65.9138 53.6362 66.4988C54.2212 67.0838 54.795 67.6801 55.38 68.2651C55.9987 67.5338 56.6175 66.8026 57.2362 66.0713C56.8875 65.6776 56.5275 65.2726 56.1787 64.8788C56.0887 64.9688 55.9987 65.0588 55.92 65.1488L55.9312 65.1376Z" fill="#0E1219"/>
<path d="M58.1475 62.9212C58.0688 63.0112 57.9788 63.1012 57.8888 63.1912L57.6638 63.4162C57.585 63.4837 57.5175 63.5625 57.4388 63.63C57.0675 63.2587 56.6963 62.8762 56.3475 62.4937C55.9988 62.1112 55.65 61.7175 55.29 61.335C54.885 61.74 54.48 62.145 54.075 62.55C54.66 63.135 55.2563 63.72 55.8413 64.2937C56.4263 64.8675 57.0225 65.4525 57.6188 66.0262C58.2375 65.295 58.8563 64.5637 59.475 63.8325C59.115 63.4387 58.755 63.0562 58.395 62.6625C58.305 62.7525 58.215 62.8425 58.1363 62.9325L58.1475 62.9212Z" fill="#0E1219"/>
<path d="M61.2075 58.4548C60.9712 58.7023 60.735 58.9498 60.4987 59.2086C60.78 59.5348 60.915 59.6923 61.1962 60.0186C61.4325 59.7823 61.5562 59.6698 61.7925 59.4336C61.86 59.5123 61.905 59.5573 61.9725 59.6473C61.9725 59.7373 61.9387 59.8273 61.8825 59.9061C61.8262 59.9848 61.77 60.0636 61.7137 60.1311C61.6237 60.2211 61.5225 60.2886 61.41 60.3111C61.2975 60.3448 61.1962 60.3448 61.0837 60.3336C60.9712 60.3111 60.87 60.2773 60.7687 60.2098C60.6675 60.1423 60.5775 60.0748 60.4875 59.9848C60.3525 59.8386 60.2625 59.6923 60.2062 59.5236C60.15 59.3661 60.1275 59.1973 60.1387 59.0398C60.1387 58.8823 60.1837 58.7136 60.2625 58.5673C60.33 58.4098 60.4312 58.2748 60.5662 58.1398C60.6562 58.0498 60.7575 57.9598 60.87 57.8811C60.9825 57.8023 61.095 57.7236 61.2187 57.6786C60.9262 57.3298 60.645 56.9811 60.3525 56.6323C60.2512 56.6548 60.1612 56.6886 60.06 56.7448C59.9587 56.7898 59.8687 56.8461 59.7787 56.9136C59.6887 56.9811 59.5987 57.0486 59.52 57.1161C59.4412 57.1836 59.3625 57.2623 59.295 57.3298C59.115 57.5098 58.9687 57.7123 58.8562 57.9261C58.7437 58.1398 58.665 58.3648 58.62 58.6011C58.575 58.8373 58.5525 59.0736 58.575 59.3211C58.5862 59.5686 58.6312 59.8048 58.71 60.0411C58.7775 60.2773 58.8787 60.5136 59.0025 60.7386C59.1262 60.9636 59.2725 61.1661 59.4525 61.3573C59.6775 61.6048 59.9362 61.8073 60.2062 61.9423C60.4875 62.0773 60.7687 62.1561 61.0612 62.1673C61.3537 62.1786 61.6462 62.1336 61.9275 62.0211C62.2087 61.9086 62.4787 61.7286 62.715 61.4923C62.8387 61.3686 62.9625 61.2223 63.075 61.0648C63.1875 60.9073 63.2887 60.7273 63.3787 60.5473C63.4575 60.3673 63.525 60.1761 63.57 59.9961C63.615 59.8048 63.6262 59.6248 63.6037 59.4448C63.0412 58.8823 62.4787 58.3198 61.9275 57.7573C61.6912 58.0161 61.455 58.2636 61.2187 58.5111L61.2075 58.4548Z" fill="#0E1219"/>
<path d="M65.91 56.0585C65.82 55.8448 65.7188 55.6423 65.595 55.4398C65.4713 55.2373 65.3475 55.046 65.2125 54.866C65.0775 54.686 64.9425 54.5173 64.7963 54.3598C64.6613 54.2023 64.5263 54.0673 64.4025 53.9435C64.1663 53.7073 63.9188 53.4935 63.66 53.2798L62.535 54.4048C62.67 54.5285 62.805 54.6523 62.94 54.776C63.075 54.8998 63.21 55.0235 63.3338 55.1585C63.3675 55.1923 63.4238 55.2485 63.4913 55.316C63.5588 55.3948 63.6375 55.4735 63.7275 55.5748C63.8175 55.676 63.9075 55.7773 64.0088 55.901C64.11 56.0135 64.2 56.1373 64.3013 56.261C64.4025 56.3848 64.4813 56.5085 64.56 56.6323C64.6388 56.756 64.7063 56.8685 64.7513 56.9698C64.7963 57.071 64.83 57.1723 64.83 57.251C64.83 57.3298 64.8188 57.3973 64.7738 57.4535C64.7288 57.4985 64.6725 57.5098 64.605 57.4985C64.5375 57.4985 64.4588 57.4648 64.38 57.431C64.3013 57.3973 64.2113 57.341 64.1325 57.2848C64.0538 57.2285 63.9638 57.161 63.8963 57.1048C63.8288 57.0485 63.75 56.981 63.6938 56.9248C63.6375 56.8685 63.5925 56.8348 63.5588 56.801C63.3 56.5423 63.0413 56.2498 62.8163 55.9573C62.5913 55.6648 62.355 55.361 62.1413 55.0573C61.7475 55.4173 61.365 55.7773 60.9713 56.1373C61.1625 56.4185 61.3538 56.6773 61.5563 56.9473C61.7588 57.206 61.9838 57.4535 62.2088 57.6898C62.355 57.8473 62.5238 57.9935 62.6925 58.151C62.8613 58.3085 63.0525 58.4435 63.2438 58.5673C63.435 58.691 63.6375 58.7923 63.84 58.871C64.0425 58.9498 64.245 58.9948 64.4588 58.9948C64.6613 58.9948 64.875 58.961 65.0775 58.8823C65.28 58.8035 65.4825 58.6685 65.6738 58.4773C65.8425 58.3085 65.9663 58.1398 66.045 57.9485C66.1238 57.7573 66.1688 57.5548 66.18 57.3523C66.18 57.1498 66.18 56.936 66.1238 56.7223C66.0788 56.5085 66.0113 56.2948 65.9213 56.081L65.91 56.0585Z" fill="#0E1219"/>
<path d="M67.0012 50.0513C66.585 50.4113 66.1687 50.7713 65.7637 51.12C65.9325 51.6713 66.1012 52.2225 66.27 52.7738C65.8312 52.4925 65.3925 52.2113 64.965 51.9188C64.6162 52.38 64.2562 52.8413 63.9075 53.3025C64.7737 53.685 65.6287 54.0563 66.495 54.4275C67.0125 54.945 67.5412 55.4625 68.0587 55.98C68.4525 55.5863 68.8462 55.1925 69.24 54.7988C68.7225 54.27 68.205 53.7525 67.6762 53.2238C67.4625 52.1663 67.2375 51.1088 67.0012 50.0513Z" fill="#0E1219"/>
<path d="M75.1912 43.6164C74.5725 42.9977 73.56 42.9977 72.9412 43.6164L68.8687 47.6889C68.25 48.3077 68.25 49.3202 68.8687 49.9389L70.41 51.4802C71.0287 52.0989 72.0412 52.0989 72.66 51.4802L76.7325 47.4077C77.3512 46.7889 77.3512 45.7764 76.7325 45.1577L75.1912 43.6164ZM73.4475 48.7689C73.425 48.8814 73.38 48.9939 73.335 49.1064C73.2787 49.2189 73.2225 49.3202 73.155 49.4214C73.0875 49.5227 73.0087 49.6127 72.93 49.6914C72.7837 49.8377 72.615 49.9502 72.4462 50.0289C72.2662 50.1077 72.0862 50.1414 71.9062 50.1414C71.7262 50.1414 71.5462 50.1077 71.3662 50.0402C71.1862 49.9614 71.0287 49.8602 70.8825 49.7139C70.77 49.6014 70.68 49.4777 70.59 49.3427C70.5112 49.2077 70.4437 49.0727 70.3987 48.9377C70.3537 48.8027 70.3312 48.6564 70.32 48.5102C70.32 48.3639 70.32 48.2177 70.3537 48.0714C70.3875 47.9252 70.4437 47.7902 70.5112 47.6552C70.59 47.5202 70.68 47.3964 70.8037 47.2727C70.8487 47.2277 70.8937 47.1827 70.95 47.1377C71.0062 47.0927 71.0625 47.0477 71.1187 47.0027C71.175 46.9577 71.2425 46.9239 71.2987 46.8902C71.3662 46.8564 71.4225 46.8339 71.49 46.8227L72.0412 47.4527C71.9625 47.4864 71.8837 47.5314 71.8162 47.5877C71.7487 47.6439 71.6812 47.7002 71.625 47.7564C71.5462 47.8352 71.4787 47.9252 71.4225 48.0264C71.3775 48.1164 71.3437 48.2177 71.3325 48.3077C71.3212 48.4089 71.3325 48.4989 71.3662 48.6002C71.4 48.7014 71.4562 48.7914 71.5462 48.8702C71.6025 48.9264 71.6587 48.9714 71.7262 49.0052C71.7937 49.0389 71.8612 49.0614 71.9287 49.0727C71.9962 49.0727 72.0637 49.0727 72.1312 49.0614C72.1987 49.0389 72.2662 49.0052 72.3225 48.9489C72.3675 48.9039 72.4012 48.8702 72.4237 48.8139C72.4575 48.7577 72.48 48.7127 72.48 48.6564L72.3675 48.5327L71.9962 48.8927L71.5462 48.4089C71.6925 48.2514 71.8387 48.0939 71.9962 47.9364C72.1425 47.7789 72.3 47.6214 72.4462 47.4639L73.47 48.4539C73.4812 48.5664 73.47 48.6789 73.4475 48.7914V48.7689ZM75.585 46.6314C75.5625 46.7439 75.5175 46.8564 75.4725 46.9689C75.4162 47.0814 75.36 47.1827 75.2925 47.2839C75.225 47.3852 75.1462 47.4752 75.0675 47.5539C74.9212 47.7002 74.7525 47.8127 74.5837 47.8914C74.4037 47.9702 74.235 48.0039 74.0437 48.0039C73.8637 48.0039 73.6837 47.9702 73.515 47.8914C73.335 47.8239 73.1775 47.7114 73.0312 47.5652C72.9187 47.4527 72.8175 47.3289 72.7387 47.1939C72.66 47.0589 72.5925 46.9239 72.5475 46.7889C72.5025 46.6539 72.48 46.5077 72.4687 46.3614C72.4687 46.2152 72.4687 46.0689 72.5025 45.9227C72.5362 45.7764 72.5812 45.6414 72.66 45.5064C72.7387 45.3714 72.8287 45.2477 72.9525 45.1352C72.9975 45.0902 73.0425 45.0452 73.0987 45.0002C73.155 44.9552 73.2112 44.9102 73.2675 44.8652C73.3237 44.8202 73.3912 44.7864 73.4475 44.7527C73.515 44.7189 73.5712 44.6964 73.6387 44.6739L74.19 45.3039C74.1112 45.3377 74.0325 45.3827 73.965 45.4389C73.8975 45.4952 73.83 45.5514 73.7737 45.6077C73.695 45.6864 73.6275 45.7764 73.5712 45.8664C73.5262 45.9564 73.4925 46.0577 73.4812 46.1477C73.4812 46.2489 73.4812 46.3389 73.515 46.4402C73.5487 46.5302 73.605 46.6314 73.695 46.7102C73.7512 46.7664 73.8075 46.8114 73.875 46.8452C73.9425 46.8789 74.01 46.9014 74.0775 46.9127C74.145 46.9127 74.2125 46.9127 74.28 46.9014C74.3475 46.8789 74.415 46.8452 74.4712 46.7889C74.505 46.7552 74.55 46.7102 74.5725 46.6539C74.6062 46.5977 74.6287 46.5527 74.6287 46.4964L74.5162 46.3727L74.1337 46.7327L73.6837 46.2489C73.83 46.0914 73.9762 45.9339 74.1337 45.7764C74.28 45.6189 74.4375 45.4614 74.5837 45.3039L75.6075 46.2939C75.6075 46.4064 75.6075 46.5189 75.585 46.6314Z" fill="#0E1219"/>
</svg>
