<svg width="109" height="89" viewBox="0 0 109 89" fill="none" xmlns="http://www.w3.org/2000/svg">
<path d="M107.563 28.5751L48.7589 87.3789C47.5326 88.6051 45.5414 88.6051 44.3039 87.3789C40.0964 83.1714 33.2564 83.1714 29.0489 87.3789C27.8226 88.6051 25.8314 88.6051 24.5939 87.3789L1.4076 64.1701C0.181352 62.9439 0.181352 60.9526 1.4076 59.7151L60.2114 0.922617C61.4376 -0.303633 63.4289 -0.303633 64.6664 0.922617C68.8739 5.13012 75.7139 5.13012 79.9213 0.922617C81.1476 -0.303633 83.1388 -0.303633 84.3764 0.922617L107.574 24.1201C108.8 25.3464 108.8 27.3376 107.574 28.5751H107.563ZM46.3289 80.9101L100.891 26.3476L81.9351 7.39137C76.1413 11.3626 68.4351 11.3626 62.6414 7.39137L8.07885 61.9426L27.0351 80.8989C32.8289 76.9276 40.5351 76.9276 46.3289 80.8989V80.9101Z" fill="white"/>
<path d="M82.1376 3.1499L105.335 26.3474L46.5314 85.1511C41.0864 79.7061 32.2664 79.7061 26.8214 85.1511L3.63513 61.9424L62.4276 3.1499C67.8726 8.5949 76.6926 8.5949 82.1376 3.1499Z" fill="#C9318F"/>
<path d="M105.819 25.875L82.6101 2.66623C82.3513 2.40748 81.9238 2.40748 81.6538 2.66623C76.4788 7.84123 68.0751 7.84123 62.9001 2.66623C62.6413 2.40748 62.2138 2.40748 61.9438 2.66623L3.15134 61.47C2.89259 61.7287 2.89259 62.1562 3.15134 62.4262L26.3488 85.6237C26.6076 85.8825 27.0351 85.8825 27.3051 85.6237C32.4801 80.4487 40.8838 80.4487 46.0588 85.6237C46.3176 85.8825 46.7451 85.8825 47.0151 85.6237L105.819 26.82C106.078 26.5612 106.078 26.1337 105.819 25.8637V25.875ZM84.9163 45.8212L84.4438 45.3487C84.3088 45.2137 84.0951 45.2137 83.9713 45.3487C83.8363 45.4837 83.8363 45.6975 83.9713 45.8212L84.4438 46.2937L46.5313 84.2062C40.9738 79.1325 32.4126 79.1325 26.8438 84.2062L4.58009 61.9425L52.3363 14.1862L52.8088 14.6587C52.9438 14.7937 53.1576 14.7937 53.2813 14.6587C53.4163 14.5237 53.4163 14.31 53.2813 14.1862L52.8088 13.7137L62.4388 4.08373C67.9963 9.15748 76.5576 9.15748 82.1263 4.08373L104.39 26.3475L84.9276 45.81L84.9163 45.8212Z" fill="#0E1219"/>
<path d="M74.8026 36.6526C74.9376 36.7876 75.1513 36.7876 75.2751 36.6526C75.4101 36.5176 75.4101 36.3039 75.2751 36.1801L73.4413 34.3464C73.3063 34.2114 73.0926 34.2114 72.9688 34.3464C72.8338 34.4814 72.8338 34.6951 72.9688 34.8189L74.8026 36.6526Z" fill="#0E1219"/>
<path d="M77.1089 38.0138C76.9739 37.8788 76.7602 37.8788 76.6364 38.0138C76.5014 38.1488 76.5014 38.3626 76.6364 38.4863L78.4702 40.3201C78.6052 40.4551 78.8189 40.4551 78.9427 40.3201C79.0777 40.1851 79.0777 39.9713 78.9427 39.8476L77.1089 38.0138Z" fill="#0E1219"/>
<path d="M80.3039 41.6701C80.1689 41.8051 80.1689 42.0188 80.3039 42.1426L82.1376 43.9763C82.2726 44.1113 82.4864 44.1113 82.6101 43.9763C82.7451 43.8413 82.7451 43.6276 82.6101 43.5038L80.7764 41.6701C80.6414 41.5351 80.4276 41.5351 80.3039 41.6701Z" fill="#0E1219"/>
<path d="M71.1351 32.9851C71.2701 33.1201 71.4838 33.1201 71.6076 32.9851C71.7426 32.8501 71.7426 32.6364 71.6076 32.5126L69.7738 30.6789C69.6388 30.5439 69.4251 30.5439 69.3013 30.6789C69.1663 30.8139 69.1663 31.0276 69.3013 31.1514L71.1351 32.9851Z" fill="#0E1219"/>
<path d="M67.4788 29.3289C67.6138 29.4639 67.8276 29.4639 67.9513 29.3289C68.0863 29.1939 68.0863 28.9801 67.9513 28.8564L66.1176 27.0226C65.9826 26.8876 65.7688 26.8876 65.6451 27.0226C65.5101 27.1576 65.5101 27.3714 65.6451 27.4951L67.4788 29.3289Z" fill="#0E1219"/>
<path d="M56.4764 18.3377C56.6114 18.4727 56.8251 18.4727 56.9489 18.3377C57.0839 18.2027 57.0839 17.9889 56.9489 17.8652L55.1151 16.0314C54.9801 15.8964 54.7664 15.8964 54.6426 16.0314C54.5076 16.1664 54.5076 16.3802 54.6426 16.5039L56.4764 18.3377Z" fill="#0E1219"/>
<path d="M60.1439 21.9939C60.2789 22.1289 60.4926 22.1289 60.6164 21.9939C60.7514 21.8589 60.7514 21.6452 60.6164 21.5214L58.7826 19.6877C58.6476 19.5527 58.4339 19.5527 58.3101 19.6877C58.1751 19.8227 58.1751 20.0364 58.3101 20.1602L60.1439 21.9939Z" fill="#0E1219"/>
<path d="M63.8113 25.6614C63.9463 25.7964 64.1601 25.7964 64.2838 25.6614C64.4188 25.5264 64.4188 25.3127 64.2838 25.1889L62.4501 23.3552C62.3151 23.2202 62.1013 23.2202 61.9776 23.3552C61.8426 23.4902 61.8426 23.7039 61.9776 23.8277L63.8113 25.6614Z" fill="#0E1219"/>
<path d="M21.9276 61.5374C21.8601 61.0649 21.7363 60.6149 21.5451 60.1874C21.3538 59.7599 21.0951 59.3774 20.7576 59.0287C20.2626 58.5337 19.7001 58.1512 19.0813 57.9037C18.4626 57.6562 17.8438 57.5324 17.2026 57.5437C16.5726 57.5437 15.9426 57.6787 15.3351 57.9262C14.7276 58.1737 14.1651 58.5562 13.6701 59.0512C13.4451 59.2762 13.2313 59.5237 13.0288 59.7824C12.8263 60.0412 12.6463 60.3224 12.4888 60.6149C12.3313 60.9074 12.1963 61.1999 12.1063 61.5149C12.0051 61.8187 11.9601 62.1337 11.9601 62.4487L15.0088 64.3837C15.0088 64.2037 15.0201 64.0124 15.0538 63.8324C15.0876 63.6412 15.1551 63.4612 15.2226 63.2812C15.3013 63.1012 15.3913 62.9324 15.4926 62.7749C15.5938 62.6174 15.7176 62.4712 15.8413 62.3474C15.9988 62.1899 16.1563 62.0774 16.3251 61.9762C16.4938 61.8862 16.6738 61.8299 16.8651 61.8074C17.0451 61.7849 17.2363 61.8074 17.4163 61.8749C17.5963 61.9424 17.7651 62.0549 17.9226 62.2124C18.2038 62.4937 18.4176 62.7974 18.5638 63.1349C18.7101 63.4724 18.8001 63.8212 18.8451 64.1924C18.8901 64.5637 18.8901 64.9349 18.8451 65.3287C18.8001 65.7224 18.7326 66.1049 18.6313 66.4762C18.5301 66.8587 18.4176 67.2187 18.2713 67.5787C18.1363 67.9387 17.9901 68.2649 17.8438 68.5687L20.1613 70.8862L26.3151 65.1374L23.8288 62.3362L21.8151 64.3499C21.8938 63.8999 21.9501 63.4387 21.9838 62.9549C22.0176 62.4712 21.9838 61.9987 21.9276 61.5262V61.5374Z" fill="#0E1219"/>
<path d="M29.2401 51.2099C28.7788 50.9174 28.3063 50.6811 27.8113 50.5011C27.3163 50.3211 26.8101 50.1974 26.2813 50.1299C25.7638 50.0624 25.2463 50.0624 24.7401 50.1411C24.2338 50.2199 23.7388 50.3661 23.2663 50.5911C22.7938 50.8161 22.3551 51.1311 21.9501 51.5361C21.5451 51.9411 21.2301 52.3799 21.0051 52.8524C20.7801 53.3249 20.6226 53.8199 20.5438 54.3261C20.4651 54.8324 20.4651 55.3499 20.5326 55.8674C20.6001 56.3961 20.7238 56.9024 20.9038 57.3974C21.0838 57.8924 21.3201 58.3649 21.6126 58.8261C21.9051 59.2761 22.2313 59.6924 22.6026 60.0636C22.9738 60.4349 23.3788 60.7611 23.8401 61.0536C24.2901 61.3461 24.7626 61.5824 25.2688 61.7624C25.7638 61.9424 26.2701 62.0661 26.7988 62.1336C27.3276 62.2011 27.8338 62.1899 28.3401 62.1224C28.8463 62.0436 29.3413 61.8974 29.8138 61.6724C30.2863 61.4474 30.7251 61.1211 31.1413 60.7161C31.5463 60.3111 31.8613 59.8724 32.0863 59.3999C32.3113 58.9274 32.4688 58.4324 32.5363 57.9261C32.6151 57.4199 32.6151 56.9024 32.5476 56.3849C32.4801 55.8674 32.3563 55.3611 32.1763 54.8661C31.9963 54.3711 31.7601 53.8986 31.4788 53.4486C31.1976 52.9986 30.8601 52.5824 30.4888 52.2111C30.1176 51.8399 29.7126 51.5136 29.2513 51.2211L29.2401 51.2099ZM28.5313 55.7661C28.7113 56.0474 28.8463 56.3399 28.9363 56.6436C29.0263 56.9474 29.0601 57.2511 29.0263 57.5549C28.9926 57.8586 28.8688 58.1174 28.6438 58.3536C28.4076 58.5899 28.1488 58.7136 27.8451 58.7474C27.5413 58.7811 27.2376 58.7474 26.9338 58.6574C26.6301 58.5674 26.3376 58.4324 26.0563 58.2524C25.7751 58.0724 25.5388 57.8924 25.3588 57.7011C25.1788 57.5099 24.9876 57.2849 24.8076 57.0036C24.6276 56.7224 24.4926 56.4299 24.4026 56.1261C24.3126 55.8224 24.2788 55.5186 24.3126 55.2149C24.3463 54.9111 24.4701 54.6524 24.7063 54.4161C24.9313 54.1911 25.2013 54.0561 25.5051 54.0336C25.8088 53.9999 26.1126 54.0336 26.4163 54.1236C26.7201 54.2136 27.0126 54.3486 27.2938 54.5286C27.5751 54.7086 27.8113 54.8886 27.9913 55.0799C28.1713 55.2711 28.3626 55.4961 28.5426 55.7774L28.5313 55.7661Z" fill="#0E1219"/>
<path d="M92.42 25.6052L91.6325 24.8177C91.8013 24.8514 91.9925 24.8739 92.1725 24.8852C92.3638 24.8964 92.5438 24.8852 92.735 24.8627C92.9263 24.8402 93.095 24.7839 93.2638 24.7164C93.4325 24.6489 93.5788 24.5477 93.7138 24.4127C93.905 24.2214 94.0513 23.9964 94.1525 23.7602C94.2538 23.5239 94.2988 23.2764 94.2988 23.0289C94.2988 22.7814 94.2425 22.5339 94.1525 22.2977C94.0513 22.0614 93.905 21.8364 93.7138 21.6452C93.6238 21.5552 93.5338 21.4764 93.4325 21.3977C93.3313 21.3189 93.2188 21.2514 93.1063 21.1839C92.9938 21.1164 92.8813 21.0714 92.7575 21.0377C92.6338 21.0039 92.51 20.9814 92.3975 20.9814L91.6438 22.1739C91.7113 22.1739 91.79 22.1739 91.8575 22.1964C91.925 22.2189 92.0038 22.2302 92.0713 22.2639C92.1388 22.2977 92.2063 22.3314 92.2738 22.3652C92.3413 22.3989 92.3863 22.4552 92.4425 22.5002C92.4988 22.5564 92.555 22.6239 92.5888 22.6914C92.6225 22.7589 92.645 22.8264 92.6563 22.9052C92.6675 22.9839 92.6563 23.0514 92.6338 23.1189C92.6113 23.1864 92.5663 23.2539 92.4988 23.3214C92.3863 23.4339 92.2738 23.5127 92.1388 23.5689C92.0038 23.6252 91.8688 23.6589 91.7225 23.6814C91.5763 23.6927 91.43 23.7039 91.2838 23.6814C91.1375 23.6702 90.98 23.6364 90.8338 23.6027C90.6875 23.5689 90.5413 23.5127 90.4063 23.4677C90.2713 23.4114 90.1363 23.3552 90.0238 23.2989L89.1238 24.1989L91.3738 26.6064L92.465 25.6277L92.42 25.6052Z" fill="#0E1219"/>
<path d="M93.32 25.1327C93.1738 25.2789 93.05 25.4364 92.9375 25.6164C92.825 25.7964 92.735 25.9764 92.6675 26.1677C92.6 26.3589 92.5438 26.5614 92.5213 26.7639C92.4988 26.9664 92.4988 27.1689 92.5213 27.3714C92.555 27.5739 92.6113 27.7652 92.7013 27.9452C92.7913 28.1252 92.915 28.3052 93.0725 28.4627C93.23 28.6202 93.3988 28.7439 93.59 28.8339C93.77 28.9239 93.9613 28.9802 94.1638 29.0139C94.3663 29.0477 94.5575 29.0477 94.7713 29.0139C94.9738 28.9914 95.1763 28.9352 95.3675 28.8677C95.5588 28.8002 95.75 28.7102 95.9188 28.5977C96.0988 28.4852 96.2563 28.3614 96.4025 28.2152C96.5488 28.0689 96.6725 27.9114 96.785 27.7314C96.8975 27.5514 96.9875 27.3714 97.0663 27.1689C97.1338 26.9777 97.19 26.7752 97.2125 26.5727C97.235 26.3702 97.235 26.1677 97.2125 25.9652C97.1788 25.7627 97.1225 25.5714 97.0325 25.3914C96.9425 25.2114 96.8188 25.0314 96.6613 24.8739C96.5038 24.7164 96.335 24.5927 96.1438 24.5027C95.9525 24.4127 95.7613 24.3564 95.57 24.3227C95.3675 24.2889 95.1763 24.2889 94.9625 24.3227C94.7488 24.3564 94.5575 24.4014 94.3663 24.4689C94.175 24.5364 93.9838 24.6377 93.8038 24.7502C93.6238 24.8627 93.4663 24.9977 93.32 25.1327ZM93.8713 26.8202C93.905 26.6964 93.9613 26.5839 94.0288 26.4714C94.0963 26.3589 94.175 26.2689 94.2425 26.2014C94.31 26.1339 94.4113 26.0552 94.5125 25.9877C94.625 25.9202 94.7375 25.8639 94.8613 25.8302C94.985 25.7964 95.0975 25.7852 95.2213 25.7964C95.3338 25.8077 95.4463 25.8639 95.5363 25.9539C95.6263 26.0439 95.6713 26.1452 95.6825 26.2689C95.6938 26.3814 95.6825 26.5052 95.6488 26.6289C95.615 26.7527 95.5588 26.8652 95.4913 26.9664C95.4238 27.0677 95.345 27.1689 95.2775 27.2364C95.21 27.3039 95.1088 27.3827 95.0075 27.4502C94.895 27.5177 94.7825 27.5739 94.67 27.6077C94.5463 27.6414 94.4338 27.6527 94.31 27.6414C94.1975 27.6302 94.085 27.5739 93.995 27.4952C93.905 27.4052 93.8488 27.3039 93.8375 27.1802C93.8263 27.0677 93.8375 26.9439 93.8713 26.8202Z" fill="#0E1219"/>
<path d="M49.6363 71.9213C49.6026 72.0113 49.5688 72.1014 49.5238 72.1801C49.4788 72.2701 49.4338 72.3488 49.3888 72.4276C49.3438 72.5063 49.2876 72.5738 49.2201 72.6301C49.1413 72.7088 49.0626 72.7651 48.9726 72.8101C48.8826 72.8551 48.8038 72.8776 48.7138 72.8776C48.6238 72.8776 48.5338 72.8664 48.4551 72.8214C48.3651 72.7764 48.2863 72.7201 48.1963 72.6189C48.0613 72.4726 47.9713 72.3263 47.9263 72.1688C47.8813 72.0113 47.8588 71.8651 47.8813 71.7076C47.8926 71.5613 47.9376 71.4151 48.0163 71.2688C48.0951 71.1226 48.1851 70.9988 48.2976 70.8863C48.3426 70.8413 48.3876 70.7963 48.4438 70.7626C48.4888 70.7176 48.5451 70.6838 48.6126 70.6501C48.3088 70.2338 48.0051 69.8288 47.7126 69.4126C47.5663 69.4576 47.4313 69.5251 47.2963 69.6151C47.1613 69.7051 47.0488 69.8063 46.9363 69.9188C46.6551 70.2001 46.4526 70.5151 46.3401 70.8526C46.2276 71.1901 46.1938 71.5276 46.2276 71.8763C46.2613 72.2251 46.3626 72.5738 46.5313 72.9226C46.7001 73.2713 46.9138 73.5976 47.1838 73.9013C47.3863 74.1263 47.6226 74.3064 47.8701 74.4301C48.1176 74.5539 48.3763 74.6213 48.6463 74.6438C48.9051 74.6551 49.1638 74.6213 49.4226 74.5313C49.6813 74.4413 49.9063 74.2838 50.1088 74.0813C50.1763 74.0138 50.2438 73.9351 50.3113 73.8451C50.3788 73.7551 50.4463 73.6651 50.5026 73.5638C50.5588 73.4626 50.6151 73.3726 50.6601 73.2713C50.7051 73.1701 50.7501 73.0688 50.7726 72.9788C50.4238 72.5401 50.0638 72.1013 49.7151 71.6513C49.6926 71.7301 49.6701 71.8201 49.6363 71.9101V71.9213Z" fill="#0E1219"/>
<path d="M49.4114 67.5789C50.0526 68.2427 50.6939 68.9064 51.3351 69.5702L50.8064 70.0989C50.2326 69.4577 49.6589 68.8164 49.0964 68.1752C48.7026 68.5239 48.3201 68.8839 47.9264 69.2327C49.0514 70.4814 50.1764 71.7302 51.2901 72.9902C51.6501 72.6302 52.0101 72.2702 52.3701 71.9102C52.0214 71.5164 51.6726 71.1339 51.3126 70.7402C51.5376 70.5152 51.6389 70.4139 51.8639 70.1889C52.2464 70.5827 52.6401 70.9764 53.0226 71.3702C53.4051 70.9427 53.7876 70.5264 54.1701 70.0989C52.9439 68.9177 51.7176 67.7364 50.4914 66.5439L49.4001 67.5789H49.4114Z" fill="#0E1219"/>
<path d="M50.9413 66.3411C52.0888 67.4886 53.225 68.6361 54.3725 69.7836C54.6988 69.4236 55.0138 69.0636 55.34 68.7149C54.2713 67.4886 53.1913 66.2624 52.1225 65.0361C51.7288 65.4749 51.335 65.9136 50.9525 66.3524L50.9413 66.3411Z" fill="#0E1219"/>
<path d="M56.2514 65.1376C56.1726 65.2276 56.0826 65.3176 55.9926 65.4076L55.7676 65.6326C55.7001 65.7113 55.6214 65.7788 55.5426 65.8463C55.1714 65.4751 54.8226 65.0813 54.4739 64.6876C54.1251 64.2938 53.7876 63.9001 53.4389 63.5063C53.0339 63.9113 52.6289 64.3163 52.2239 64.7213C52.7976 65.3176 53.3826 65.9138 53.9564 66.4988C54.5414 67.0838 55.1151 67.6801 55.7001 68.2651C56.3189 67.5338 56.9376 66.8026 57.5564 66.0713C57.2076 65.6776 56.8476 65.2726 56.4989 64.8788C56.4089 64.9688 56.3189 65.0588 56.2401 65.1488L56.2514 65.1376Z" fill="#0E1219"/>
<path d="M58.4676 62.9212C58.3889 63.0112 58.2989 63.1012 58.2089 63.1912L57.9839 63.4162C57.9051 63.495 57.8376 63.5625 57.7589 63.63C57.3876 63.2587 57.0164 62.8762 56.6676 62.4937C56.3189 62.1112 55.9701 61.7175 55.6101 61.335C55.2051 61.74 54.8001 62.145 54.3951 62.55C54.9801 63.135 55.5764 63.72 56.1614 64.2937C56.7464 64.8675 57.3426 65.4525 57.9389 66.0262C58.5576 65.295 59.1764 64.5637 59.7951 63.8325C59.4351 63.4387 59.0751 63.0562 58.7151 62.6625C58.6251 62.7525 58.5351 62.8425 58.4564 62.9325L58.4676 62.9212Z" fill="#0E1219"/>
<path d="M61.5276 58.4548C61.2913 58.7023 61.0551 58.9498 60.8188 59.2086C61.1001 59.5348 61.2351 59.6923 61.5163 60.0186C61.7526 59.7823 61.8763 59.6698 62.1126 59.4336C62.1801 59.5123 62.2251 59.5573 62.2926 59.6473C62.2926 59.7373 62.2588 59.8273 62.2026 59.9061C62.1576 59.9848 62.0901 60.0636 62.0338 60.1311C61.9438 60.2211 61.8426 60.2886 61.7301 60.3111C61.6288 60.3448 61.5163 60.3448 61.4038 60.3336C61.2913 60.3111 61.1901 60.2773 61.0888 60.2098C60.9876 60.1536 60.8976 60.0748 60.8076 59.9848C60.6726 59.8386 60.5826 59.6923 60.5263 59.5236C60.4701 59.3548 60.4476 59.1973 60.4588 59.0398C60.4588 58.8823 60.5151 58.7136 60.5826 58.5673C60.6501 58.4098 60.7513 58.2748 60.8863 58.1398C60.9763 58.0498 61.0776 57.9598 61.1901 57.8811C61.3026 57.8023 61.4151 57.7236 61.5388 57.6786C61.2463 57.3298 60.9651 56.9811 60.6726 56.6323C60.5713 56.6548 60.4813 56.6886 60.3801 56.7448C60.2788 56.7898 60.1888 56.8461 60.0988 56.9136C60.0088 56.9811 59.9188 57.0486 59.8401 57.1161C59.7613 57.1836 59.6826 57.2623 59.6151 57.3298C59.4351 57.5098 59.2888 57.7123 59.1763 57.9261C59.0638 58.1398 58.9851 58.3648 58.9401 58.6011C58.8951 58.8373 58.8726 59.0736 58.8951 59.3211C58.9176 59.5686 58.9513 59.8048 59.0301 60.0411C59.1088 60.2773 59.1988 60.5136 59.3226 60.7273C59.4463 60.9411 59.5926 61.1548 59.7726 61.3461C59.9976 61.5936 60.2451 61.7961 60.5263 61.9311C60.8076 62.0661 61.0888 62.1448 61.3813 62.1561C61.6738 62.1673 61.9663 62.1223 62.2476 62.0098C62.5288 61.8973 62.7988 61.7173 63.0351 61.4811C63.1588 61.3573 63.2826 61.2111 63.3951 61.0536C63.5076 60.8848 63.6088 60.7161 63.6988 60.5361C63.7776 60.3561 63.8451 60.1648 63.8901 59.9848C63.9351 59.7936 63.9463 59.6136 63.9238 59.4336C63.3613 58.8711 62.7988 58.3086 62.2476 57.7461C62.0113 58.0048 61.7751 58.2523 61.5388 58.4998L61.5276 58.4548Z" fill="#0E1219"/>
<path d="M66.2301 56.0585C66.1401 55.8448 66.0389 55.6423 65.9151 55.4398C65.7914 55.2373 65.6676 55.046 65.5326 54.866C65.3976 54.686 65.2626 54.5173 65.1164 54.3598C64.9701 54.2023 64.8464 54.0673 64.7226 53.9435C64.4864 53.7073 64.2389 53.4935 63.9801 53.2798C63.6089 53.651 63.2264 54.0335 62.8551 54.4048C62.9901 54.5285 63.1251 54.6523 63.2601 54.776C63.3951 54.8998 63.5301 55.0235 63.6539 55.1585C63.6876 55.1923 63.7439 55.2485 63.8114 55.316C63.8789 55.3948 63.9576 55.4735 64.0476 55.5748C64.1376 55.676 64.2276 55.7773 64.3289 55.901C64.4301 56.0135 64.5201 56.1373 64.6214 56.261C64.7114 56.3848 64.8014 56.5085 64.8801 56.6323C64.9589 56.756 65.0264 56.8685 65.0714 56.9698C65.1164 57.071 65.1501 57.1723 65.1501 57.251C65.1501 57.3298 65.1389 57.3973 65.0939 57.4535C65.0489 57.4985 64.9926 57.5098 64.9251 57.4985C64.8576 57.4873 64.7789 57.4648 64.7001 57.431C64.6214 57.3973 64.5314 57.341 64.4526 57.2848C64.3739 57.2285 64.2839 57.161 64.2164 57.1048C64.1376 57.0373 64.0701 56.981 64.0139 56.9248C63.9576 56.8685 63.9126 56.8348 63.8789 56.801C63.6201 56.5423 63.3614 56.2498 63.1364 55.9573C62.9114 55.6648 62.6751 55.361 62.4614 55.0573C62.0676 55.4173 61.6851 55.7773 61.2914 56.1373C61.4826 56.4185 61.6739 56.6773 61.8764 56.9473C62.0789 57.206 62.3039 57.4535 62.5289 57.6898C62.6751 57.8473 62.8439 57.9935 63.0126 58.151C63.1926 58.3085 63.3726 58.4435 63.5639 58.5673C63.7551 58.691 63.9576 58.7923 64.1601 58.871C64.3626 58.9498 64.5651 58.9948 64.7789 58.9948C64.9814 58.9948 65.1951 58.961 65.3976 58.8823C65.6001 58.8035 65.8026 58.6685 65.9939 58.4773C66.1626 58.3085 66.2864 58.1398 66.3651 57.9485C66.4439 57.7573 66.4889 57.5548 66.5001 57.3523C66.5001 57.1498 66.5001 56.936 66.4439 56.7223C66.3989 56.5085 66.3314 56.2948 66.2414 56.081L66.2301 56.0585Z" fill="#0E1219"/>
<path d="M67.3213 50.0513C66.905 50.4113 66.4888 50.7713 66.0838 51.12C66.2525 51.6713 66.4213 52.2225 66.59 52.7738C66.1513 52.4925 65.7125 52.2113 65.285 51.9188C64.9363 52.38 64.5763 52.8413 64.2275 53.3025C65.0938 53.685 65.9488 54.0563 66.815 54.4275C67.3325 54.945 67.8613 55.4625 68.3788 55.98C68.7725 55.5863 69.1663 55.1925 69.56 54.7988C69.0425 54.27 68.525 53.7525 67.9963 53.2238C67.7825 52.1663 67.5575 51.1088 67.3213 50.0513Z" fill="#0E1219"/>
<path d="M75.5113 43.6164C74.8925 42.9977 73.88 42.9977 73.2613 43.6164L69.1888 47.6889C68.57 48.3077 68.57 49.3202 69.1888 49.9389L70.73 51.4802C71.3488 52.0989 72.3613 52.0989 72.98 51.4802L77.0525 47.4077C77.6713 46.7889 77.6713 45.7764 77.0525 45.1577L75.5113 43.6164ZM73.7675 48.7689C73.745 48.8814 73.7 48.9939 73.655 49.1064C73.61 49.2189 73.5425 49.3202 73.475 49.4214C73.4075 49.5227 73.3288 49.6127 73.25 49.6914C73.1038 49.8377 72.935 49.9502 72.7663 50.0289C72.5975 50.1077 72.4175 50.1414 72.2263 50.1414C72.0463 50.1414 71.8663 50.1077 71.6863 50.0402C71.5063 49.9614 71.3488 49.8602 71.2025 49.7139C71.09 49.6014 71 49.4777 70.91 49.3427C70.8313 49.2077 70.7638 49.0727 70.7188 48.9377C70.6738 48.8027 70.6513 48.6564 70.64 48.5102C70.64 48.3639 70.64 48.2177 70.6738 48.0714C70.7075 47.9252 70.7638 47.7902 70.8313 47.6552C70.91 47.5202 71 47.3964 71.1238 47.2727C71.1688 47.2277 71.2138 47.1827 71.27 47.1377C71.3263 47.0927 71.3825 47.0477 71.4388 47.0027C71.495 46.9577 71.5625 46.9239 71.6188 46.8902C71.6863 46.8564 71.7425 46.8339 71.81 46.8227L72.3613 47.4527C72.2825 47.4864 72.2038 47.5314 72.1363 47.5877C72.0688 47.6439 72.0013 47.7002 71.945 47.7564C71.8663 47.8352 71.7988 47.9252 71.7425 48.0264C71.6975 48.1164 71.6638 48.2177 71.6525 48.3077C71.6525 48.4089 71.6525 48.4989 71.6863 48.6002C71.72 48.7014 71.7763 48.7914 71.8663 48.8702C71.9225 48.9264 71.9788 48.9714 72.0463 49.0052C72.1138 49.0389 72.1813 49.0614 72.2488 49.0727C72.3163 49.0727 72.3838 49.0727 72.4513 49.0614C72.5188 49.0389 72.5863 49.0052 72.6425 48.9489C72.6875 48.9039 72.7213 48.8702 72.7438 48.8139C72.7775 48.7577 72.8 48.7127 72.8 48.6564L72.6875 48.5327L72.3163 48.8927L71.8663 48.4089C72.0125 48.2514 72.1588 48.0939 72.3163 47.9364C72.4625 47.7789 72.62 47.6214 72.7663 47.4639L73.79 48.4539C73.79 48.5664 73.79 48.6789 73.7675 48.7914V48.7689ZM75.905 46.6314C75.8825 46.7439 75.8375 46.8564 75.7925 46.9689C75.7363 47.0814 75.68 47.1827 75.6125 47.2839C75.545 47.3852 75.4663 47.4752 75.3875 47.5539C75.2413 47.7002 75.0725 47.8127 74.9038 47.8914C74.735 47.9702 74.5438 48.0039 74.3638 48.0039C74.1838 48.0039 74.0038 47.9702 73.835 47.8914C73.655 47.8127 73.4975 47.7114 73.3513 47.5652C73.2388 47.4527 73.1375 47.3289 73.0588 47.1939C72.98 47.0589 72.9125 46.9239 72.8675 46.7889C72.8225 46.6539 72.8 46.5077 72.7888 46.3614C72.7888 46.2152 72.7888 46.0689 72.8225 45.9227C72.8563 45.7764 72.9013 45.6414 72.98 45.5064C73.0588 45.3714 73.1488 45.2477 73.2725 45.1352C73.3175 45.0902 73.3625 45.0452 73.4188 45.0002C73.475 44.9552 73.5313 44.9102 73.5875 44.8652C73.6438 44.8202 73.7113 44.7864 73.7675 44.7527C73.835 44.7189 73.8913 44.6964 73.9588 44.6739L74.51 45.3039C74.4313 45.3377 74.3525 45.3827 74.285 45.4389C74.2175 45.4952 74.15 45.5514 74.0938 45.6077C74.015 45.6864 73.9475 45.7764 73.8913 45.8664C73.8463 45.9564 73.8125 46.0577 73.8013 46.1477C73.8013 46.2489 73.8013 46.3389 73.835 46.4402C73.8688 46.5302 73.925 46.6314 74.015 46.7102C74.0713 46.7664 74.1275 46.8114 74.195 46.8452C74.2625 46.8789 74.33 46.9014 74.3975 46.9127C74.465 46.9127 74.5325 46.9127 74.6 46.9014C74.6675 46.8789 74.735 46.8452 74.7913 46.7889C74.825 46.7552 74.87 46.7102 74.8925 46.6539C74.9263 46.5977 74.9488 46.5527 74.9488 46.4964L74.8363 46.3727L74.4538 46.7327L74.0038 46.2489C74.15 46.0914 74.2963 45.9339 74.4538 45.7764C74.6 45.6189 74.7575 45.4614 74.9038 45.3039L75.9275 46.2939C75.9388 46.4064 75.9275 46.5189 75.905 46.6314Z" fill="#0E1219"/>
</svg>
