<svg width="109" height="89" viewBox="0 0 109 89" fill="none" xmlns="http://www.w3.org/2000/svg">
<path d="M107.572 28.5751L48.7687 87.3789C47.5425 88.6051 45.5512 88.6051 44.3137 87.3789C40.1062 83.1714 33.2662 83.1714 29.0587 87.3789C27.8325 88.6051 25.8412 88.6051 24.6037 87.3789L1.41749 64.1701C0.19124 62.9439 0.19124 60.9526 1.41749 59.7151L60.2212 0.922617C61.4475 -0.303633 63.4387 -0.303633 64.6762 0.922617C68.8837 5.13012 75.7237 5.13012 79.9312 0.922617C81.1575 -0.303633 83.1487 -0.303633 84.3862 0.922617L107.584 24.1201C108.81 25.3464 108.81 27.3376 107.584 28.5751H107.572ZM46.3387 80.9101L100.901 26.3476L81.945 7.39137C76.1512 11.3626 68.445 11.3626 62.6512 7.39137L8.08874 61.9426L27.045 80.8989C32.8387 76.9276 40.545 76.9276 46.3387 80.8989V80.9101Z" fill="white"/>
<path d="M82.1475 3.1499L105.345 26.3474L46.5413 85.1511C41.0963 79.7061 32.2763 79.7061 26.8313 85.1511L3.64502 61.9424L62.4375 3.1499C67.8825 8.5949 76.7025 8.5949 82.1475 3.1499Z" fill="#CE7D41"/>
<path d="M105.829 25.875L82.62 2.66623C82.3612 2.40748 81.9337 2.40748 81.6637 2.66623C76.4887 7.84123 68.085 7.84123 62.91 2.66623C62.6512 2.40748 62.2237 2.40748 61.9537 2.66623L3.16123 61.47C2.90248 61.7287 2.90248 62.1562 3.16123 62.4262L26.3587 85.6237C26.6175 85.8825 27.045 85.8825 27.315 85.6237C32.49 80.4487 40.8937 80.4487 46.0687 85.6237C46.3275 85.8825 46.755 85.8825 47.025 85.6237L105.829 26.82C106.087 26.5612 106.087 26.1337 105.829 25.8637V25.875ZM84.9262 45.8212L84.4537 45.3487C84.3187 45.2137 84.105 45.2137 83.9812 45.3487C83.8575 45.4837 83.8462 45.6975 83.9812 45.8212L84.4537 46.2937L46.5412 84.2062C40.9837 79.1325 32.4225 79.1325 26.8537 84.2062L4.58998 61.9425L52.3462 14.1862L52.8187 14.6587C52.9537 14.7937 53.1675 14.7937 53.2912 14.6587C53.4262 14.5237 53.4262 14.31 53.2912 14.1862L52.8187 13.7137L62.4487 4.08373C68.0062 9.15748 76.5675 9.15748 82.1362 4.08373L104.4 26.3475L84.9375 45.81L84.9262 45.8212Z" fill="#0E1219"/>
<path d="M71.145 32.9851C71.28 33.1201 71.4937 33.1201 71.6175 32.9851C71.7525 32.8501 71.7525 32.6364 71.6175 32.5126L69.7837 30.6789C69.6487 30.5439 69.435 30.5439 69.3112 30.6789C69.1762 30.8139 69.1762 31.0276 69.3112 31.1514L71.145 32.9851Z" fill="#0E1219"/>
<path d="M74.8125 36.6526C74.9475 36.7876 75.1613 36.7876 75.285 36.6526C75.42 36.5176 75.42 36.3039 75.285 36.1801L73.4513 34.3464C73.3163 34.2114 73.1025 34.2114 72.9788 34.3464C72.8438 34.4814 72.8438 34.6951 72.9788 34.8189L74.8125 36.6526Z" fill="#0E1219"/>
<path d="M77.1187 38.0138C76.9837 37.8788 76.77 37.8788 76.6462 38.0138C76.5112 38.1488 76.5112 38.3626 76.6462 38.4863L78.48 40.3201C78.615 40.4551 78.8287 40.4551 78.9525 40.3201C79.0762 40.1851 79.0875 39.9713 78.9525 39.8476L77.1187 38.0138Z" fill="#0E1219"/>
<path d="M80.3137 41.6701C80.1787 41.8051 80.1787 42.0188 80.3137 42.1426L82.1475 43.9763C82.2825 44.1113 82.4962 44.1113 82.62 43.9763C82.755 43.8413 82.755 43.6276 82.62 43.5038L80.7862 41.6701C80.6512 41.5351 80.4375 41.5351 80.3137 41.6701Z" fill="#0E1219"/>
<path d="M67.4887 29.3289C67.6237 29.4639 67.8375 29.4639 67.9612 29.3289C68.0962 29.1939 68.0962 28.9801 67.9612 28.8564L66.1275 27.0226C65.9925 26.8876 65.7787 26.8876 65.655 27.0226C65.52 27.1576 65.52 27.3714 65.655 27.4951L67.4887 29.3289Z" fill="#0E1219"/>
<path d="M60.1537 21.9939C60.2887 22.1289 60.5025 22.1289 60.6262 21.9939C60.7612 21.8589 60.7612 21.6452 60.6262 21.5214L58.7925 19.6877C58.6575 19.5527 58.4437 19.5527 58.32 19.6877C58.185 19.8227 58.185 20.0364 58.32 20.1602L60.1537 21.9939Z" fill="#0E1219"/>
<path d="M56.4862 18.3377C56.6212 18.4727 56.835 18.4727 56.9587 18.3377C57.0937 18.2027 57.0937 17.9889 56.9587 17.8652L55.125 16.0314C54.99 15.8964 54.7762 15.8964 54.6525 16.0314C54.5175 16.1664 54.5175 16.3802 54.6525 16.5039L56.4862 18.3377Z" fill="#0E1219"/>
<path d="M63.8212 25.6614C63.9562 25.7964 64.17 25.7964 64.2937 25.6614C64.4287 25.5264 64.4287 25.3127 64.2937 25.1889L62.46 23.3552C62.325 23.2202 62.1112 23.2202 61.9875 23.3552C61.8525 23.4902 61.8525 23.7039 61.9875 23.8277L63.8212 25.6614Z" fill="#0E1219"/>
<path d="M22.8487 60.9861C22.6462 60.8286 22.4325 60.7048 22.1962 60.6148C21.9712 60.5248 21.735 60.4573 21.4875 60.4461C21.24 60.4236 20.9925 60.4573 20.745 60.5586C20.7675 60.3673 20.7675 60.1648 20.745 59.9511C20.7225 59.7373 20.6775 59.5236 20.61 59.3211C20.5425 59.1186 20.4637 58.9161 20.3512 58.7361C20.25 58.5561 20.1262 58.3873 19.9912 58.2523C19.5075 57.7686 18.9787 57.4311 18.4275 57.2398C17.865 57.0486 17.3137 56.9923 16.74 57.0486C16.1775 57.1048 15.615 57.2736 15.075 57.5548C14.535 57.8361 14.04 58.1961 13.59 58.6461C13.095 59.1411 12.69 59.7036 12.375 60.3561C12.0487 61.0086 11.8575 61.6723 11.79 62.3586L14.5687 64.0911C14.5912 63.6186 14.715 63.1686 14.9175 62.7298C15.1312 62.2911 15.4012 61.9086 15.7275 61.5711C15.8287 61.4698 15.9525 61.3573 16.0987 61.2448C16.245 61.1323 16.3912 61.0423 16.5487 60.9861C16.7062 60.9186 16.8637 60.8961 17.0212 60.9073C17.1787 60.9186 17.325 60.9861 17.46 61.1323C17.6512 61.3236 17.7525 61.5261 17.775 61.7398C17.7975 61.9536 17.775 62.1673 17.6962 62.3811C17.6175 62.5948 17.5162 62.7973 17.37 62.9886C17.2237 63.1798 17.0887 63.3598 16.9425 63.4948C16.875 63.5623 16.8075 63.6298 16.74 63.6861C16.6725 63.7423 16.605 63.7986 16.5262 63.8661L18.2587 65.6773C18.2587 65.5986 18.2925 65.5198 18.3487 65.4186C18.405 65.3173 18.4612 65.2273 18.54 65.1261C18.6075 65.0361 18.6862 64.9348 18.7537 64.8561C18.8325 64.7661 18.8887 64.6986 18.9562 64.6423C19.035 64.5636 19.1587 64.4736 19.3162 64.3836C19.4737 64.2936 19.6312 64.2148 19.8 64.1586C19.9687 64.1023 20.1375 64.0686 20.295 64.0573C20.4525 64.0573 20.5875 64.0911 20.6775 64.1923C20.8237 64.3386 20.9025 64.4848 20.9362 64.6423C20.9587 64.7998 20.9475 64.9461 20.9025 65.0923C20.8575 65.2386 20.7787 65.3848 20.6775 65.5311C20.5762 65.6661 20.4637 65.8011 20.3512 65.9136C20.1487 66.1161 19.9237 66.2961 19.665 66.4648C19.4062 66.6336 19.1362 66.7798 18.855 66.9148C18.5737 67.0498 18.2812 67.1623 17.9887 67.2636C17.6962 67.3648 17.415 67.4323 17.1562 67.4886L19.4062 70.2111C19.7325 70.1323 20.0587 70.0423 20.3962 69.9186C20.7337 69.7948 21.06 69.6486 21.3862 69.4911C21.7125 69.3223 22.0162 69.1423 22.3087 68.9398C22.6012 68.7373 22.8712 68.5236 23.0962 68.2873C23.6137 67.7698 24.03 67.2298 24.3337 66.6561C24.6375 66.0936 24.8175 65.5198 24.8625 64.9348C24.9075 64.3498 24.8175 63.7761 24.5925 63.2023C24.3675 62.6286 23.9737 62.0661 23.4337 61.5148C23.265 61.3461 23.0737 61.1773 22.8712 61.0198L22.8487 60.9861Z" fill="#0E1219"/>
<path d="M92.655 27.9002C92.7225 28.0239 92.79 28.1477 92.88 28.2714C92.9587 28.3839 93.0487 28.4964 93.1387 28.5864C93.3525 28.8002 93.5662 28.9577 93.7912 29.0814C94.0162 29.2052 94.2525 29.2727 94.4775 29.2952C94.7025 29.3177 94.9387 29.2727 95.175 29.1827C95.4112 29.0927 95.6362 28.9352 95.85 28.7214C95.9175 28.6539 95.985 28.5752 96.0525 28.4964C96.12 28.4177 96.165 28.3277 96.1987 28.2377C96.2325 28.1477 96.255 28.0577 96.2662 27.9564C96.2662 27.8552 96.2662 27.7539 96.2212 27.6639C96.3 27.6639 96.3787 27.6639 96.4687 27.6639C96.5587 27.6639 96.6375 27.6414 96.7162 27.6077C96.795 27.5852 96.8737 27.5514 96.9525 27.5064C97.0312 27.4614 97.0875 27.4164 97.1437 27.3602C97.335 27.1689 97.47 26.9552 97.5487 26.7302C97.6275 26.5052 97.65 26.2802 97.6275 26.0552C97.605 25.8302 97.5375 25.6052 97.425 25.3914C97.3125 25.1777 97.1662 24.9752 96.9862 24.7952C96.7837 24.5927 96.5587 24.4352 96.3 24.3114C96.0412 24.1877 95.7712 24.1089 95.49 24.0752L94.7925 25.1889C94.9837 25.1889 95.1637 25.2452 95.3437 25.3239C95.5237 25.4027 95.67 25.5152 95.805 25.6502C95.85 25.6952 95.895 25.7402 95.9287 25.7964C95.9625 25.8527 96.0075 25.9089 96.03 25.9764C96.0525 26.0439 96.0637 26.1002 96.0637 26.1677C96.0637 26.2352 96.03 26.2914 95.9737 26.3477C95.895 26.4264 95.8162 26.4714 95.7262 26.4714C95.6362 26.4714 95.5575 26.4714 95.4675 26.4377C95.3775 26.4039 95.2987 26.3589 95.22 26.3027C95.1412 26.2464 95.0737 26.1902 95.0175 26.1339C94.9837 26.1114 94.9612 26.0777 94.9387 26.0552C94.9162 26.0327 94.8937 25.9989 94.8712 25.9652L94.1512 26.6627C94.1512 26.6627 94.2187 26.6739 94.2525 26.6964C94.2975 26.7189 94.3312 26.7414 94.365 26.7752C94.3987 26.7977 94.4437 26.8314 94.4775 26.8652C94.5112 26.8989 94.545 26.9214 94.5675 26.9439C94.6012 26.9777 94.635 27.0227 94.6687 27.0902C94.7025 27.1577 94.7362 27.2139 94.7587 27.2814C94.7812 27.3489 94.7925 27.4164 94.7925 27.4839C94.7925 27.5514 94.7812 27.5964 94.7362 27.6302C94.68 27.6864 94.6237 27.7202 94.5562 27.7314C94.4887 27.7314 94.4325 27.7314 94.3762 27.7202C94.32 27.6977 94.2637 27.6752 94.2075 27.6302C94.1512 27.5852 94.095 27.5402 94.05 27.4952C93.9712 27.4164 93.8925 27.3264 93.825 27.2252C93.7575 27.1239 93.7012 27.0114 93.645 26.8989C93.5887 26.7864 93.5437 26.6739 93.51 26.5502C93.4762 26.4377 93.4425 26.3252 93.42 26.2127L92.3287 27.1127C92.3625 27.2364 92.3962 27.3714 92.4412 27.5064C92.4862 27.6414 92.5425 27.7764 92.61 27.9002H92.655Z" fill="#0E1219"/>
<path d="M49.6462 71.9213C49.6125 72.0113 49.5787 72.1014 49.5337 72.1801C49.4887 72.2701 49.4437 72.3488 49.3987 72.4276C49.3425 72.5063 49.2975 72.5738 49.23 72.6301C49.1512 72.7088 49.0725 72.7651 48.9825 72.8101C48.8925 72.8551 48.8137 72.8776 48.7237 72.8776C48.6337 72.8776 48.5437 72.8664 48.465 72.8214C48.375 72.7764 48.2962 72.7201 48.2062 72.6189C48.0712 72.4726 47.9812 72.3263 47.9362 72.1688C47.8912 72.0113 47.8687 71.8651 47.8912 71.7076C47.9025 71.5613 47.9475 71.4151 48.0262 71.2688C48.105 71.1338 48.195 70.9988 48.3075 70.8863C48.3525 70.8413 48.3975 70.7963 48.4537 70.7626C48.4987 70.7176 48.555 70.6838 48.6225 70.6501C48.3187 70.2338 48.015 69.8288 47.7225 69.4126C47.5762 69.4576 47.4412 69.5251 47.3062 69.6151C47.1712 69.7051 47.0587 69.8063 46.9462 69.9188C46.665 70.2001 46.4625 70.5151 46.35 70.8526C46.2375 71.1901 46.2037 71.5276 46.2375 71.8763C46.2712 72.2251 46.3725 72.5738 46.5412 72.9226C46.71 73.2713 46.9237 73.5976 47.1937 73.9013C47.3962 74.1263 47.6325 74.3064 47.88 74.4301C48.1275 74.5539 48.3862 74.6213 48.6562 74.6438C48.915 74.6551 49.1737 74.6213 49.4325 74.5313C49.68 74.4413 49.9162 74.2838 50.1187 74.0813C50.1862 74.0138 50.2537 73.9351 50.3212 73.8451C50.3887 73.7551 50.4562 73.6651 50.5125 73.5638C50.5687 73.4626 50.625 73.3726 50.67 73.2713C50.715 73.1701 50.76 73.0688 50.7825 72.9788C50.4337 72.5401 50.0737 72.1013 49.725 71.6513C49.7025 71.7301 49.68 71.8201 49.6462 71.9101V71.9213Z" fill="#0E1219"/>
<path d="M49.4212 67.5789C50.0625 68.2427 50.7037 68.9064 51.345 69.5702C51.1312 69.7839 51.03 69.8852 50.8162 70.0989C50.2425 69.4577 49.6687 68.8164 49.1062 68.1752C48.7125 68.5239 48.33 68.8839 47.9362 69.2327C49.0612 70.4814 50.1862 71.7302 51.3 72.9902C51.66 72.6302 52.02 72.2702 52.38 71.9102C52.0312 71.5164 51.6825 71.1339 51.3225 70.7402L51.8737 70.1889C52.2562 70.5827 52.65 70.9764 53.0325 71.3702C53.415 70.9427 53.7975 70.5264 54.18 70.0989C52.9537 68.9177 51.7275 67.7364 50.5012 66.5439C50.1412 66.8927 49.77 67.2302 49.41 67.5789H49.4212Z" fill="#0E1219"/>
<path d="M50.9512 66.3411C52.0987 67.4886 53.235 68.6361 54.3825 69.7836L55.35 68.7149C54.2812 67.4886 53.2012 66.2624 52.1325 65.0361C51.7387 65.4749 51.345 65.9136 50.9625 66.3524L50.9512 66.3411Z" fill="#0E1219"/>
<path d="M56.2612 65.1376C56.1825 65.2276 56.0925 65.3176 56.0025 65.4076L55.7775 65.6326C55.71 65.7113 55.6312 65.7788 55.5525 65.8463C55.1812 65.4751 54.8325 65.0813 54.4837 64.6876C54.135 64.2938 53.7975 63.9001 53.4487 63.5063C53.0437 63.9113 52.6387 64.3163 52.2337 64.7213C52.8075 65.3176 53.3925 65.9138 53.9662 66.4988C54.54 67.0838 55.125 67.6801 55.71 68.2651C56.3287 67.5338 56.9475 66.8026 57.5662 66.0713C57.2175 65.6776 56.8575 65.2726 56.5087 64.8788C56.4187 64.9688 56.3287 65.0588 56.25 65.1488L56.2612 65.1376Z" fill="#0E1219"/>
<path d="M58.4775 62.9212C58.3987 63.0112 58.3087 63.1012 58.2187 63.1912C58.14 63.27 58.0725 63.3375 57.9937 63.4162C57.9262 63.495 57.8475 63.5625 57.7687 63.63C57.3975 63.2587 57.0262 62.8762 56.6775 62.4937C56.3287 62.1112 55.98 61.7175 55.62 61.335C55.215 61.74 54.81 62.145 54.405 62.55C54.99 63.135 55.5862 63.72 56.1712 64.2937C56.7675 64.8675 57.3525 65.4525 57.9487 66.0262C58.5675 65.295 59.1862 64.5637 59.805 63.8325C59.445 63.4387 59.085 63.0562 58.725 62.6625C58.635 62.7525 58.545 62.8425 58.4662 62.9325L58.4775 62.9212Z" fill="#0E1219"/>
<path d="M61.5374 58.4548C61.3012 58.7023 61.0649 58.9498 60.8287 59.2086C61.1099 59.5348 61.2449 59.6923 61.5262 60.0186C61.7624 59.7823 61.8862 59.6698 62.1224 59.4336C62.1899 59.5123 62.2349 59.5573 62.3024 59.6473C62.3024 59.7373 62.2687 59.8273 62.2124 59.9061C62.1674 59.9848 62.0999 60.0636 62.0437 60.1311C61.9537 60.2211 61.8524 60.2886 61.7399 60.3111C61.6387 60.3448 61.5262 60.3448 61.4137 60.3336C61.3012 60.3111 61.1999 60.2773 61.0987 60.2098C60.9974 60.1536 60.9074 60.0748 60.8174 59.9848C60.6824 59.8386 60.5924 59.6923 60.5362 59.5236C60.4799 59.3661 60.4574 59.1973 60.4687 59.0398C60.4687 58.8823 60.5137 58.7136 60.5924 58.5673C60.6599 58.4098 60.7612 58.2748 60.8962 58.1398C60.9862 58.0498 61.0874 57.9598 61.1999 57.8811C61.3124 57.8023 61.4249 57.7236 61.5487 57.6786C61.2562 57.3298 60.9749 56.9811 60.6824 56.6323C60.5812 56.6548 60.4912 56.6886 60.3899 56.7448C60.2887 56.7898 60.1987 56.8461 60.1087 56.9136C60.0187 56.9811 59.9287 57.0486 59.8499 57.1161C59.7712 57.1836 59.6924 57.2623 59.6249 57.3298C59.4449 57.5098 59.2987 57.7123 59.1862 57.9261C59.0737 58.1398 58.9949 58.3648 58.9499 58.6011C58.9049 58.8373 58.8824 59.0736 58.9049 59.3211C58.9162 59.5686 58.9612 59.8048 59.0399 60.0411C59.1074 60.2773 59.2087 60.5136 59.3324 60.7273C59.4562 60.9523 59.6024 61.1548 59.7824 61.3461C60.0074 61.5936 60.2662 61.7961 60.5362 61.9311C60.8062 62.0661 61.0987 62.1448 61.3912 62.1561C61.6837 62.1673 61.9762 62.1223 62.2574 62.0098C62.5387 61.8973 62.8087 61.7173 63.0449 61.4811C63.1687 61.3573 63.2924 61.2111 63.4049 61.0536C63.5174 60.8848 63.6187 60.7161 63.7087 60.5361C63.7874 60.3561 63.8549 60.1648 63.8999 59.9848C63.9449 59.7936 63.9562 59.6136 63.9337 59.4336C63.3712 58.8711 62.8087 58.3086 62.2574 57.7461C62.0212 58.0048 61.7849 58.2523 61.5487 58.4998L61.5374 58.4548Z" fill="#0E1219"/>
<path d="M66.24 56.0585C66.15 55.8448 66.0487 55.6423 65.925 55.4398C65.8012 55.2373 65.6775 55.046 65.5425 54.866C65.4075 54.686 65.2725 54.5173 65.1262 54.3598C64.9912 54.2023 64.8562 54.0673 64.7325 53.9435C64.4962 53.7073 64.2487 53.4935 63.99 53.2798L62.865 54.4048C63 54.5285 63.135 54.6523 63.27 54.776C63.405 54.8998 63.54 55.0235 63.6637 55.1585C63.6975 55.1923 63.7537 55.2485 63.8212 55.316C63.8887 55.3948 63.9675 55.4735 64.0575 55.5748C64.1475 55.676 64.2375 55.7773 64.3387 55.901C64.44 56.0135 64.53 56.1373 64.6312 56.261C64.7212 56.3848 64.8112 56.5085 64.89 56.6323C64.9687 56.756 65.0362 56.8685 65.0812 56.9698C65.1262 57.071 65.16 57.1723 65.16 57.251C65.16 57.3298 65.1487 57.3973 65.1037 57.4535C65.0587 57.4985 65.0025 57.5098 64.935 57.4985C64.8675 57.4985 64.7887 57.4648 64.71 57.431C64.6312 57.3973 64.5412 57.341 64.4625 57.2848C64.3837 57.2285 64.2937 57.161 64.2262 57.1048C64.1475 57.0373 64.08 56.981 64.0237 56.9248C63.9675 56.8685 63.9225 56.8348 63.8887 56.801C63.63 56.5423 63.3712 56.2498 63.1462 55.9573C62.9212 55.6648 62.685 55.361 62.4712 55.0573C62.0775 55.4173 61.695 55.7773 61.3012 56.1373C61.4925 56.4185 61.6837 56.6773 61.8862 56.9473C62.0887 57.206 62.3137 57.4535 62.5387 57.6898C62.685 57.8473 62.8537 57.9935 63.0225 58.151C63.2025 58.3085 63.3825 58.4435 63.5737 58.5673C63.765 58.691 63.9675 58.7923 64.17 58.871C64.3725 58.9498 64.575 58.9948 64.7887 58.9948C64.9912 58.9948 65.205 58.961 65.4075 58.8823C65.61 58.8035 65.8125 58.6685 66.0037 58.4773C66.1725 58.3085 66.2962 58.1398 66.375 57.9485C66.4537 57.7573 66.4987 57.5548 66.51 57.3523C66.51 57.1498 66.51 56.936 66.4537 56.7223C66.4087 56.5085 66.3412 56.2948 66.2512 56.081L66.24 56.0585Z" fill="#0E1219"/>
<path d="M67.3312 50.0513C66.915 50.4113 66.4987 50.7713 66.0937 51.12C66.2625 51.6713 66.4312 52.2225 66.6 52.7738C66.1612 52.4925 65.7225 52.2113 65.295 51.9188C64.9462 52.38 64.5862 52.8413 64.2375 53.3025C65.1037 53.685 65.9587 54.0563 66.825 54.4275C67.3425 54.945 67.8712 55.4625 68.3887 55.98C68.7825 55.5863 69.1762 55.1925 69.57 54.7988C69.0525 54.27 68.535 53.7525 68.0062 53.2238C67.7925 52.1663 67.5675 51.1088 67.3312 50.0513Z" fill="#0E1219"/>
<path d="M75.5212 43.6164C74.9025 42.9977 73.89 42.9977 73.2712 43.6164L69.1987 47.6889C68.58 48.3077 68.58 49.3202 69.1987 49.9389L70.74 51.4802C71.3587 52.0989 72.3712 52.0989 72.99 51.4802L77.0625 47.4077C77.6812 46.7889 77.6812 45.7764 77.0625 45.1577L75.5212 43.6164ZM73.7775 48.7689C73.755 48.8814 73.71 48.9939 73.665 49.1064C73.62 49.2189 73.5525 49.3202 73.485 49.4214C73.4175 49.5227 73.3387 49.6127 73.26 49.6914C73.1137 49.8377 72.945 49.9502 72.7762 50.0289C72.6075 50.1077 72.4275 50.1414 72.2362 50.1414C72.0562 50.1414 71.8762 50.1077 71.6962 50.0402C71.5162 49.9614 71.3587 49.8602 71.2125 49.7139C71.1 49.6014 71.01 49.4777 70.92 49.3427C70.8412 49.2077 70.7737 49.0727 70.7287 48.9377C70.6837 48.8027 70.6612 48.6564 70.65 48.5102C70.65 48.3639 70.65 48.2177 70.6837 48.0714C70.7175 47.9252 70.7737 47.7902 70.8412 47.6552C70.92 47.5202 71.01 47.3964 71.1337 47.2727C71.1787 47.2277 71.2237 47.1827 71.28 47.1377C71.3362 47.0927 71.3925 47.0477 71.4487 47.0027C71.505 46.9577 71.5725 46.9239 71.6287 46.8902C71.6962 46.8564 71.7525 46.8339 71.82 46.8227L72.3712 47.4527C72.2925 47.4864 72.2137 47.5314 72.1462 47.5877C72.0787 47.6439 72.0112 47.7002 71.955 47.7564C71.8762 47.8352 71.8087 47.9252 71.7525 48.0264C71.7075 48.1164 71.6737 48.2177 71.6625 48.3077C71.6512 48.4089 71.6625 48.4989 71.6962 48.6002C71.73 48.7014 71.7862 48.7914 71.8762 48.8702C71.9325 48.9264 71.9887 48.9714 72.0562 49.0052C72.1237 49.0389 72.1912 49.0614 72.2587 49.0727C72.3262 49.0727 72.3937 49.0727 72.4612 49.0614C72.5287 49.0389 72.5962 49.0052 72.6525 48.9489C72.6975 48.9039 72.7312 48.8702 72.7537 48.8139C72.7875 48.7577 72.81 48.7127 72.81 48.6564L72.6975 48.5327L72.3262 48.8927L71.8762 48.4089C72.0225 48.2514 72.1687 48.0939 72.3262 47.9364C72.4725 47.7789 72.63 47.6214 72.7762 47.4639L73.8 48.4539C73.8 48.5664 73.8 48.6789 73.7775 48.7914V48.7689ZM75.915 46.6314C75.8925 46.7439 75.8475 46.8564 75.8025 46.9689C75.7462 47.0814 75.69 47.1827 75.6225 47.2839C75.555 47.3852 75.4762 47.4752 75.3975 47.5539C75.2512 47.7002 75.0825 47.8127 74.9137 47.8914C74.745 47.9702 74.5537 48.0039 74.3737 48.0039C74.1937 48.0039 74.0137 47.9702 73.845 47.8914C73.665 47.8127 73.5075 47.7114 73.3612 47.5652C73.2487 47.4527 73.1475 47.3289 73.0687 47.1939C72.99 47.0589 72.9225 46.9239 72.8775 46.7889C72.8325 46.6539 72.81 46.5077 72.7987 46.3614C72.7987 46.2152 72.7987 46.0689 72.8325 45.9227C72.8662 45.7764 72.9112 45.6414 72.99 45.5064C73.0687 45.3714 73.1587 45.2477 73.2825 45.1352C73.3275 45.0902 73.3725 45.0452 73.4287 45.0002C73.485 44.9552 73.5412 44.9102 73.5975 44.8652C73.6537 44.8202 73.7212 44.7864 73.7775 44.7527C73.845 44.7189 73.9012 44.6964 73.9687 44.6739L74.52 45.3039C74.4412 45.3377 74.3625 45.3827 74.295 45.4389C74.2275 45.4952 74.16 45.5514 74.1037 45.6077C74.025 45.6864 73.9575 45.7764 73.9012 45.8664C73.8562 45.9564 73.8225 46.0577 73.8112 46.1477C73.8112 46.2489 73.8112 46.3389 73.845 46.4402C73.8787 46.5302 73.935 46.6314 74.025 46.7102C74.0812 46.7664 74.1375 46.8114 74.205 46.8452C74.2725 46.8789 74.34 46.9014 74.4075 46.9127C74.475 46.9127 74.5425 46.9127 74.61 46.9014C74.6775 46.8789 74.745 46.8452 74.8012 46.7889C74.835 46.7552 74.88 46.7102 74.9025 46.6539C74.9362 46.5977 74.9587 46.5527 74.9587 46.4964L74.8462 46.3727L74.4637 46.7327L74.0137 46.2489C74.16 46.0914 74.3062 45.9339 74.4637 45.7764C74.61 45.6189 74.7675 45.4614 74.9137 45.3039L75.9375 46.2939C75.9375 46.4064 75.9375 46.5189 75.915 46.6314Z" fill="#0E1219"/>
</svg>
