<svg width="109" height="89" viewBox="0 0 109 89" fill="none" xmlns="http://www.w3.org/2000/svg">
<path d="M107.572 28.8652L48.7687 87.6689C47.5425 88.8951 45.5512 88.8951 44.3137 87.6689C40.1062 83.4614 33.2662 83.4614 29.0587 87.6689C27.8325 88.8951 25.8412 88.8951 24.6037 87.6689L1.41749 64.4602C0.19124 63.2339 0.19124 61.2427 1.41749 60.0052L60.2212 1.21266C61.4475 -0.0135938 63.4387 -0.0135938 64.6762 1.21266C68.8837 5.42016 75.7237 5.42016 79.9312 1.21266C81.1575 -0.0135938 83.1487 -0.0135938 84.3862 1.21266L107.584 24.4102C108.81 25.6364 108.81 27.6277 107.584 28.8652H107.572ZM46.3387 81.2001L100.901 26.6377L81.945 7.68141C76.1512 11.6527 68.445 11.6527 62.6512 7.68141L8.08874 62.2327L27.045 81.1889C32.8387 77.2177 40.545 77.2177 46.3387 81.1889V81.2001Z" fill="white"/>
<path d="M82.1475 3.43994L105.345 26.6374L46.5413 85.4412C41.0963 79.9962 32.2763 79.9962 26.8313 85.4412L3.64502 62.2324L62.4375 3.43994C67.8825 8.88494 76.7025 8.88494 82.1475 3.43994Z" fill="#E55D2D"/>
<path d="M105.829 26.165L82.62 2.95627C82.3612 2.69752 81.9337 2.69752 81.6637 2.95627C76.4887 8.13127 68.085 8.13127 62.91 2.95627C62.6512 2.69752 62.2237 2.69752 61.9537 2.95627L3.16123 61.76C2.90248 62.0188 2.90248 62.4463 3.16123 62.7163L26.3587 85.9138C26.6175 86.1725 27.045 86.1725 27.315 85.9138C32.49 80.7388 40.8937 80.7388 46.0687 85.9138C46.3275 86.1725 46.755 86.1725 47.025 85.9138L105.829 27.11C106.087 26.8513 106.087 26.4238 105.829 26.1538V26.165ZM84.9262 46.1113L84.4537 45.6388C84.3187 45.5038 84.105 45.5038 83.9812 45.6388C83.8462 45.7738 83.8462 45.9875 83.9812 46.1113L84.4537 46.5838L46.5412 84.4963C40.9837 79.4225 32.4225 79.4225 26.8537 84.4963L4.58998 62.2325L52.3462 14.4763L52.8187 14.9488C52.9537 15.0838 53.1675 15.0838 53.2912 14.9488C53.4262 14.8138 53.4262 14.6 53.2912 14.4763L52.8187 14.0038L62.4487 4.37377C68.0062 9.44752 76.5675 9.44752 82.1362 4.37377L104.4 26.6375L84.9375 46.1L84.9262 46.1113Z" fill="#0E1219"/>
<path d="M74.8125 36.9427C74.9475 37.0777 75.1613 37.0777 75.285 36.9427C75.42 36.8077 75.42 36.5939 75.285 36.4702L73.4513 34.6364C73.3163 34.5014 73.1025 34.5014 72.9788 34.6364C72.8438 34.7714 72.8438 34.9852 72.9788 35.1089L74.8125 36.9427Z" fill="#0E1219"/>
<path d="M77.1187 38.3039C76.9837 38.1689 76.77 38.1689 76.6462 38.3039C76.5112 38.4389 76.5112 38.6526 76.6462 38.7764L78.48 40.6101C78.615 40.7451 78.8287 40.7451 78.9525 40.6101C79.0875 40.4751 79.0875 40.2614 78.9525 40.1376L77.1187 38.3039Z" fill="#0E1219"/>
<path d="M71.145 33.2752C71.28 33.4102 71.4937 33.4102 71.6175 33.2752C71.7525 33.1402 71.7525 32.9264 71.6175 32.8027L69.7837 30.9689C69.6487 30.8339 69.435 30.8339 69.3112 30.9689C69.1762 31.1039 69.1762 31.3177 69.3112 31.4414L71.145 33.2752Z" fill="#0E1219"/>
<path d="M80.3137 41.9601C80.1787 42.0951 80.1787 42.3089 80.3137 42.4326L82.1475 44.2664C82.2825 44.4014 82.4962 44.4014 82.62 44.2664C82.755 44.1314 82.755 43.9176 82.62 43.7939L80.7862 41.9601C80.6512 41.8251 80.4375 41.8251 80.3137 41.9601Z" fill="#0E1219"/>
<path d="M56.4862 18.6277C56.6212 18.7627 56.835 18.7627 56.9587 18.6277C57.0937 18.4927 57.0937 18.279 56.9587 18.1552L55.125 16.3215C54.99 16.1865 54.7762 16.1865 54.6525 16.3215C54.5175 16.4565 54.5175 16.6702 54.6525 16.794L56.4862 18.6277Z" fill="#0E1219"/>
<path d="M60.1537 22.284C60.2887 22.419 60.5025 22.419 60.6262 22.284C60.7612 22.149 60.7612 21.9352 60.6262 21.8115L58.7925 19.9777C58.6575 19.8427 58.4437 19.8427 58.32 19.9777C58.185 20.1127 58.185 20.3265 58.32 20.4502L60.1537 22.284Z" fill="#0E1219"/>
<path d="M63.8212 25.9514C63.9562 26.0864 64.17 26.0864 64.2937 25.9514C64.4287 25.8164 64.4287 25.6027 64.2937 25.4789L62.46 23.6452C62.325 23.5102 62.1112 23.5102 61.9875 23.6452C61.8525 23.7802 61.8525 23.9939 61.9875 24.1177L63.8212 25.9514Z" fill="#0E1219"/>
<path d="M67.4887 29.6189C67.6237 29.7539 67.8375 29.7539 67.9612 29.6189C68.085 29.4839 68.0962 29.2702 67.9612 29.1464L66.1275 27.3127C65.9925 27.1777 65.7787 27.1777 65.655 27.3127C65.52 27.4477 65.52 27.6614 65.655 27.7852L67.4887 29.6189Z" fill="#0E1219"/>
<path d="M21.15 60.3424C20.6663 60.3537 20.1825 60.4662 19.7212 60.6799C19.26 60.8937 18.8212 61.1974 18.4387 61.5799C18.2475 61.7712 18.0675 61.9849 17.8875 62.1987C17.7187 62.4124 17.5612 62.6487 17.415 62.8849L16.3237 61.6699L19.755 58.5987L16.9087 56.0337L11.8125 61.4112L16.785 66.9012C16.92 66.6649 17.0887 66.4287 17.2687 66.2149C17.4487 66.0012 17.64 65.7874 17.8312 65.5962C17.9212 65.5062 18.045 65.3824 18.1912 65.2474C18.3375 65.1124 18.5062 64.9662 18.6862 64.8312C18.8662 64.6962 19.0575 64.5612 19.26 64.4374C19.4625 64.3137 19.6538 64.2237 19.845 64.1674C20.0363 64.1112 20.2275 64.0887 20.4075 64.1112C20.5875 64.1337 20.7562 64.2237 20.8912 64.3587C21.0375 64.5049 21.1162 64.6849 21.105 64.8762C21.0937 65.0674 21.0487 65.2699 20.9587 65.4612C20.8688 65.6524 20.7562 65.8437 20.6212 66.0124C20.4862 66.1924 20.3625 66.3274 20.2612 66.4399C20.0812 66.6199 19.8787 66.7887 19.6538 66.9574C19.4288 67.1149 19.2037 67.2724 18.9562 67.4074C18.72 67.5424 18.4725 67.6662 18.225 67.7674C17.9775 67.8687 17.73 67.9587 17.4825 68.0262L19.8112 70.8499C20.1487 70.7037 20.4638 70.5574 20.79 70.4112C21.105 70.2537 21.42 70.0962 21.7238 69.9162C22.0275 69.7362 22.32 69.5449 22.6012 69.3424C22.8825 69.1287 23.1525 68.9037 23.4113 68.6449C23.94 68.1162 24.3675 67.5537 24.705 66.9462C25.0425 66.3499 25.245 65.7424 25.3125 65.1237C25.3912 64.5049 25.3125 63.8974 25.0988 63.2787C24.885 62.6599 24.5025 62.0749 23.94 61.5124C23.5237 61.0962 23.085 60.7924 22.6012 60.6124C22.1175 60.4212 21.6337 60.3312 21.15 60.3537V60.3424Z" fill="#0E1219"/>
<path d="M28.1925 50.0827C27.6863 49.9027 27.1688 49.7677 26.64 49.7002C26.1113 49.6327 25.5825 49.6327 25.065 49.7114C24.5475 49.7902 24.0525 49.9477 23.5688 50.1727C23.085 50.4089 22.6463 50.7239 22.23 51.1289C21.825 51.5339 21.4988 51.9839 21.2625 52.4677C21.0263 52.9514 20.8688 53.4577 20.8013 53.9639C20.7225 54.4814 20.7225 54.9989 20.79 55.5389C20.8575 56.0677 20.9813 56.5852 21.1725 57.0914C21.3525 57.5977 21.6 58.0814 21.8925 58.5427C22.185 59.0039 22.5225 59.4202 22.8938 59.8027C23.265 60.1852 23.6925 60.5114 24.1538 60.8039C24.615 61.0964 25.0988 61.3327 25.605 61.5239C26.1113 61.7152 26.6288 61.8389 27.1575 61.8952C27.6863 61.9627 28.215 61.9514 28.7213 61.8839C29.2388 61.8052 29.7338 61.6589 30.2175 61.4227C30.7013 61.1864 31.1513 60.8714 31.5675 60.4552C31.9725 60.0502 32.2988 59.6002 32.5238 59.1164C32.76 58.6327 32.9063 58.1377 32.985 57.6202C33.0638 57.1027 33.0638 56.5852 32.9963 56.0564C32.9288 55.5277 32.805 55.0102 32.6138 54.5039C32.4225 53.9977 32.1863 53.5139 31.8938 53.0639C31.6013 52.6027 31.2638 52.1864 30.8925 51.8039C30.5213 51.4214 30.0938 51.0952 29.6325 50.8027C29.1713 50.5102 28.6875 50.2627 28.1813 50.0827H28.1925ZM28.9238 55.4489C29.1038 55.7302 29.2388 56.0339 29.34 56.3377C29.4413 56.6414 29.4638 56.9564 29.4413 57.2602C29.4075 57.5639 29.2838 57.8339 29.0475 58.0702C28.8113 58.3064 28.5413 58.4414 28.2375 58.4752C27.9338 58.5089 27.6188 58.4752 27.315 58.3852C27 58.2952 26.7075 58.1602 26.415 57.9802C26.1338 57.8002 25.8975 57.6089 25.7063 57.4289C25.515 57.2489 25.335 57.0014 25.155 56.7202C24.975 56.4389 24.84 56.1352 24.75 55.8202C24.66 55.5052 24.6263 55.2014 24.66 54.8977C24.6938 54.5939 24.8288 54.3239 25.065 54.0877C25.3013 53.8514 25.5713 53.7277 25.875 53.6939C26.1788 53.6602 26.4938 53.6939 26.7975 53.7952C27.1125 53.8852 27.405 54.0314 27.6863 54.2114C27.9675 54.3914 28.2038 54.5827 28.395 54.7627C28.5863 54.9539 28.7663 55.1902 28.9463 55.4714L28.9238 55.4489Z" fill="#0E1219"/>
<path d="M38.025 42.4213C37.5637 42.1288 37.08 41.8813 36.5737 41.7013C36.0675 41.5213 35.55 41.3863 35.0212 41.3188C34.4925 41.2513 33.9637 41.2513 33.4462 41.3301C32.9287 41.4088 32.4337 41.5663 31.95 41.7913C31.4662 42.0276 31.0275 42.3426 30.6112 42.7476C30.195 43.1526 29.88 43.6026 29.6437 44.0863C29.4075 44.5701 29.25 45.0763 29.1825 45.5826C29.1037 46.1001 29.1037 46.6176 29.1712 47.1576C29.2387 47.6863 29.3625 48.2038 29.5537 48.7101C29.7337 49.2163 29.9812 49.7001 30.2737 50.1613C30.5662 50.6226 30.9037 51.0388 31.275 51.4213C31.6462 51.8038 32.0737 52.1301 32.535 52.4226C32.9962 52.7151 33.48 52.9513 33.9862 53.1426C34.4925 53.3226 35.01 53.4576 35.5387 53.5138C36.0675 53.5813 36.5962 53.5701 37.1025 53.5026C37.62 53.4238 38.115 53.2776 38.5987 53.0413C39.0825 52.8051 39.5325 52.4901 39.9487 52.0738C40.3537 51.6688 40.68 51.2188 40.905 50.7351C41.13 50.2513 41.2875 49.7563 41.3663 49.2388C41.445 48.7213 41.445 48.2038 41.3775 47.6751C41.31 47.1463 41.1862 46.6288 40.995 46.1226C40.815 45.6163 40.5675 45.1326 40.275 44.6826C39.9825 44.2326 39.645 43.8051 39.2738 43.4226C38.9025 43.0401 38.475 42.7138 38.0137 42.4213H38.025ZM37.305 47.0563C37.485 47.3376 37.62 47.6413 37.7212 47.9451C37.8112 48.2601 37.845 48.5638 37.8225 48.8676C37.7887 49.1713 37.665 49.4413 37.4288 49.6776C37.1925 49.9138 36.9225 50.0488 36.6187 50.0826C36.315 50.1163 36 50.0826 35.6962 49.9926C35.3812 49.9026 35.0887 49.7676 34.7962 49.5763C34.515 49.3963 34.2787 49.2051 34.0875 49.0251C33.8962 48.8338 33.7162 48.5976 33.5362 48.3163C33.3562 48.0351 33.2212 47.7313 33.12 47.4163C33.03 47.1013 32.9962 46.7976 33.03 46.4826C33.0637 46.1788 33.1987 45.9088 33.435 45.6726C33.6712 45.4363 33.9412 45.3126 34.245 45.2788C34.5487 45.2451 34.8637 45.2788 35.1675 45.3801C35.4825 45.4701 35.775 45.6163 36.0562 45.7963C36.3375 45.9763 36.5738 46.1676 36.765 46.3476C36.9563 46.5388 37.1362 46.7751 37.3162 47.0563H37.305Z" fill="#0E1219"/>
<path d="M86.2312 21.7552C86.2987 21.8677 86.3775 21.9802 86.4562 22.0927C86.535 22.2052 86.625 22.3064 86.7262 22.3964C86.9287 22.5989 87.1425 22.7677 87.3787 22.8914C87.615 23.0152 87.84 23.0939 88.0762 23.1277C88.3125 23.1502 88.5487 23.1277 88.785 23.0489C89.0212 22.9702 89.2462 22.8239 89.46 22.5989C89.6175 22.4414 89.73 22.2727 89.8087 22.0814C89.8762 21.9014 89.91 21.7102 89.91 21.5189C89.91 21.3277 89.865 21.1477 89.775 20.9677C89.6962 20.7877 89.5725 20.6189 89.4262 20.4727C89.3475 20.3939 89.2687 20.3264 89.19 20.2589C89.1112 20.1914 89.0212 20.1352 88.9312 20.0789L89.3925 19.6627L90.5737 20.9789L91.5525 19.8877L89.4825 17.9302L87.3787 19.8427C87.4687 19.8989 87.5587 19.9552 87.6375 20.0227C87.7162 20.0902 87.795 20.1689 87.8737 20.2364C87.9075 20.2702 87.9525 20.3152 88.0087 20.3714C88.065 20.4277 88.1212 20.4952 88.1662 20.5627C88.2112 20.6302 88.2675 20.7089 88.3125 20.7877C88.3575 20.8664 88.3912 20.9339 88.4137 21.0127C88.4362 21.0914 88.4475 21.1589 88.4362 21.2264C88.425 21.2939 88.3912 21.3614 88.3462 21.4177C88.29 21.4739 88.2225 21.5077 88.1437 21.4964C88.065 21.4964 87.9975 21.4739 87.9187 21.4402C87.84 21.4064 87.7725 21.3614 87.705 21.3164C87.6375 21.2602 87.5812 21.2152 87.5475 21.1814C87.48 21.1139 87.4125 21.0352 87.345 20.9452C87.2775 20.8552 87.2212 20.7764 87.1762 20.6752C87.1312 20.5739 87.075 20.4839 87.0412 20.3939C86.9962 20.2927 86.9737 20.2027 86.94 20.1127L85.86 21.0014C85.9162 21.1252 85.9725 21.2489 86.0287 21.3727C86.085 21.4964 86.1525 21.6089 86.22 21.7327L86.2312 21.7552Z" fill="#0E1219"/>
<path d="M90.5962 21.8224C90.4162 21.9349 90.2587 22.0699 90.1125 22.2049C89.9662 22.3512 89.8425 22.5087 89.73 22.6887C89.6175 22.8687 89.5275 23.0487 89.4487 23.2399C89.3812 23.4312 89.325 23.6337 89.3025 23.8362C89.28 24.0387 89.28 24.2412 89.3025 24.4437C89.325 24.6462 89.3925 24.8374 89.4825 25.0174C89.5725 25.1974 89.6962 25.3774 89.8537 25.5349C90.0112 25.6924 90.18 25.8162 90.3712 25.9062C90.5512 25.9962 90.7425 26.0524 90.945 26.0862C91.1475 26.1199 91.3387 26.1199 91.5525 26.0862C91.755 26.0637 91.9575 26.0074 92.1487 25.9399C92.34 25.8724 92.5312 25.7824 92.7 25.6699C92.8687 25.5574 93.0375 25.4337 93.1837 25.2874C93.33 25.1412 93.4537 24.9837 93.5662 24.8037C93.6787 24.6237 93.7687 24.4437 93.8475 24.2412C93.915 24.0499 93.9712 23.8474 93.9937 23.6449C94.0162 23.4424 94.0162 23.2399 93.9937 23.0374C93.9712 22.8349 93.9037 22.6437 93.8137 22.4637C93.7237 22.2837 93.6 22.1037 93.4425 21.9462C93.285 21.7887 93.1162 21.6649 92.925 21.5749C92.7337 21.4849 92.5425 21.4287 92.3512 21.3949C92.1487 21.3612 91.9575 21.3612 91.7437 21.3949C91.5412 21.4174 91.3387 21.4737 91.1475 21.5412C90.9562 21.6087 90.765 21.7099 90.585 21.8224H90.5962ZM91.6537 22.9137C91.7775 22.8799 91.89 22.8687 92.0137 22.8799C92.1262 22.8912 92.2387 22.9474 92.3287 23.0374C92.4187 23.1274 92.4637 23.2287 92.475 23.3524C92.4862 23.4649 92.475 23.5887 92.4412 23.7124C92.4075 23.8362 92.3512 23.9487 92.2837 24.0499C92.2162 24.1624 92.1375 24.2524 92.07 24.3199C92.0025 24.3874 91.9012 24.4662 91.8 24.5337C91.6987 24.6012 91.575 24.6574 91.4625 24.6912C91.3387 24.7249 91.2262 24.7362 91.1025 24.7249C90.99 24.7137 90.8775 24.6574 90.7875 24.5787C90.6975 24.4887 90.6412 24.3874 90.63 24.2637C90.6187 24.1512 90.63 24.0274 90.6637 23.9037C90.6975 23.7799 90.7537 23.6674 90.8212 23.5549C90.8887 23.4424 90.9562 23.3524 91.035 23.2849C91.1137 23.2174 91.2037 23.1387 91.305 23.0712C91.4175 23.0037 91.53 22.9474 91.6537 22.9137Z" fill="#0E1219"/>
<path d="M93.33 25.4227C93.1837 25.569 93.06 25.7265 92.9475 25.9065C92.835 26.0865 92.745 26.2665 92.6775 26.4577C92.61 26.649 92.5537 26.8515 92.5312 27.054C92.5087 27.2565 92.5087 27.459 92.5312 27.6615C92.565 27.864 92.6212 28.0552 92.7112 28.2352C92.8012 28.4152 92.925 28.5952 93.0825 28.7527C93.24 28.9102 93.4087 29.034 93.6 29.124C93.78 29.214 93.9712 29.2702 94.1737 29.304C94.3762 29.3377 94.5675 29.3377 94.7812 29.304C94.9837 29.2815 95.1862 29.2252 95.3775 29.1577C95.5687 29.0902 95.76 29.0002 95.9287 28.8877C96.1087 28.7752 96.2662 28.6515 96.4125 28.5052C96.5587 28.359 96.6825 28.2015 96.795 28.0215C96.9075 27.8415 96.9975 27.6615 97.0762 27.459C97.1437 27.2677 97.2 27.0652 97.2225 26.8627C97.245 26.6602 97.245 26.4577 97.2225 26.2552C97.1887 26.0527 97.1325 25.8615 97.0425 25.6815C96.9525 25.5015 96.8287 25.3215 96.6712 25.164C96.5137 25.0065 96.345 24.8827 96.1537 24.7927C95.9625 24.7027 95.7712 24.6465 95.58 24.6127C95.3775 24.579 95.1862 24.579 94.9725 24.6127C94.7587 24.6465 94.5675 24.6915 94.3762 24.759C94.185 24.8265 93.9937 24.9277 93.8137 25.0402C93.6337 25.1527 93.4762 25.2877 93.33 25.4227ZM93.8812 27.1102C93.915 26.9865 93.9712 26.874 94.0387 26.7615C94.1062 26.649 94.185 26.559 94.2525 26.4915C94.32 26.424 94.4212 26.3452 94.5225 26.2777C94.635 26.2102 94.7475 26.154 94.8712 26.1202C94.995 26.0865 95.1075 26.0752 95.2312 26.0865C95.3437 26.0977 95.4562 26.154 95.5462 26.244C95.6362 26.334 95.6812 26.4352 95.6925 26.559C95.7037 26.6715 95.6925 26.7952 95.6587 26.919C95.625 27.0427 95.5687 27.1552 95.5012 27.2565C95.4337 27.3577 95.355 27.459 95.2875 27.5265C95.22 27.594 95.1187 27.6727 95.0175 27.7402C94.905 27.8077 94.7925 27.864 94.68 27.8977C94.5675 27.9315 94.4437 27.9427 94.32 27.9315C94.2075 27.9202 94.095 27.864 94.005 27.7852C93.915 27.6952 93.8587 27.594 93.8475 27.4702C93.8362 27.3577 93.8475 27.234 93.8812 27.1102Z" fill="#0E1219"/>
<path d="M49.6462 72.2114C49.6125 72.3014 49.5787 72.3914 49.5337 72.4701C49.4887 72.5601 49.4437 72.6389 49.3987 72.7176C49.3537 72.7964 49.2975 72.8639 49.23 72.9201C49.1512 72.9989 49.0725 73.0551 48.9825 73.1001C48.8925 73.1451 48.8137 73.1676 48.7237 73.1676C48.6337 73.1676 48.5437 73.1564 48.465 73.1114C48.375 73.0664 48.2962 73.0101 48.2062 72.9089C48.0712 72.7626 47.9812 72.6164 47.9362 72.4589C47.8912 72.3014 47.8687 72.1551 47.8912 71.9976C47.9025 71.8514 47.9475 71.7051 48.0262 71.5589C48.105 71.4239 48.195 71.2889 48.3075 71.1764C48.3525 71.1314 48.3975 71.0864 48.4537 71.0526C48.4987 71.0076 48.555 70.9739 48.6225 70.9401C48.3187 70.5239 48.015 70.1189 47.7225 69.7026C47.5762 69.7476 47.4412 69.8151 47.3062 69.9051C47.1712 69.9951 47.0587 70.0964 46.9462 70.2089C46.665 70.4901 46.4625 70.8051 46.35 71.1426C46.2375 71.4801 46.2037 71.8176 46.2375 72.1664C46.2712 72.5151 46.3725 72.8639 46.5412 73.2126C46.71 73.5614 46.9237 73.8876 47.1937 74.1914C47.3962 74.4164 47.6325 74.5964 47.88 74.7201C48.1275 74.8439 48.3862 74.9114 48.6562 74.9339C48.915 74.9451 49.1737 74.9114 49.4325 74.8214C49.6912 74.7314 49.9162 74.5739 50.1187 74.3714C50.1862 74.3039 50.2537 74.2251 50.3212 74.1351C50.3887 74.0451 50.4562 73.9551 50.5125 73.8539C50.5687 73.7526 50.625 73.6626 50.67 73.5614C50.715 73.4601 50.76 73.3589 50.7825 73.2689C50.4337 72.8301 50.0737 72.3914 49.725 71.9414C49.7025 72.0201 49.68 72.1101 49.6462 72.2001V72.2114Z" fill="#0E1219"/>
<path d="M49.4212 67.869C50.0625 68.5327 50.7037 69.1965 51.345 69.8602L50.8162 70.389C50.2425 69.7477 49.6687 69.1065 49.1062 68.4652C48.7125 68.814 48.33 69.174 47.9362 69.5227C49.0612 70.7715 50.1862 72.0202 51.3 73.2802C51.66 72.9202 52.02 72.5602 52.38 72.2002C52.0312 71.8065 51.6825 71.424 51.3225 71.0302C51.5475 70.8052 51.6487 70.704 51.8737 70.479C52.2562 70.8727 52.65 71.2665 53.0325 71.6602C53.415 71.2327 53.7975 70.8165 54.18 70.389C52.9537 69.2077 51.7275 68.0265 50.5012 66.834L49.41 67.869H49.4212Z" fill="#0E1219"/>
<path d="M50.9512 66.6312C52.0987 67.7787 53.235 68.9262 54.3825 70.0737C54.7087 69.7137 55.0237 69.3537 55.35 69.0049C54.2812 67.7787 53.2012 66.5524 52.1325 65.3262C51.7387 65.7649 51.345 66.2037 50.9625 66.6424L50.9512 66.6312Z" fill="#0E1219"/>
<path d="M56.2612 65.4276C56.1825 65.5176 56.0925 65.6076 56.0025 65.6976C55.9237 65.7764 55.8562 65.8439 55.7775 65.9226C55.6987 66.0014 55.6312 66.0689 55.5525 66.1364C55.1812 65.7651 54.8325 65.3714 54.4837 64.9776C54.135 64.5839 53.7975 64.1901 53.4487 63.7964C53.0437 64.2014 52.6387 64.6064 52.2337 65.0114C52.8075 65.6076 53.3925 66.2039 53.9662 66.7889C54.5512 67.3739 55.125 67.9701 55.71 68.5551C56.3287 67.8239 56.9475 67.0926 57.5662 66.3614C57.2175 65.9676 56.8575 65.5626 56.5087 65.1689C56.4187 65.2589 56.3287 65.3489 56.25 65.4389L56.2612 65.4276Z" fill="#0E1219"/>
<path d="M58.4775 63.2112C58.3987 63.3012 58.3087 63.3912 58.2187 63.4812L57.9937 63.7062C57.915 63.785 57.8475 63.8525 57.7687 63.92C57.3975 63.5488 57.0262 63.1662 56.6775 62.7837C56.3287 62.4012 55.98 62.0075 55.62 61.625L54.405 62.84C54.99 63.425 55.5862 64.01 56.1712 64.5838C56.7675 65.1575 57.3525 65.7425 57.9487 66.3162C58.5675 65.585 59.1862 64.8538 59.805 64.1225C59.445 63.7288 59.085 63.3463 58.725 62.9525C58.635 63.0425 58.545 63.1325 58.4662 63.2225L58.4775 63.2112Z" fill="#0E1219"/>
<path d="M61.5374 58.7449C61.3012 58.9924 61.0649 59.2399 60.8287 59.4986C61.1099 59.8249 61.2449 59.9824 61.5262 60.3086C61.7624 60.0724 61.8862 59.9599 62.1224 59.7236C62.1899 59.8024 62.2349 59.8474 62.3024 59.9374C62.3024 60.0274 62.2687 60.1174 62.2124 60.1961C62.1674 60.2749 62.0999 60.3536 62.0437 60.4211C61.9537 60.5111 61.8524 60.5786 61.7399 60.6011C61.6274 60.6236 61.5262 60.6349 61.4137 60.6236C61.3012 60.6124 61.1999 60.5674 61.0987 60.4999C60.9974 60.4436 60.9074 60.3649 60.8174 60.2749C60.6824 60.1286 60.5924 59.9824 60.5362 59.8136C60.4799 59.6561 60.4574 59.4874 60.4687 59.3299C60.4687 59.1724 60.5249 59.0036 60.5924 58.8574C60.6599 58.6999 60.7612 58.5649 60.8962 58.4299C60.9862 58.3399 61.0874 58.2499 61.1999 58.1711C61.3124 58.0924 61.4249 58.0136 61.5487 57.9686C61.2562 57.6199 60.9749 57.2711 60.6824 56.9224C60.5812 56.9449 60.4912 56.9786 60.3899 57.0349C60.2887 57.0911 60.1987 57.1361 60.1087 57.2036C60.0187 57.2711 59.9287 57.3386 59.8499 57.4061C59.7712 57.4736 59.6924 57.5524 59.6249 57.6199C59.4449 57.7999 59.2987 58.0024 59.1862 58.2161C59.0737 58.4299 58.9949 58.6549 58.9499 58.8911C58.9049 59.1274 58.8824 59.3636 58.9049 59.6111C58.9162 59.8586 58.9612 60.0949 59.0399 60.3311C59.1074 60.5674 59.2087 60.8036 59.3324 61.0174C59.4562 61.2424 59.6024 61.4449 59.7824 61.6361C60.0074 61.8836 60.2549 62.0861 60.5362 62.2211C60.8174 62.3561 61.0987 62.4349 61.3912 62.4461C61.6837 62.4574 61.9762 62.4124 62.2574 62.2999C62.5387 62.1874 62.8087 62.0074 63.0449 61.7711C63.1687 61.6474 63.2924 61.5011 63.4049 61.3436C63.5174 61.1861 63.6187 61.0061 63.7087 60.8261C63.7874 60.6461 63.8549 60.4549 63.8999 60.2749C63.9449 60.0836 63.9562 59.9036 63.9337 59.7236C63.3712 59.1611 62.8087 58.5986 62.2574 58.0361C62.0212 58.2949 61.7849 58.5424 61.5487 58.7899L61.5374 58.7449Z" fill="#0E1219"/>
<path d="M66.24 56.3486C66.15 56.1348 66.0487 55.9323 65.925 55.7298C65.8012 55.5273 65.6775 55.3361 65.5425 55.1561C65.4075 54.9761 65.2725 54.8073 65.1262 54.6498C64.9912 54.4923 64.8562 54.3573 64.7325 54.2336C64.4962 53.9973 64.2487 53.7836 63.99 53.5698C63.6187 53.9411 63.2362 54.3236 62.865 54.6948C63 54.8186 63.135 54.9423 63.27 55.0661C63.405 55.1898 63.54 55.3136 63.6637 55.4486C63.6975 55.4823 63.7537 55.5386 63.8212 55.6061C63.8887 55.6736 63.9675 55.7636 64.0575 55.8648C64.1475 55.9661 64.2375 56.0673 64.3387 56.1911C64.44 56.3036 64.53 56.4273 64.6312 56.5511C64.7212 56.6748 64.8112 56.7986 64.89 56.9223C64.9687 57.0461 65.0362 57.1586 65.0812 57.2598C65.1262 57.3611 65.16 57.4623 65.16 57.5411C65.16 57.6198 65.1487 57.6873 65.1037 57.7436C65.0587 57.7886 65.0025 57.7998 64.935 57.7886C64.8675 57.7773 64.7887 57.7548 64.71 57.7211C64.6312 57.6873 64.5412 57.6311 64.4625 57.5748C64.3725 57.5186 64.2937 57.4511 64.2262 57.3948C64.1475 57.3273 64.08 57.2711 64.0237 57.2148C63.9675 57.1586 63.9225 57.1248 63.8887 57.0911C63.63 56.8323 63.3712 56.5398 63.1462 56.2473C62.9212 55.9548 62.685 55.6511 62.4712 55.3473C62.0775 55.7073 61.695 56.0673 61.3012 56.4273C61.4925 56.7086 61.6837 56.9673 61.8862 57.2373C62.0887 57.5073 62.3137 57.7436 62.5387 57.9798C62.685 58.1373 62.8537 58.2836 63.0225 58.4411C63.1912 58.5986 63.3825 58.7336 63.5737 58.8573C63.765 58.9811 63.9675 59.0823 64.17 59.1611C64.3725 59.2398 64.575 59.2848 64.7887 59.2848C64.9912 59.2848 65.205 59.2511 65.4075 59.1723C65.61 59.0936 65.8125 58.9586 66.0037 58.7673C66.1725 58.5986 66.2962 58.4298 66.375 58.2386C66.4537 58.0473 66.4987 57.8448 66.51 57.6423C66.51 57.4398 66.51 57.2261 66.4537 57.0123C66.3975 56.7986 66.3412 56.5848 66.2512 56.3711L66.24 56.3486Z" fill="#0E1219"/>
<path d="M67.3312 50.3413C66.915 50.7013 66.4987 51.0613 66.0937 51.4101C66.2625 51.9613 66.4312 52.5126 66.6 53.0638C66.1612 52.7826 65.7225 52.5013 65.295 52.2088C64.9462 52.6701 64.5862 53.1313 64.2375 53.5926C65.1037 53.9751 65.9587 54.3463 66.825 54.7176C67.3425 55.2351 67.8712 55.7526 68.3887 56.2701C68.7825 55.8763 69.1762 55.4826 69.57 55.0888C69.0525 54.5601 68.535 54.0426 68.0062 53.5138C67.7925 52.4563 67.5675 51.3988 67.3312 50.3413Z" fill="#0E1219"/>
<path d="M75.5212 43.9064C74.9025 43.2877 73.89 43.2877 73.2712 43.9064L69.1987 47.9789C68.58 48.5977 68.58 49.6102 69.1987 50.2289L70.74 51.7702C71.3587 52.3889 72.3712 52.3889 72.99 51.7702L77.0625 47.6977C77.6812 47.0789 77.6812 46.0664 77.0625 45.4477L75.5212 43.9064ZM73.7775 49.0589C73.755 49.1714 73.71 49.2839 73.665 49.3964C73.62 49.5089 73.5525 49.6102 73.485 49.7114C73.4175 49.8127 73.3387 49.9027 73.26 49.9814C73.1137 50.1277 72.945 50.2402 72.7762 50.3189C72.6075 50.3977 72.4275 50.4314 72.2362 50.4314C72.0562 50.4314 71.8762 50.3977 71.6962 50.3302C71.5162 50.2514 71.3587 50.1502 71.2125 50.0039C71.1 49.8914 71.01 49.7677 70.92 49.6327C70.8412 49.4977 70.7737 49.3627 70.7287 49.2277C70.6837 49.0927 70.6612 48.9464 70.65 48.8002C70.65 48.6539 70.65 48.5077 70.6837 48.3614C70.7175 48.2152 70.7737 48.0802 70.8412 47.9452C70.92 47.8102 71.01 47.6864 71.1337 47.5627C71.1787 47.5177 71.2237 47.4727 71.28 47.4277C71.3362 47.3827 71.3925 47.3377 71.4487 47.2927C71.505 47.2477 71.5725 47.2139 71.6287 47.1802C71.6962 47.1464 71.7525 47.1239 71.82 47.1127L72.3712 47.7427C72.2925 47.7764 72.2137 47.8214 72.1462 47.8777C72.0787 47.9339 72.0112 47.9902 71.955 48.0464C71.8762 48.1252 71.8087 48.2152 71.7525 48.3164C71.7075 48.4064 71.6737 48.5077 71.6625 48.5977C71.6625 48.6989 71.6625 48.7889 71.6962 48.8902C71.73 48.9914 71.7862 49.0814 71.8762 49.1602C71.9325 49.2164 71.9887 49.2614 72.0562 49.2952C72.1237 49.3289 72.1912 49.3514 72.2587 49.3627C72.3262 49.3627 72.3937 49.3627 72.4612 49.3514C72.5287 49.3289 72.5962 49.2952 72.6525 49.2389C72.6975 49.1939 72.7312 49.1602 72.7537 49.1039C72.7875 49.0477 72.81 49.0027 72.81 48.9464L72.6975 48.8227L72.3262 49.1827L71.8762 48.6989C72.0225 48.5414 72.1687 48.3839 72.3262 48.2264C72.4725 48.0689 72.63 47.9114 72.7762 47.7539L73.8 48.7439C73.8 48.8564 73.8 48.9689 73.7775 49.0814V49.0589ZM75.915 46.9214C75.8925 47.0339 75.8475 47.1464 75.8025 47.2589C75.7462 47.3714 75.69 47.4727 75.6225 47.5739C75.555 47.6752 75.4762 47.7652 75.3975 47.8439C75.2512 47.9902 75.0825 48.1027 74.9137 48.1814C74.7337 48.2602 74.5537 48.2939 74.3737 48.2939C74.1937 48.2939 74.0137 48.2602 73.845 48.1814C73.665 48.1139 73.5075 48.0014 73.3612 47.8552C73.2487 47.7427 73.1475 47.6189 73.0687 47.4839C72.99 47.3489 72.9225 47.2139 72.8775 47.0789C72.8325 46.9439 72.81 46.7977 72.7987 46.6514C72.7987 46.5052 72.7987 46.3589 72.8325 46.2127C72.8662 46.0664 72.9112 45.9314 72.99 45.7964C73.0687 45.6614 73.1587 45.5377 73.2825 45.4252C73.3275 45.3802 73.3725 45.3352 73.4287 45.2902C73.485 45.2452 73.5412 45.2002 73.5975 45.1552C73.6537 45.1102 73.7212 45.0764 73.7775 45.0427C73.845 45.0089 73.9012 44.9864 73.9687 44.9639L74.52 45.5939C74.4412 45.6277 74.3625 45.6727 74.295 45.7289C74.2275 45.7852 74.16 45.8414 74.1037 45.8977C74.025 45.9764 73.9575 46.0664 73.9012 46.1564C73.8562 46.2464 73.8225 46.3477 73.8112 46.4377C73.8112 46.5389 73.8112 46.6289 73.845 46.7302C73.8787 46.8202 73.935 46.9214 74.025 47.0002C74.0812 47.0564 74.1375 47.1014 74.205 47.1352C74.2725 47.1689 74.34 47.1914 74.4075 47.2027C74.475 47.2027 74.5425 47.2027 74.61 47.1914C74.6775 47.1689 74.745 47.1352 74.8012 47.0789C74.835 47.0452 74.88 47.0002 74.9025 46.9439C74.9362 46.8877 74.9587 46.8427 74.9587 46.7864L74.8462 46.6627L74.4637 47.0227L74.0137 46.5389C74.16 46.3814 74.3062 46.2239 74.4637 46.0664C74.61 45.9089 74.7675 45.7514 74.9137 45.5939L75.9375 46.5839C75.9487 46.6964 75.9375 46.8089 75.915 46.9214Z" fill="#0E1219"/>
</svg>
