<svg width="109" height="89" viewBox="0 0 109 89" fill="none" xmlns="http://www.w3.org/2000/svg">
<g clip-path="url(#clip0_125_13323)">
<path d="M107.893 28.5751L49.0888 87.3789C47.8626 88.6051 45.8713 88.6051 44.6338 87.3789C40.4263 83.1714 33.5863 83.1714 29.3788 87.3789C28.1526 88.6051 26.1613 88.6051 24.9238 87.3789L1.73756 64.1701C0.511309 62.9439 0.511309 60.9526 1.73756 59.7151L60.5413 0.922617C61.7676 -0.303633 63.7588 -0.303633 64.9963 0.922617C69.2038 5.13012 76.0438 5.13012 80.2513 0.922617C81.4776 -0.303633 83.4688 -0.303633 84.7063 0.922617L107.904 24.1201C109.13 25.3464 109.13 27.3376 107.904 28.5751H107.893ZM46.6588 80.9101L101.221 26.3476L82.2651 7.39137C76.4713 11.3626 68.7651 11.3626 62.9713 7.39137L8.40881 61.9426L27.3651 80.8989C33.1588 76.9276 40.8651 76.9276 46.6588 80.8989V80.9101Z" fill="white"/>
<path d="M82.4676 3.1499L105.665 26.3474L46.8613 85.1511C41.4163 79.7061 32.5963 79.7061 27.1513 85.1511L3.96509 61.9424L62.7576 3.1499C68.2026 8.5949 77.0226 8.5949 82.4676 3.1499Z" fill="#8B46BC"/>
<path d="M106.149 25.875L82.94 2.66623C82.6813 2.40748 82.2538 2.40748 81.9838 2.66623C76.8088 7.84123 68.405 7.84123 63.23 2.66623C62.9713 2.40748 62.5438 2.40748 62.2738 2.66623L3.48129 61.47C3.22254 61.7287 3.22254 62.1562 3.48129 62.4262L26.6788 85.6237C26.9375 85.8825 27.365 85.8825 27.635 85.6237C32.81 80.4487 41.2138 80.4487 46.3888 85.6237C46.6475 85.8825 47.075 85.8825 47.345 85.6237L106.149 26.82C106.408 26.5612 106.408 26.1337 106.149 25.8637V25.875ZM85.2463 45.8212L84.7738 45.3487C84.6388 45.2137 84.425 45.2137 84.3013 45.3487C84.1663 45.4837 84.1663 45.6975 84.3013 45.8212L84.7738 46.2937L46.8613 84.2062C41.3038 79.1325 32.7425 79.1325 27.1738 84.2062L4.91004 61.9425L52.6663 14.1862L53.1388 14.6587C53.2738 14.7937 53.4875 14.7937 53.6113 14.6587C53.7463 14.5237 53.7463 14.31 53.6113 14.1862L53.1388 13.7137L62.7688 4.08373C68.3263 9.15748 76.8875 9.15748 82.4563 4.08373L104.72 26.3475L85.2575 45.81L85.2463 45.8212Z" fill="#0E1219"/>
<path d="M75.1325 36.6526C75.2675 36.7876 75.4813 36.7876 75.605 36.6526C75.74 36.5176 75.74 36.3039 75.605 36.1801L73.7713 34.3464C73.6363 34.2114 73.4225 34.2114 73.2988 34.3464C73.1638 34.4814 73.1638 34.6951 73.2988 34.8189L75.1325 36.6526Z" fill="#0E1219"/>
<path d="M71.465 32.9851C71.6 33.1201 71.8138 33.1201 71.9375 32.9851C72.0725 32.8501 72.0725 32.6364 71.9375 32.5126L70.1038 30.6789C69.9688 30.5439 69.755 30.5439 69.6313 30.6789C69.4963 30.8139 69.4963 31.0276 69.6313 31.1514L71.465 32.9851Z" fill="#0E1219"/>
<path d="M80.6338 41.6701C80.4988 41.8051 80.4988 42.0188 80.6338 42.1426L82.4676 43.9763C82.6026 44.1113 82.8163 44.1113 82.9401 43.9763C83.0751 43.8413 83.0751 43.6276 82.9401 43.5038L81.1063 41.6701C80.9713 41.5351 80.7576 41.5351 80.6338 41.6701Z" fill="#0E1219"/>
<path d="M77.4387 38.0138C77.3037 37.8788 77.09 37.8788 76.9662 38.0138C76.8312 38.1488 76.8312 38.3626 76.9662 38.4863L78.8 40.3201C78.935 40.4551 79.1487 40.4551 79.2725 40.3201C79.4075 40.1851 79.4075 39.9713 79.2725 39.8476L77.4387 38.0138Z" fill="#0E1219"/>
<path d="M67.8088 29.3289C67.9438 29.4639 68.1575 29.4639 68.2813 29.3289C68.4163 29.1939 68.4163 28.9801 68.2813 28.8564L66.4475 27.0226C66.3125 26.8876 66.0988 26.8876 65.975 27.0226C65.84 27.1576 65.84 27.3714 65.975 27.4951L67.8088 29.3289Z" fill="#0E1219"/>
<path d="M56.8063 18.3377C56.9413 18.4727 57.1551 18.4727 57.2788 18.3377C57.4138 18.2027 57.4138 17.9889 57.2788 17.8652L55.4451 16.0314C55.3101 15.8964 55.0963 15.8964 54.9726 16.0314C54.8376 16.1664 54.8376 16.3802 54.9726 16.5039L56.8063 18.3377Z" fill="#0E1219"/>
<path d="M60.4738 21.9939C60.6088 22.1289 60.8226 22.1289 60.9463 21.9939C61.0813 21.8589 61.0813 21.6452 60.9463 21.5214L59.1126 19.6877C58.9776 19.5527 58.7638 19.5527 58.6401 19.6877C58.5051 19.8227 58.5051 20.0364 58.6401 20.1602L60.4738 21.9939Z" fill="#0E1219"/>
<path d="M64.1413 25.6614C64.2763 25.7964 64.49 25.7964 64.6138 25.6614C64.7488 25.5264 64.7488 25.3127 64.6138 25.1889L62.7801 23.3552C62.6451 23.2202 62.4313 23.2202 62.3075 23.3552C62.1725 23.4902 62.1725 23.7039 62.3075 23.8277L64.1413 25.6614Z" fill="#0E1219"/>
<path d="M21.515 60.0973C21.02 60.1086 20.5475 60.2211 20.0862 60.4348C19.625 60.6486 19.1862 60.9523 18.8037 61.3348C18.6125 61.5261 18.4325 61.7398 18.2525 61.9536C18.0837 62.1673 17.9262 62.4036 17.78 62.6398L16.6887 61.4248L20.12 58.3536L17.2737 55.7886L12.1775 61.1661L17.15 66.6561C17.285 66.4198 17.4537 66.1836 17.6337 65.9698C17.8137 65.7561 18.005 65.5423 18.1962 65.3511C18.2862 65.2611 18.41 65.1373 18.5562 65.0023C18.7025 64.8673 18.8712 64.7211 19.0512 64.5861C19.2312 64.4511 19.4225 64.3161 19.625 64.1923C19.8275 64.0686 20.0187 63.9786 20.21 63.9223C20.4012 63.8661 20.5925 63.8436 20.7725 63.8661C20.9525 63.8886 21.1212 63.9673 21.2562 64.1136C21.4025 64.2598 21.4812 64.4398 21.47 64.6311C21.47 64.8223 21.4137 65.0248 21.3237 65.2161C21.2337 65.4073 21.1212 65.5986 20.9862 65.7673C20.8512 65.9473 20.7275 66.0823 20.6262 66.1948C20.4462 66.3748 20.2437 66.5436 20.0187 66.7123C19.7937 66.8698 19.5687 67.0273 19.3212 67.1623C19.085 67.2973 18.8375 67.4211 18.59 67.5223C18.3425 67.6236 18.095 67.7136 17.8475 67.7811L20.1762 70.6048C20.5137 70.4586 20.8287 70.3123 21.155 70.1661C21.47 70.0086 21.785 69.8511 22.0775 69.6711C22.3812 69.4911 22.6737 69.2998 22.955 69.0973C23.2362 68.8948 23.5062 68.6586 23.765 68.3998C24.2937 67.8711 24.7212 67.3086 25.0587 66.7011C25.3962 66.0936 25.5987 65.4973 25.6662 64.8786C25.745 64.2598 25.6662 63.6411 25.4525 63.0336C25.2387 62.4148 24.8562 61.8298 24.2937 61.2673C23.8775 60.8511 23.4387 60.5473 22.955 60.3673C22.4712 60.1761 21.9875 60.0861 21.5037 60.1086L21.515 60.0973Z" fill="#0E1219"/>
<path d="M30.0087 50.5576C29.5475 50.2651 29.0637 50.0176 28.5575 49.8376C28.0512 49.6576 27.5337 49.5226 27.005 49.4551C26.4762 49.3876 25.9475 49.3876 25.43 49.4663C24.9125 49.5451 24.4175 49.7026 23.9337 49.9276C23.45 50.1638 23.0112 50.4788 22.595 50.8838C22.19 51.2888 21.8637 51.7388 21.6275 52.2226C21.3912 52.7063 21.2337 53.2126 21.1662 53.7188C21.0987 54.2251 21.0875 54.7538 21.155 55.2938C21.2225 55.8226 21.3462 56.3401 21.5375 56.8463C21.7175 57.3526 21.965 57.8363 22.2575 58.2976C22.55 58.7588 22.8875 59.1751 23.2587 59.5576C23.63 59.9401 24.0575 60.2663 24.5187 60.5588C24.98 60.8513 25.4637 61.0876 25.97 61.2788C26.4762 61.4701 26.9937 61.5938 27.5225 61.6501C28.0512 61.7176 28.58 61.7063 29.0862 61.6388C29.6037 61.5601 30.0987 61.4138 30.5825 61.1776C31.0662 60.9413 31.5162 60.6263 31.9325 60.2101C32.3375 59.8051 32.6637 59.3551 32.8887 58.8713C33.125 58.3876 33.2712 57.8926 33.35 57.3751C33.4287 56.8576 33.4287 56.3401 33.3612 55.8113C33.2937 55.2826 33.17 54.7651 32.9787 54.2588C32.7987 53.7526 32.5512 53.2688 32.2587 52.8076C31.9662 52.3463 31.6287 51.9301 31.2575 51.5476C30.8862 51.1651 30.4587 50.8388 29.9975 50.5463L30.0087 50.5576ZM29.2887 55.2038C29.4687 55.4851 29.6037 55.7888 29.705 56.0926C29.795 56.4076 29.8287 56.7113 29.8062 57.0151C29.7725 57.3188 29.6487 57.5888 29.4125 57.8251C29.1762 58.0613 28.9062 58.1963 28.6025 58.2301C28.2987 58.2638 27.9837 58.2301 27.68 58.1401C27.365 58.0501 27.0725 57.9151 26.78 57.7238C26.4987 57.5438 26.2625 57.3526 26.0712 57.1726C25.88 56.9926 25.7 56.7451 25.52 56.4638C25.34 56.1826 25.205 55.8788 25.1037 55.5638C25.0137 55.2488 24.98 54.9451 25.0137 54.6301C25.0475 54.3263 25.1825 54.0563 25.4187 53.8201C25.655 53.5838 25.925 53.4601 26.2287 53.4263C26.5325 53.3926 26.8475 53.4263 27.1512 53.5276C27.4662 53.6176 27.7587 53.7638 28.04 53.9438C28.3212 54.1238 28.5575 54.3151 28.7487 54.4951C28.94 54.6751 29.12 54.9226 29.3 55.2038H29.2887Z" fill="#0E1219"/>
<path d="M89.7688 24.6824C89.8363 24.7949 89.9151 24.9074 89.9938 25.0199C90.0726 25.1324 90.1626 25.2337 90.2638 25.3237C90.4663 25.5262 90.6801 25.6949 90.9163 25.8187C91.1413 25.9424 91.3776 26.0212 91.6138 26.0549C91.8501 26.0887 92.0863 26.0549 92.3226 25.9762C92.5588 25.8974 92.7838 25.7512 92.9976 25.5262C93.1551 25.3687 93.2676 25.1999 93.3463 25.0087C93.4138 24.8287 93.4476 24.6374 93.4476 24.4462C93.4476 24.2549 93.4026 24.0749 93.3126 23.8949C93.2226 23.7149 93.1101 23.5462 92.9638 23.3999C92.8851 23.3212 92.8063 23.2537 92.7276 23.1862C92.6488 23.1187 92.5588 23.0624 92.4576 23.0062L92.9301 22.5899L94.1113 23.9062L95.0901 22.8149L93.0201 20.8574L90.9163 22.7699C91.0063 22.8262 91.0963 22.8824 91.1863 22.9499C91.2651 23.0174 91.3438 23.0962 91.4226 23.1637C91.4563 23.1974 91.5013 23.2424 91.5576 23.2987C91.6138 23.3549 91.6701 23.4224 91.7151 23.4899C91.7713 23.5574 91.8163 23.6362 91.8613 23.7149C91.9063 23.7937 91.9401 23.8612 91.9626 23.9399C91.9851 24.0187 91.9963 24.0862 91.9851 24.1537C91.9851 24.2212 91.9401 24.2887 91.8951 24.3449C91.8388 24.4012 91.7713 24.4349 91.6926 24.4237C91.6138 24.4237 91.5463 24.4012 91.4676 24.3674C91.3888 24.3337 91.3213 24.2887 91.2538 24.2437C91.1863 24.1874 91.1301 24.1424 91.0963 24.1087C91.0288 24.0412 90.9613 23.9624 90.8938 23.8724C90.8263 23.7824 90.7701 23.7037 90.7251 23.6024C90.6688 23.5124 90.6238 23.4112 90.5901 23.3212C90.5451 23.2199 90.5226 23.1299 90.4888 23.0399L89.4088 23.9287C89.4651 24.0524 89.5213 24.1762 89.5776 24.2999C89.6338 24.4237 89.7013 24.5362 89.7688 24.6599V24.6824Z" fill="#0E1219"/>
<path d="M94.1338 24.7502C93.9538 24.8627 93.7963 24.9977 93.6501 25.1327C93.5038 25.2789 93.3801 25.4364 93.2676 25.6164C93.1551 25.7964 93.0651 25.9764 92.9976 26.1677C92.9301 26.3589 92.8738 26.5614 92.8513 26.7639C92.8288 26.9664 92.8288 27.1689 92.8513 27.3714C92.8851 27.5739 92.9414 27.7652 93.0314 27.9452C93.1214 28.1252 93.2451 28.3052 93.4026 28.4627C93.5601 28.6202 93.7289 28.7439 93.9201 28.8339C94.1001 28.9239 94.2913 28.9802 94.4938 29.0139C94.6963 29.0477 94.8876 29.0477 95.1013 29.0139C95.3038 28.9914 95.5063 28.9352 95.6976 28.8677C95.8888 28.8002 96.0801 28.7102 96.2489 28.5977C96.4289 28.4852 96.5864 28.3614 96.7326 28.2152C96.8789 28.0689 97.0026 27.9114 97.1151 27.7314C97.2276 27.5514 97.3176 27.3714 97.3963 27.1689C97.4638 26.9777 97.5201 26.7752 97.5426 26.5727C97.5651 26.3702 97.5651 26.1677 97.5426 25.9652C97.5089 25.7627 97.4526 25.5714 97.3626 25.3914C97.2726 25.2114 97.1488 25.0314 96.9913 24.8739C96.8338 24.7164 96.6651 24.5927 96.4738 24.5027C96.2826 24.4127 96.0913 24.3564 95.9001 24.3227C95.6976 24.2889 95.5064 24.2889 95.2926 24.3227C95.0789 24.3564 94.8876 24.4014 94.6963 24.4689C94.5051 24.5364 94.3138 24.6377 94.1338 24.7502ZM95.1913 25.8414C95.3151 25.8077 95.4276 25.7964 95.5513 25.8077C95.6638 25.8189 95.7763 25.8752 95.8663 25.9652C95.9563 26.0552 96.0014 26.1564 96.0126 26.2802C96.0239 26.3927 96.0126 26.5164 95.9788 26.6402C95.9451 26.7639 95.8888 26.8764 95.8213 26.9777C95.7538 27.0789 95.6751 27.1802 95.6076 27.2477C95.5401 27.3152 95.4388 27.3939 95.3376 27.4614C95.2251 27.5289 95.1126 27.5852 95.0001 27.6189C94.8764 27.6527 94.7639 27.6639 94.6401 27.6527C94.5276 27.6414 94.4151 27.5852 94.3251 27.5064C94.2351 27.4164 94.1789 27.3152 94.1676 27.1914C94.1564 27.0789 94.1676 26.9552 94.2014 26.8314C94.2351 26.7077 94.2914 26.5952 94.3589 26.4827C94.4264 26.3702 94.5051 26.2802 94.5726 26.2127C94.6401 26.1452 94.7414 26.0664 94.8426 25.9989C94.9551 25.9314 95.0676 25.8752 95.1913 25.8414Z" fill="#0E1219"/>
<path d="M49.9663 71.9213C49.9325 72.0113 49.8988 72.1014 49.8538 72.1801C49.8088 72.2701 49.7638 72.3488 49.7188 72.4276C49.6738 72.5063 49.6175 72.5738 49.55 72.6301C49.4713 72.7088 49.3925 72.7651 49.3025 72.8101C49.2125 72.8551 49.1338 72.8776 49.0438 72.8776C48.9538 72.8776 48.8638 72.8664 48.785 72.8214C48.695 72.7764 48.6163 72.7201 48.5263 72.6189C48.3913 72.4726 48.3013 72.3263 48.2563 72.1688C48.2113 72.0113 48.1888 71.8651 48.2113 71.7076C48.2225 71.5613 48.2675 71.4151 48.3463 71.2688C48.425 71.1226 48.515 70.9988 48.6275 70.8863C48.6725 70.8413 48.7175 70.7963 48.7738 70.7626C48.8188 70.7176 48.875 70.6838 48.9425 70.6501C48.6388 70.2338 48.335 69.8288 48.0425 69.4126C47.8963 69.4576 47.7613 69.5251 47.6263 69.6151C47.4913 69.7051 47.3788 69.8063 47.2663 69.9188C46.985 70.2001 46.7825 70.5151 46.67 70.8526C46.5575 71.1901 46.5238 71.5276 46.5575 71.8763C46.5913 72.2251 46.6925 72.5738 46.8613 72.9226C47.03 73.2713 47.2438 73.5976 47.5138 73.9013C47.7163 74.1263 47.9525 74.3064 48.2 74.4301C48.4475 74.5539 48.7063 74.6213 48.9763 74.6438C49.235 74.6551 49.4938 74.6213 49.7525 74.5313C50.0113 74.4413 50.2363 74.2838 50.4388 74.0813C50.5063 74.0138 50.5738 73.9351 50.6413 73.8451C50.7088 73.7551 50.7763 73.6651 50.8325 73.5638C50.8888 73.4626 50.945 73.3726 50.99 73.2713C51.035 73.1701 51.08 73.0688 51.1025 72.9788C50.7538 72.5401 50.3938 72.1013 50.045 71.6513C50.0225 71.7301 50 71.8201 49.9663 71.9101V71.9213Z" fill="#0E1219"/>
<path d="M49.7414 67.5789C50.3826 68.2427 51.0239 68.9064 51.6651 69.5702L51.1363 70.0989C50.5626 69.4577 49.9888 68.8164 49.4263 68.1752C49.0326 68.5239 48.6501 68.8839 48.2563 69.2327C49.3813 70.4814 50.5063 71.7302 51.6201 72.9902C51.9801 72.6302 52.3401 72.2702 52.7001 71.9102C52.3513 71.5164 52.0026 71.1339 51.6426 70.7402C51.8676 70.5152 51.9688 70.4139 52.1938 70.1889C52.5763 70.5827 52.9701 70.9764 53.3526 71.3702C53.7351 70.9427 54.1176 70.5264 54.5001 70.0989C53.2739 68.9177 52.0476 67.7364 50.8214 66.5439L49.7301 67.5789H49.7414Z" fill="#0E1219"/>
<path d="M51.2712 66.3411C52.4187 67.4886 53.555 68.6361 54.7025 69.7836C55.0287 69.4236 55.3437 69.0636 55.67 68.7149C54.6012 67.4886 53.5212 66.2624 52.4525 65.0361C52.0587 65.4749 51.665 65.9136 51.2825 66.3524L51.2712 66.3411Z" fill="#0E1219"/>
<path d="M56.5813 65.1376C56.5026 65.2276 56.4126 65.3176 56.3226 65.4076L56.0976 65.6326C56.0301 65.7113 55.9513 65.7788 55.8726 65.8463C55.5013 65.4751 55.1526 65.0813 54.8038 64.6876C54.4551 64.2938 54.1176 63.9001 53.7688 63.5063C53.3638 63.9113 52.9588 64.3163 52.5538 64.7213C53.1276 65.3176 53.7126 65.9138 54.2863 66.4988C54.8713 67.0838 55.4451 67.6801 56.0301 68.2651C56.6488 67.5338 57.2676 66.8026 57.8863 66.0713C57.5376 65.6776 57.1776 65.2726 56.8288 64.8788C56.7388 64.9688 56.6488 65.0588 56.5701 65.1488L56.5813 65.1376Z" fill="#0E1219"/>
<path d="M58.7976 62.9212C58.7189 63.0112 58.6289 63.1012 58.5389 63.1912L58.3139 63.4162C58.2351 63.495 58.1676 63.5625 58.0888 63.63C57.7176 63.2587 57.3463 62.8762 56.9976 62.4937C56.6488 62.1112 56.3001 61.7175 55.9401 61.335C55.5351 61.74 55.1301 62.145 54.7251 62.55C55.3101 63.135 55.9064 63.72 56.4914 64.2937C57.0764 64.8675 57.6726 65.4525 58.2688 66.0262C58.8876 65.295 59.5064 64.5637 60.1251 63.8325C59.7651 63.4387 59.4051 63.0562 59.0451 62.6625C58.9551 62.7525 58.8651 62.8425 58.7863 62.9325L58.7976 62.9212Z" fill="#0E1219"/>
<path d="M61.8575 58.4548C61.6213 58.7023 61.385 58.9498 61.1488 59.2086C61.43 59.5348 61.565 59.6923 61.8463 60.0186C62.0825 59.7823 62.2063 59.6698 62.4425 59.4336C62.51 59.5123 62.555 59.5573 62.6225 59.6473C62.6225 59.7373 62.5888 59.8273 62.5325 59.9061C62.4875 59.9848 62.42 60.0636 62.3638 60.1311C62.2738 60.2211 62.1725 60.2886 62.06 60.3111C61.9588 60.3448 61.8463 60.3448 61.7338 60.3336C61.6213 60.3111 61.52 60.2773 61.4188 60.2098C61.3175 60.1536 61.2275 60.0748 61.1375 59.9848C61.0025 59.8386 60.9125 59.6923 60.8563 59.5236C60.8 59.3548 60.7775 59.1973 60.7888 59.0398C60.7888 58.8823 60.845 58.7136 60.9125 58.5673C60.98 58.4098 61.0813 58.2748 61.2163 58.1398C61.3063 58.0498 61.4075 57.9598 61.52 57.8811C61.6325 57.8023 61.745 57.7236 61.8688 57.6786C61.5763 57.3298 61.295 56.9811 61.0025 56.6323C60.9013 56.6548 60.8113 56.6886 60.71 56.7448C60.6088 56.7898 60.5188 56.8461 60.4288 56.9136C60.3388 56.9811 60.2488 57.0486 60.17 57.1161C60.0913 57.1836 60.0125 57.2623 59.945 57.3298C59.765 57.5098 59.6188 57.7123 59.5063 57.9261C59.3938 58.1398 59.315 58.3648 59.27 58.6011C59.225 58.8373 59.2025 59.0736 59.225 59.3211C59.2475 59.5686 59.2813 59.8048 59.36 60.0411C59.4388 60.2773 59.5288 60.5136 59.6525 60.7273C59.7763 60.9411 59.9225 61.1548 60.1025 61.3461C60.3275 61.5936 60.575 61.7961 60.8563 61.9311C61.1375 62.0661 61.4188 62.1448 61.7113 62.1561C62.0038 62.1673 62.2963 62.1223 62.5775 62.0098C62.8588 61.8973 63.1288 61.7173 63.365 61.4811C63.4888 61.3573 63.6125 61.2111 63.725 61.0536C63.8375 60.8848 63.9388 60.7161 64.0288 60.5361C64.1075 60.3561 64.175 60.1648 64.22 59.9848C64.265 59.7936 64.2763 59.6136 64.2538 59.4336C63.6913 58.8711 63.1288 58.3086 62.5775 57.7461C62.3413 58.0048 62.105 58.2523 61.8688 58.4998L61.8575 58.4548Z" fill="#0E1219"/>
<path d="M66.5601 56.0585C66.4701 55.8448 66.3688 55.6423 66.2451 55.4398C66.1213 55.2373 65.9976 55.046 65.8626 54.866C65.7276 54.686 65.5926 54.5173 65.4463 54.3598C65.3001 54.2023 65.1763 54.0673 65.0526 53.9435C64.8163 53.7073 64.5688 53.4935 64.3101 53.2798C63.9388 53.651 63.5563 54.0335 63.1851 54.4048C63.3201 54.5285 63.4551 54.6523 63.5901 54.776C63.7251 54.8998 63.8601 55.0235 63.9838 55.1585C64.0176 55.1923 64.0738 55.2485 64.1413 55.316C64.2088 55.3948 64.2876 55.4735 64.3776 55.5748C64.4676 55.676 64.5576 55.7773 64.6588 55.901C64.7601 56.0135 64.8501 56.1373 64.9513 56.261C65.0413 56.3848 65.1313 56.5085 65.2101 56.6323C65.2888 56.756 65.3563 56.8685 65.4013 56.9698C65.4463 57.071 65.4801 57.1723 65.4801 57.251C65.4801 57.3298 65.4688 57.3973 65.4238 57.4535C65.3788 57.4985 65.3226 57.5098 65.2551 57.4985C65.1876 57.4873 65.1088 57.4648 65.0301 57.431C64.9513 57.3973 64.8613 57.341 64.7826 57.2848C64.7038 57.2285 64.6138 57.161 64.5463 57.1048C64.4676 57.0373 64.4001 56.981 64.3438 56.9248C64.2876 56.8685 64.2426 56.8348 64.2088 56.801C63.9501 56.5423 63.6913 56.2498 63.4663 55.9573C63.2413 55.6648 63.0051 55.361 62.7913 55.0573C62.3976 55.4173 62.0151 55.7773 61.6213 56.1373C61.8126 56.4185 62.0038 56.6773 62.2063 56.9473C62.4088 57.206 62.6338 57.4535 62.8588 57.6898C63.0051 57.8473 63.1738 57.9935 63.3426 58.151C63.5226 58.3085 63.7026 58.4435 63.8938 58.5673C64.0851 58.691 64.2876 58.7923 64.4901 58.871C64.6926 58.9498 64.8951 58.9948 65.1088 58.9948C65.3113 58.9948 65.5251 58.961 65.7276 58.8823C65.9301 58.8035 66.1326 58.6685 66.3238 58.4773C66.4926 58.3085 66.6163 58.1398 66.6951 57.9485C66.7738 57.7573 66.8188 57.5548 66.8301 57.3523C66.8301 57.1498 66.8301 56.936 66.7738 56.7223C66.7288 56.5085 66.6613 56.2948 66.5713 56.081L66.5601 56.0585Z" fill="#0E1219"/>
<path d="M67.6512 50.0513C67.235 50.4113 66.8187 50.7713 66.4137 51.12C66.5825 51.6713 66.7512 52.2225 66.92 52.7738C66.4812 52.4925 66.0425 52.2113 65.615 51.9188C65.2662 52.38 64.9062 52.8413 64.5575 53.3025C65.4237 53.685 66.2787 54.0563 67.145 54.4275C67.6625 54.945 68.1912 55.4625 68.7087 55.98C69.1025 55.5863 69.4962 55.1925 69.89 54.7988C69.3725 54.27 68.855 53.7525 68.3262 53.2238C68.1125 52.1663 67.8875 51.1088 67.6512 50.0513Z" fill="#0E1219"/>
<path d="M75.8413 43.6164C75.2225 42.9977 74.21 42.9977 73.5913 43.6164L69.5188 47.6889C68.9 48.3077 68.9 49.3202 69.5188 49.9389L71.06 51.4802C71.6787 52.0989 72.6913 52.0989 73.31 51.4802L77.3825 47.4077C78.0012 46.7889 78.0012 45.7764 77.3825 45.1577L75.8413 43.6164ZM74.0975 48.7689C74.075 48.8814 74.03 48.9939 73.985 49.1064C73.94 49.2189 73.8725 49.3202 73.805 49.4214C73.7375 49.5227 73.6588 49.6127 73.58 49.6914C73.4338 49.8377 73.265 49.9502 73.0963 50.0289C72.9275 50.1077 72.7475 50.1414 72.5563 50.1414C72.3763 50.1414 72.1963 50.1077 72.0163 50.0402C71.8363 49.9614 71.6788 49.8602 71.5325 49.7139C71.42 49.6014 71.33 49.4777 71.24 49.3427C71.1612 49.2077 71.0938 49.0727 71.0488 48.9377C71.0038 48.8027 70.9813 48.6564 70.97 48.5102C70.97 48.3639 70.97 48.2177 71.0037 48.0714C71.0375 47.9252 71.0937 47.7902 71.1612 47.6552C71.24 47.5202 71.33 47.3964 71.4538 47.2727C71.4988 47.2277 71.5437 47.1827 71.6 47.1377C71.6562 47.0927 71.7125 47.0477 71.7687 47.0027C71.825 46.9577 71.8925 46.9239 71.9487 46.8902C72.0162 46.8564 72.0725 46.8339 72.14 46.8227L72.6912 47.4527C72.6125 47.4864 72.5337 47.5314 72.4662 47.5877C72.3987 47.6439 72.3313 47.7002 72.275 47.7564C72.1963 47.8352 72.1288 47.9252 72.0725 48.0264C72.0275 48.1164 71.9937 48.2177 71.9825 48.3077C71.9825 48.4089 71.9825 48.4989 72.0163 48.6002C72.05 48.7014 72.1063 48.7914 72.1963 48.8702C72.2525 48.9264 72.3088 48.9714 72.3763 49.0052C72.4438 49.0389 72.5113 49.0614 72.5788 49.0727C72.6463 49.0727 72.7138 49.0727 72.7813 49.0614C72.8488 49.0389 72.9162 49.0052 72.9725 48.9489C73.0175 48.9039 73.0513 48.8702 73.0738 48.8139C73.1075 48.7577 73.13 48.7127 73.13 48.6564L73.0175 48.5327L72.6462 48.8927L72.1963 48.4089C72.3425 48.2514 72.4887 48.0939 72.6462 47.9364C72.7925 47.7789 72.95 47.6214 73.0963 47.4639L74.12 48.4539C74.12 48.5664 74.12 48.6789 74.0975 48.7914V48.7689ZM76.235 46.6314C76.2125 46.7439 76.1675 46.8564 76.1225 46.9689C76.0663 47.0814 76.01 47.1827 75.9425 47.2839C75.875 47.3852 75.7963 47.4752 75.7175 47.5539C75.5713 47.7002 75.4025 47.8127 75.2338 47.8914C75.065 47.9702 74.8737 48.0039 74.6937 48.0039C74.5137 48.0039 74.3337 47.9702 74.165 47.8914C73.985 47.8127 73.8275 47.7114 73.6812 47.5652C73.5687 47.4527 73.4675 47.3289 73.3888 47.1939C73.31 47.0589 73.2425 46.9239 73.1975 46.7889C73.1525 46.6539 73.13 46.5077 73.1187 46.3614C73.1187 46.2152 73.1188 46.0689 73.1525 45.9227C73.1863 45.7764 73.2313 45.6414 73.31 45.5064C73.3888 45.3714 73.4787 45.2477 73.6025 45.1352C73.6475 45.0902 73.6925 45.0452 73.7488 45.0002C73.805 44.9552 73.8613 44.9102 73.9175 44.8652C73.9738 44.8202 74.0412 44.7864 74.0975 44.7527C74.165 44.7189 74.2212 44.6964 74.2887 44.6739L74.84 45.3039C74.7613 45.3377 74.6825 45.3827 74.615 45.4389C74.5475 45.4952 74.48 45.5514 74.4238 45.6077C74.345 45.6864 74.2775 45.7764 74.2213 45.8664C74.1763 45.9564 74.1425 46.0577 74.1312 46.1477C74.1312 46.2489 74.1312 46.3389 74.165 46.4402C74.1987 46.5302 74.255 46.6314 74.345 46.7102C74.4013 46.7664 74.4575 46.8114 74.525 46.8452C74.5925 46.8789 74.66 46.9014 74.7275 46.9127C74.795 46.9127 74.8625 46.9127 74.93 46.9014C74.9975 46.8789 75.065 46.8452 75.1213 46.7889C75.155 46.7552 75.2 46.7102 75.2225 46.6539C75.2562 46.5977 75.2788 46.5527 75.2788 46.4964L75.1662 46.3727L74.7838 46.7327L74.3337 46.2489C74.48 46.0914 74.6263 45.9339 74.7838 45.7764C74.93 45.6189 75.0875 45.4614 75.2338 45.3039L76.2575 46.2939C76.2687 46.4064 76.2575 46.5189 76.235 46.6314Z" fill="#0E1219"/>
</g>
<defs>
<clipPath id="clip0_125_13323">
<rect width="108" height="88.29" fill="white" transform="translate(0.815063)"/>
</clipPath>
</defs>
</svg>
