<svg width="109" height="89" viewBox="0 0 109 89" fill="none" xmlns="http://www.w3.org/2000/svg">
<g clip-path="url(#clip0_125_13239)">
<path d="M107.903 28.5751L49.0988 87.3789C47.8725 88.6051 45.8813 88.6051 44.6438 87.3789C40.4363 83.1714 33.5963 83.1714 29.3888 87.3789C28.1625 88.6051 26.1713 88.6051 24.9338 87.3789L1.74751 64.1701C0.521257 62.9439 0.521257 60.9526 1.74751 59.7151L60.5513 0.922617C61.7775 -0.303633 63.7688 -0.303633 65.0063 0.922617C69.2138 5.13012 76.0538 5.13012 80.2613 0.922617C81.4875 -0.303633 83.4788 -0.303633 84.7163 0.922617L107.914 24.1201C109.14 25.3464 109.14 27.3376 107.914 28.5751H107.903ZM46.6688 80.9101L101.231 26.3476L82.275 7.39137C76.4813 11.3626 68.775 11.3626 62.9813 7.39137L8.41876 61.9426L27.375 80.8989C33.1688 76.9276 40.875 76.9276 46.6688 80.8989V80.9101Z" fill="white"/>
<path d="M82.4775 3.1499L105.675 26.3474L46.8713 85.1511C41.4263 79.7061 32.6063 79.7061 27.1613 85.1511L3.97504 61.9424L62.7675 3.1499C68.2125 8.5949 77.0325 8.5949 82.4775 3.1499Z" fill="#E8E349"/>
<path d="M106.159 25.875L82.95 2.66623C82.6912 2.40748 82.2637 2.40748 81.9937 2.66623C76.8187 7.84123 68.415 7.84123 63.24 2.66623C62.9812 2.40748 62.5537 2.40748 62.2837 2.66623L3.49124 61.47C3.23249 61.7287 3.23249 62.1562 3.49124 62.4262L26.6887 85.6237C26.9475 85.8825 27.375 85.8825 27.645 85.6237C32.82 80.4487 41.2237 80.4487 46.3987 85.6237C46.6575 85.8825 47.085 85.8825 47.355 85.6237L106.159 26.82C106.417 26.5612 106.417 26.1337 106.159 25.8637V25.875ZM85.2562 45.8212L84.7837 45.3487C84.6487 45.2137 84.435 45.2137 84.3112 45.3487C84.1762 45.4837 84.1762 45.6975 84.3112 45.8212L84.7837 46.2937L46.8712 84.2062C41.3137 79.1325 32.7525 79.1325 27.1837 84.2062L4.91999 61.9425L52.6762 14.1862L53.1487 14.6587C53.2837 14.7937 53.4975 14.7937 53.6212 14.6587C53.7562 14.5237 53.7562 14.31 53.6212 14.1862L53.1487 13.7137L62.7787 4.08373C68.3362 9.15748 76.8975 9.15748 82.4662 4.08373L104.73 26.3475L85.2675 45.81L85.2562 45.8212Z" fill="#0E1219"/>
<path d="M75.1425 36.6526C75.2775 36.7876 75.4913 36.7876 75.615 36.6526C75.75 36.5176 75.75 36.3039 75.615 36.1801L73.7812 34.3464C73.6462 34.2114 73.4325 34.2114 73.3087 34.3464C73.185 34.4814 73.1737 34.6951 73.3087 34.8189L75.1425 36.6526Z" fill="#0E1219"/>
<path d="M77.4487 38.0138C77.3137 37.8788 77.1 37.8788 76.9762 38.0138C76.8525 38.1488 76.8412 38.3626 76.9762 38.4863L78.81 40.3201C78.945 40.4551 79.1587 40.4551 79.2825 40.3201C79.4175 40.1851 79.4175 39.9713 79.2825 39.8476L77.4487 38.0138Z" fill="#0E1219"/>
<path d="M71.475 32.9851C71.61 33.1201 71.8237 33.1201 71.9475 32.9851C72.0825 32.8501 72.0825 32.6364 71.9475 32.5126L70.1137 30.6789C69.9787 30.5439 69.765 30.5439 69.6412 30.6789C69.5062 30.8139 69.5062 31.0276 69.6412 31.1514L71.475 32.9851Z" fill="#0E1219"/>
<path d="M80.6437 41.6701C80.5087 41.8051 80.5087 42.0188 80.6437 42.1426L82.4775 43.9763C82.6125 44.1113 82.8262 44.1113 82.95 43.9763C83.085 43.8413 83.085 43.6276 82.95 43.5038L81.1162 41.6701C80.9812 41.5351 80.7675 41.5351 80.6437 41.6701Z" fill="#0E1219"/>
<path d="M67.8187 29.3289C67.9537 29.4639 68.1675 29.4639 68.2912 29.3289C68.4262 29.1939 68.4262 28.9801 68.2912 28.8564L66.4575 27.0226C66.3225 26.8876 66.1087 26.8876 65.985 27.0226C65.85 27.1576 65.85 27.3714 65.985 27.4951L67.8187 29.3289Z" fill="#0E1219"/>
<path d="M56.8162 18.3377C56.9512 18.4727 57.165 18.4727 57.2887 18.3377C57.4237 18.2027 57.4237 17.9889 57.2887 17.8652L55.455 16.0314C55.32 15.8964 55.1062 15.8964 54.9825 16.0314C54.8475 16.1664 54.8475 16.3802 54.9825 16.5039L56.8162 18.3377Z" fill="#0E1219"/>
<path d="M60.4838 21.9939C60.6188 22.1289 60.8325 22.1289 60.9563 21.9939C61.0913 21.8589 61.0913 21.6452 60.9563 21.5214L59.1225 19.6877C58.9875 19.5527 58.7738 19.5527 58.65 19.6877C58.515 19.8227 58.515 20.0364 58.65 20.1602L60.4838 21.9939Z" fill="#0E1219"/>
<path d="M64.1512 25.6614C64.2862 25.7964 64.5 25.7964 64.6237 25.6614C64.7587 25.5264 64.7587 25.3127 64.6237 25.1889L62.79 23.3552C62.655 23.2202 62.4412 23.2202 62.3175 23.3552C62.1825 23.4902 62.1825 23.7039 62.3175 23.8277L64.1512 25.6614Z" fill="#0E1219"/>
<path d="M22.9313 60.3112C22.4475 60.1199 21.9638 60.0299 21.48 60.0524C20.9963 60.0637 20.5125 60.1762 20.0513 60.3899C19.59 60.6037 19.1513 60.9074 18.7688 61.2899C18.5775 61.4812 18.3975 61.6949 18.2175 61.9087C18.0488 62.1224 17.8913 62.3587 17.745 62.5949L16.6538 61.3799L20.085 58.3087L17.2388 55.7437L12.1425 61.1212L17.115 66.5999C17.25 66.3637 17.4188 66.1274 17.5988 65.9137C17.7788 65.6999 17.97 65.4862 18.1613 65.2949C18.2513 65.2049 18.375 65.0812 18.5213 64.9462C18.6675 64.8112 18.8363 64.6649 19.0163 64.5299C19.1963 64.3949 19.3875 64.2599 19.59 64.1362C19.7925 64.0124 19.9838 63.9224 20.175 63.8662C20.3663 63.8099 20.5575 63.7874 20.7375 63.8099C20.9175 63.8324 21.0863 63.9224 21.2213 64.0574C21.3675 64.2037 21.4463 64.3837 21.435 64.5749C21.4238 64.7662 21.3788 64.9687 21.2888 65.1599C21.1988 65.3512 21.0863 65.5424 20.9513 65.7112C20.8163 65.8912 20.6925 66.0262 20.5913 66.1387C20.4113 66.3187 20.2088 66.4874 19.9838 66.6562C19.7588 66.8137 19.5338 66.9712 19.2863 67.1062C19.05 67.2412 18.8025 67.3649 18.555 67.4662C18.3075 67.5674 18.06 67.6574 17.8125 67.7249L20.1413 70.5487C20.4788 70.4024 20.7938 70.2562 21.12 70.1099C21.435 69.9524 21.75 69.7949 22.0538 69.6149C22.3575 69.4349 22.65 69.2437 22.9313 69.0412C23.2125 68.8274 23.4825 68.6024 23.7413 68.3437C24.27 67.8149 24.6975 67.2524 25.035 66.6449C25.3725 66.0487 25.575 65.4412 25.6425 64.8224C25.7213 64.2037 25.6425 63.5849 25.4288 62.9774C25.215 62.3587 24.8325 61.7737 24.27 61.2112C23.8538 60.7949 23.415 60.4912 22.9313 60.2999V60.3112Z" fill="#0E1219"/>
<path d="M92.9963 27.9002C93.0638 28.0127 93.1425 28.1252 93.2212 28.2377C93.3 28.3502 93.39 28.4514 93.4913 28.5414C93.6938 28.7439 93.9075 28.9127 94.1437 29.0364C94.3687 29.1602 94.605 29.2389 94.8413 29.2727C95.0775 29.3064 95.3137 29.2727 95.55 29.1939C95.7862 29.1152 96.0113 28.9689 96.225 28.7439C96.3825 28.5864 96.495 28.4177 96.5738 28.2264C96.6413 28.0464 96.675 27.8552 96.675 27.6639C96.675 27.4727 96.63 27.2927 96.54 27.1127C96.45 26.9327 96.3375 26.7639 96.1912 26.6177C96.1125 26.5389 96.0337 26.4714 95.955 26.4039C95.8762 26.3364 95.7863 26.2802 95.685 26.2239L96.1575 25.8077L97.3388 27.1239L98.3175 26.0327L96.2475 24.0752L94.1437 25.9877C94.2337 26.0439 94.3238 26.1002 94.4025 26.1677C94.4813 26.2352 94.56 26.3139 94.6388 26.3814C94.6725 26.4152 94.7175 26.4602 94.7738 26.5164C94.83 26.5727 94.8863 26.6402 94.9313 26.7077C94.9763 26.7752 95.0325 26.8539 95.0775 26.9327C95.1225 27.0114 95.1563 27.0789 95.1788 27.1577C95.2013 27.2364 95.2125 27.3039 95.2013 27.3714C95.2013 27.4389 95.1562 27.5064 95.1112 27.5627C95.055 27.6189 94.9875 27.6527 94.9087 27.6414C94.83 27.6414 94.7625 27.6189 94.6838 27.5852C94.605 27.5514 94.5375 27.5064 94.47 27.4614C94.4025 27.4052 94.3463 27.3602 94.3125 27.3264C94.245 27.2589 94.1775 27.1802 94.11 27.0902C94.0425 27.0002 93.9862 26.9214 93.9412 26.8202C93.8962 26.7189 93.84 26.6289 93.8063 26.5389C93.7613 26.4377 93.7387 26.3477 93.705 26.2577L92.625 27.1464C92.6813 27.2702 92.7375 27.3939 92.7938 27.5177C92.85 27.6414 92.9175 27.7539 92.985 27.8777L92.9963 27.9002Z" fill="#0E1219"/>
<path d="M49.9762 71.9213C49.9425 72.0113 49.9087 72.1014 49.8637 72.1801C49.8187 72.2701 49.7737 72.3488 49.7287 72.4276C49.6837 72.5063 49.6275 72.5738 49.56 72.6301C49.4812 72.7088 49.4025 72.7651 49.3125 72.8101C49.2225 72.8551 49.1437 72.8776 49.0537 72.8776C48.9637 72.8776 48.8737 72.8664 48.795 72.8214C48.705 72.7764 48.6262 72.7201 48.5362 72.6189C48.4012 72.4726 48.3112 72.3263 48.2662 72.1688C48.2212 72.0113 48.1987 71.8651 48.2212 71.7076C48.2325 71.5613 48.2775 71.4151 48.3562 71.2688C48.435 71.1338 48.525 70.9988 48.6375 70.8863C48.6825 70.8413 48.7275 70.7963 48.7837 70.7626C48.8287 70.7176 48.885 70.6838 48.9525 70.6501C48.6487 70.2338 48.345 69.8288 48.0525 69.4126C47.9062 69.4576 47.7712 69.5251 47.6362 69.6151C47.5012 69.7051 47.3887 69.8063 47.2762 69.9188C46.995 70.2001 46.7925 70.5151 46.68 70.8526C46.5675 71.1901 46.5337 71.5276 46.5675 71.8763C46.6012 72.2251 46.7025 72.5738 46.8712 72.9226C47.04 73.2713 47.2537 73.5976 47.5237 73.9013C47.7262 74.1263 47.9625 74.3064 48.21 74.4301C48.4575 74.5539 48.7162 74.6213 48.9862 74.6438C49.2562 74.6663 49.5037 74.6213 49.7625 74.5313C50.0212 74.4413 50.2462 74.2838 50.4487 74.0813C50.5162 74.0138 50.5837 73.9351 50.6512 73.8451C50.7187 73.7551 50.7862 73.6651 50.8425 73.5638C50.8987 73.4626 50.955 73.3726 51 73.2713C51.045 73.1701 51.09 73.0688 51.1125 72.9788C50.7637 72.5401 50.4037 72.1013 50.055 71.6513C50.0325 71.7301 50.01 71.8201 49.9762 71.9101V71.9213Z" fill="#0E1219"/>
<path d="M49.7512 67.5789C50.3925 68.2427 51.0337 68.9064 51.675 69.5702L51.1462 70.0989C50.5725 69.4577 49.9987 68.8164 49.4362 68.1752C49.0425 68.5239 48.66 68.8839 48.2662 69.2327C49.3912 70.4814 50.5162 71.7302 51.63 72.9902C51.99 72.6302 52.35 72.2702 52.71 71.9102C52.3612 71.5164 52.0125 71.1339 51.6525 70.7402C51.8775 70.5152 51.9787 70.4139 52.2037 70.1889C52.5862 70.5827 52.98 70.9764 53.3625 71.3702C53.745 70.9427 54.1275 70.5264 54.51 70.0989C53.2837 68.9177 52.0575 67.7364 50.8312 66.5439C50.4712 66.8927 50.1 67.2302 49.74 67.5789H49.7512Z" fill="#0E1219"/>
<path d="M51.2812 66.3411C52.4288 67.4886 53.565 68.6361 54.7125 69.7836C55.0388 69.4236 55.3537 69.0636 55.68 68.7149C54.6112 67.4886 53.5313 66.2624 52.4625 65.0361C52.0688 65.4749 51.675 65.9136 51.2925 66.3524L51.2812 66.3411Z" fill="#0E1219"/>
<path d="M56.5912 65.1376C56.5125 65.2276 56.4225 65.3176 56.3325 65.4076C56.2537 65.4863 56.1862 65.5538 56.1075 65.6326C56.04 65.7113 55.9612 65.7788 55.8825 65.8463C55.5112 65.4751 55.1625 65.0813 54.8137 64.6876C54.465 64.2938 54.1275 63.9001 53.7787 63.5063C53.3737 63.9113 52.9687 64.3163 52.5637 64.7213C53.1375 65.3176 53.7225 65.9138 54.2962 66.4988C54.8812 67.0838 55.455 67.6801 56.04 68.2651C56.6587 67.5338 57.2775 66.8026 57.8962 66.0713C57.5475 65.6776 57.1875 65.2726 56.8387 64.8788C56.7487 64.9688 56.6587 65.0588 56.58 65.1488L56.5912 65.1376Z" fill="#0E1219"/>
<path d="M58.8075 62.9212C58.7287 63.0112 58.6387 63.1012 58.5487 63.1912L58.3237 63.4162C58.245 63.4837 58.1775 63.5625 58.0987 63.63C57.7275 63.2587 57.3562 62.8762 57.0075 62.4937C56.6587 62.1112 56.31 61.7175 55.95 61.335L54.735 62.55C55.32 63.135 55.9162 63.72 56.5012 64.2937C57.0975 64.8675 57.6825 65.4525 58.2787 66.0262C58.8975 65.295 59.5162 64.5637 60.135 63.8325C59.775 63.4387 59.415 63.0562 59.055 62.6625C58.965 62.7525 58.875 62.8425 58.7962 62.9325L58.8075 62.9212Z" fill="#0E1219"/>
<path d="M61.8675 58.4548C61.6313 58.7023 61.395 58.9498 61.1588 59.2086C61.44 59.5348 61.575 59.6923 61.8563 60.0186C62.0925 59.7823 62.2163 59.6698 62.4525 59.4336C62.52 59.5123 62.565 59.5573 62.6325 59.6473C62.6325 59.7373 62.5988 59.8273 62.5425 59.9061C62.4975 59.9848 62.43 60.0636 62.3738 60.1311C62.2838 60.2211 62.1825 60.2886 62.07 60.3111C61.9688 60.3448 61.8563 60.3448 61.7438 60.3336C61.6313 60.3223 61.53 60.2773 61.4288 60.2098C61.3275 60.1536 61.2375 60.0748 61.1475 59.9848C61.0125 59.8386 60.9225 59.6923 60.8663 59.5236C60.81 59.3548 60.7875 59.1973 60.7988 59.0398C60.7988 58.8823 60.855 58.7136 60.9225 58.5673C60.99 58.4098 61.0913 58.2748 61.2263 58.1398C61.3163 58.0498 61.4175 57.9598 61.53 57.8811C61.6425 57.8023 61.755 57.7236 61.8788 57.6786C61.5863 57.3298 61.305 56.9811 61.0125 56.6323C60.9113 56.6548 60.8213 56.6886 60.72 56.7448C60.6188 56.8011 60.5288 56.8461 60.4388 56.9136C60.3488 56.9811 60.2588 57.0486 60.18 57.1161C60.1013 57.1836 60.0225 57.2623 59.955 57.3298C59.775 57.5098 59.6288 57.7123 59.5163 57.9261C59.4038 58.1398 59.325 58.3648 59.28 58.6011C59.235 58.8373 59.2125 59.0736 59.235 59.3211C59.2575 59.5686 59.2913 59.8048 59.37 60.0411C59.4375 60.2773 59.5388 60.5136 59.6625 60.7386C59.7863 60.9636 59.9325 61.1661 60.1125 61.3573C60.3375 61.6048 60.585 61.8073 60.8663 61.9423C61.1475 62.0773 61.4288 62.1561 61.7213 62.1673C62.0138 62.1786 62.3063 62.1336 62.5875 62.0211C62.8688 61.9086 63.1388 61.7286 63.375 61.4923C63.4988 61.3686 63.6225 61.2223 63.735 61.0648C63.8475 60.9073 63.9488 60.7273 64.0388 60.5473C64.1175 60.3673 64.185 60.1761 64.23 59.9961C64.275 59.8048 64.2863 59.6248 64.2638 59.4448C63.7013 58.8823 63.1388 58.3198 62.5875 57.7573C62.3513 58.0161 62.115 58.2636 61.8788 58.5111L61.8675 58.4548Z" fill="#0E1219"/>
<path d="M66.57 56.0585C66.48 55.8448 66.3787 55.6423 66.255 55.4398C66.1312 55.2373 66.0075 55.046 65.8725 54.866C65.7375 54.686 65.6025 54.5173 65.4562 54.3598C65.3212 54.2023 65.1862 54.0673 65.0625 53.9435C64.8262 53.7073 64.5787 53.4935 64.32 53.2798C63.9487 53.651 63.5662 54.0335 63.195 54.4048C63.33 54.5285 63.465 54.6523 63.6 54.776C63.735 54.8998 63.87 55.0235 63.9937 55.1585C64.0275 55.1923 64.0837 55.2485 64.1512 55.316C64.2187 55.3835 64.2975 55.4735 64.3875 55.5748C64.4775 55.676 64.5675 55.7773 64.6687 55.901C64.77 56.0135 64.86 56.1373 64.9612 56.261C65.0512 56.3848 65.1412 56.5085 65.22 56.6323C65.2987 56.756 65.3662 56.8685 65.4112 56.9698C65.4562 57.071 65.49 57.1723 65.49 57.251C65.49 57.3298 65.4787 57.3973 65.4337 57.4535C65.3887 57.4985 65.3325 57.5098 65.265 57.4985C65.1975 57.4985 65.1187 57.4648 65.04 57.431C64.9612 57.3973 64.8712 57.341 64.7925 57.2848C64.7137 57.2285 64.6237 57.161 64.5562 57.1048C64.4775 57.0373 64.41 56.981 64.3537 56.9248C64.2975 56.8685 64.2525 56.8348 64.2187 56.801C63.96 56.5423 63.7012 56.2498 63.4762 55.9573C63.2512 55.6648 63.015 55.361 62.8012 55.0573C62.4075 55.4173 62.025 55.7773 61.6312 56.1373C61.8225 56.4185 62.0137 56.6773 62.2162 56.9473C62.4187 57.2173 62.6437 57.4535 62.8687 57.6898C63.015 57.8473 63.1837 57.9935 63.3525 58.151C63.5212 58.3085 63.7125 58.4435 63.9037 58.5673C64.095 58.691 64.2975 58.7923 64.5 58.871C64.7025 58.9498 64.905 58.9948 65.1187 58.9948C65.3212 58.9948 65.535 58.961 65.7375 58.8823C65.94 58.8035 66.1425 58.6685 66.3337 58.4773C66.5025 58.3085 66.6262 58.1398 66.705 57.9485C66.7837 57.7573 66.8287 57.5548 66.84 57.3523C66.84 57.1498 66.84 56.936 66.7837 56.7223C66.7387 56.5085 66.6712 56.2948 66.5812 56.081L66.57 56.0585Z" fill="#0E1219"/>
<path d="M67.6613 50.0513C67.245 50.4113 66.8288 50.7713 66.4238 51.12C66.5925 51.6713 66.7613 52.2225 66.93 52.7738C66.4913 52.4925 66.0525 52.2113 65.625 51.9188C65.2763 52.38 64.9163 52.8413 64.5675 53.3025C65.4338 53.685 66.2888 54.0563 67.155 54.4275C67.6725 54.945 68.2013 55.4625 68.7188 55.98C69.1125 55.5863 69.5063 55.1925 69.9 54.7988C69.3825 54.27 68.865 53.7525 68.3363 53.2238C68.1225 52.1663 67.8975 51.1088 67.6613 50.0513Z" fill="#0E1219"/>
<path d="M75.8513 43.6164C75.2325 42.9977 74.22 42.9977 73.6013 43.6164L69.5288 47.6889C68.91 48.3077 68.91 49.3202 69.5288 49.9389L71.07 51.4802C71.6888 52.0989 72.7013 52.0989 73.32 51.4802L77.3925 47.4077C78.0113 46.7889 78.0113 45.7764 77.3925 45.1577L75.8513 43.6164ZM74.1075 48.7689C74.085 48.8814 74.04 48.9939 73.995 49.1064C73.95 49.2189 73.8825 49.3202 73.815 49.4214C73.7475 49.5227 73.6688 49.6127 73.59 49.6914C73.4438 49.8377 73.275 49.9502 73.1063 50.0289C72.9375 50.1077 72.7575 50.1414 72.5663 50.1414C72.3863 50.1414 72.2063 50.1077 72.0263 50.0402C71.8463 49.9614 71.6888 49.8602 71.5425 49.7139C71.43 49.6014 71.34 49.4777 71.25 49.3427C71.1713 49.2077 71.1038 49.0727 71.0588 48.9377C71.0138 48.8027 70.9913 48.6564 70.98 48.5102C70.98 48.3639 70.98 48.2177 71.0138 48.0714C71.0475 47.9252 71.1038 47.7902 71.1713 47.6552C71.25 47.5202 71.34 47.3964 71.4638 47.2727C71.5088 47.2277 71.5538 47.1827 71.61 47.1377C71.6663 47.0927 71.7225 47.0477 71.7788 47.0027C71.835 46.9577 71.9025 46.9239 71.9588 46.8902C72.0263 46.8564 72.0825 46.8339 72.15 46.8227L72.7013 47.4527C72.6225 47.4864 72.5438 47.5314 72.4763 47.5877C72.4088 47.6439 72.3413 47.7002 72.285 47.7564C72.2063 47.8352 72.1388 47.9252 72.0825 48.0264C72.0375 48.1164 72.0038 48.2177 71.9925 48.3077C71.9925 48.4089 71.9925 48.4989 72.0263 48.6002C72.06 48.7014 72.1163 48.7914 72.2063 48.8702C72.2625 48.9264 72.3188 48.9714 72.3863 49.0052C72.4538 49.0389 72.5213 49.0614 72.5888 49.0727C72.6563 49.0727 72.7238 49.0727 72.7913 49.0614C72.8588 49.0389 72.9263 49.0052 72.9825 48.9489C73.0275 48.9039 73.0613 48.8702 73.0838 48.8139C73.1175 48.7577 73.14 48.7127 73.14 48.6564L73.0275 48.5327L72.6563 48.8927L72.2063 48.4089C72.3525 48.2514 72.4988 48.0939 72.6563 47.9364C72.8025 47.7789 72.96 47.6214 73.1063 47.4639L74.13 48.4539C74.13 48.5664 74.13 48.6789 74.1075 48.7914V48.7689ZM76.245 46.6314C76.2225 46.7439 76.1775 46.8564 76.1325 46.9689C76.0763 47.0814 76.02 47.1827 75.9525 47.2839C75.885 47.3852 75.8063 47.4752 75.7275 47.5539C75.5813 47.7002 75.4125 47.8127 75.2438 47.8914C75.0638 47.9702 74.8838 48.0039 74.7038 48.0039C74.5238 48.0039 74.3438 47.9702 74.175 47.8914C73.995 47.8239 73.8375 47.7114 73.6913 47.5652C73.5788 47.4527 73.4775 47.3289 73.3988 47.1939C73.32 47.0589 73.2525 46.9239 73.2075 46.7889C73.1625 46.6539 73.14 46.5077 73.1288 46.3614C73.1288 46.2152 73.1288 46.0689 73.1625 45.9227C73.1963 45.7764 73.2413 45.6414 73.32 45.5064C73.3988 45.3714 73.4888 45.2477 73.6125 45.1352C73.6575 45.0902 73.7025 45.0452 73.7588 45.0002C73.815 44.9552 73.8713 44.9102 73.9275 44.8652C73.9838 44.8202 74.0513 44.7864 74.1075 44.7527C74.175 44.7189 74.2313 44.6964 74.2988 44.6739L74.85 45.3039C74.7713 45.3377 74.6925 45.3827 74.625 45.4389C74.5575 45.4952 74.49 45.5514 74.4338 45.6077C74.355 45.6864 74.2875 45.7764 74.2313 45.8664C74.1863 45.9564 74.1525 46.0577 74.1413 46.1477C74.1413 46.2489 74.1413 46.3389 74.175 46.4402C74.2088 46.5302 74.265 46.6314 74.355 46.7102C74.4113 46.7664 74.4675 46.8114 74.535 46.8452C74.6025 46.8789 74.67 46.9014 74.7375 46.9127C74.805 46.9127 74.8725 46.9127 74.94 46.9014C75.0075 46.8789 75.075 46.8452 75.1313 46.7889C75.165 46.7552 75.21 46.7102 75.2325 46.6539C75.2663 46.5977 75.2888 46.5527 75.2888 46.4964L75.1763 46.3727L74.7938 46.7327L74.3438 46.2489C74.49 46.0914 74.6363 45.9339 74.7938 45.7764C74.94 45.6189 75.0975 45.4614 75.2438 45.3039L76.2675 46.2939C76.2788 46.4064 76.2675 46.5189 76.245 46.6314Z" fill="#0E1219"/>
</g>
<defs>
<clipPath id="clip0_125_13239">
<rect width="108" height="88.29" fill="white" transform="translate(0.825012)"/>
</clipPath>
</defs>
</svg>
