<svg width="262" height="228" viewBox="0 0 262 228" fill="none" xmlns="http://www.w3.org/2000/svg">
<path d="M26.565 70.6426C24.2557 76.9358 21.9942 83.6032 19.8481 90.6424C17.9691 96.8047 16.3173 102.78 14.8641 108.541C22.1582 108.067 29.4462 107.589 36.7403 107.114C40.551 120.067 44.6605 133.296 49.0817 146.771C55.0901 165.076 61.3047 182.668 67.6372 199.548C85.5051 198.776 103.793 197.757 122.473 196.444C139.731 195.235 156.623 193.825 173.129 192.248C182.433 185.064 191.932 177.419 201.567 169.304C209.08 162.971 216.29 156.678 223.208 150.447C221.741 132.812 219.511 113.892 216.224 93.8948C213.19 75.4302 209.607 58.1328 205.733 42.0951C212.416 40.7071 219.099 39.319 225.778 37.9323C220.516 33.4427 215.228 28.8507 209.903 24.1637C205.974 20.7031 202.103 17.2477 198.283 13.8049C194.871 14.3427 191.46 14.8853 188.053 15.4217C173.875 18.0387 159.713 20.7143 145.56 23.4448C129.389 26.5646 113.227 29.7603 97.0796 33.0305C86.5946 37.5815 75.5669 42.8009 64.1392 48.7917C50.3915 56.0003 37.8698 63.393 26.5615 70.6488L26.565 70.6426Z" fill="#A8833F"/>
<path d="M156.779 56.8031C156.875 57.4362 156.97 58.0645 157.067 58.6976C156.994 58.7172 156.924 58.7514 156.856 58.7906C156.788 58.8297 156.72 58.8688 156.655 58.9177C156.488 59.0357 156.331 59.1719 156.196 59.3335C156.057 59.4964 155.947 59.6722 155.857 59.8637C155.767 60.0551 155.713 60.2631 155.688 60.4792C155.662 60.6953 155.679 60.9156 155.735 61.1463C155.775 61.2926 155.826 61.4045 155.89 61.4868C155.953 61.569 156.029 61.6168 156.119 61.6398C156.209 61.6628 156.302 61.6587 156.403 61.6264C156.505 61.599 156.615 61.5383 156.73 61.4604C156.813 61.4014 156.899 61.3313 156.986 61.2453C157.073 61.1593 157.158 61.0684 157.236 60.9691C157.314 60.8697 157.392 60.7704 157.463 60.6626C157.533 60.5548 157.6 60.4532 157.657 60.3542C157.789 61.0406 157.92 61.7271 158.052 62.4135C157.974 62.5337 157.891 62.6503 157.796 62.7646C157.701 62.879 157.601 62.9946 157.5 63.1054C157.399 63.2161 157.29 63.3184 157.184 63.4097C157.079 63.5058 156.97 63.5873 156.868 63.6564C156.573 63.8611 156.277 63.9874 155.991 64.0326C155.7 64.0792 155.431 64.0519 155.185 63.9506C154.938 63.8494 154.721 63.6827 154.535 63.4395C154.351 63.2012 154.212 62.8984 154.121 62.5361C154.002 62.0552 153.942 61.5587 153.949 61.055C153.955 60.5513 154.023 60.0624 154.158 59.592C154.293 59.1217 154.496 58.6857 154.763 58.2793C155.031 57.8728 155.373 57.5301 155.784 57.2475C155.938 57.1383 156.102 57.0473 156.273 56.9648C156.444 56.8822 156.609 56.8329 156.773 56.8203L156.779 56.8031Z" fill="white"/>
<path d="M162.749 59.6427C162.175 60.0788 161.602 60.5149 161.028 60.9509C160.837 60.3169 160.653 59.6865 160.462 59.0525L159.669 59.605C159.824 60.2225 159.979 60.8399 160.137 61.4512L158.571 62.535C158.082 60.5532 157.586 58.5679 157.092 56.5874C157.639 56.2473 158.185 55.9024 158.727 55.5636C158.978 56.5789 159.223 57.5906 159.474 58.6059L160.237 58.0772C159.931 57.0138 159.626 55.9504 159.32 54.887C159.841 54.5486 160.356 54.2067 160.877 53.8683C161.498 55.7939 162.123 57.7183 162.749 59.6427Z" fill="white"/>
<path d="M163.156 52.3795C163.616 54.3115 164.073 56.2498 164.523 58.1844C164.041 58.554 163.56 58.9236 163.079 59.2932C162.514 57.4413 161.955 55.5881 161.391 53.7363C161.98 53.2803 162.57 52.8292 163.155 52.3746L163.156 52.3795Z" fill="white"/>
<path d="M167.505 53.5208C167.657 54.1493 167.81 54.7778 167.963 55.4063C167.012 56.1735 166.062 56.9406 165.112 57.7078C164.826 56.7592 164.544 55.8045 164.264 54.8546C163.983 53.9048 163.706 52.9487 163.429 51.9927L165.189 50.7732C165.331 51.3995 165.476 52.0195 165.622 52.6445C165.769 53.2694 165.93 53.8904 166.107 54.4916C166.218 54.4198 166.325 54.3494 166.432 54.279L166.754 54.0567C166.882 53.97 167.009 53.8784 167.132 53.7881C167.254 53.6978 167.382 53.6111 167.509 53.5195L167.505 53.5208Z" fill="white"/>
<path d="M170.703 51.3088C170.869 51.9285 171.036 52.5482 171.192 53.1706C170.242 53.9377 169.296 54.7036 168.345 55.4658C168.041 54.5274 167.742 53.5876 167.443 52.6479C167.144 51.7081 166.849 50.7622 166.56 49.8198L168.32 48.6004C168.475 49.2178 168.63 49.8353 168.783 50.4478C168.938 51.0653 169.113 51.6775 169.299 52.276C169.411 52.2043 169.518 52.1339 169.624 52.0634L169.947 51.8411C170.075 51.7544 170.202 51.6628 170.324 51.5725C170.447 51.4823 170.575 51.3955 170.702 51.304L170.703 51.3088Z" fill="white"/>
<path d="M162.436 68.7433C162.351 69.0487 162.227 69.3485 162.057 69.6504C161.892 69.9509 161.7 70.2323 161.484 70.4994C161.268 70.7665 161.042 71.0154 160.804 71.2412C160.562 71.4683 160.326 71.6622 160.097 71.8229C159.652 72.1306 159.217 72.3254 158.798 72.401C158.379 72.4767 157.989 72.4453 157.639 72.309C157.288 72.1728 156.979 71.9366 156.718 71.604C156.456 71.2714 156.264 70.847 156.134 70.3431C156.036 69.9563 155.98 69.5529 155.96 69.1292C155.941 68.7055 155.96 68.2874 156.019 67.8636C156.073 67.4412 156.165 67.0242 156.296 66.6127C156.426 66.2013 156.588 65.8125 156.787 65.4404C156.985 65.0682 157.218 64.7285 157.489 64.4102C157.756 64.0982 158.059 63.8235 158.398 63.5862C158.526 63.4995 158.659 63.4115 158.809 63.3244C158.958 63.2373 159.104 63.1565 159.258 63.0889C159.408 63.0227 159.56 62.9662 159.71 62.9208C159.861 62.8803 160.002 62.8583 160.138 62.8585C160.282 63.5521 160.431 64.2443 160.575 64.9379C160.388 64.9828 160.201 65.0484 160.018 65.1446C159.835 65.2408 159.654 65.3468 159.487 65.4648C159.248 65.6281 159.039 65.8252 158.856 66.0575C158.671 66.2848 158.523 66.5336 158.413 66.8038C158.302 67.074 158.231 67.3546 158.204 67.6443C158.177 67.9339 158.199 68.2313 158.277 68.5241C158.326 68.7046 158.391 68.8702 158.48 69.0084C158.565 69.1479 158.672 69.2551 158.791 69.3279C158.91 69.4006 159.049 69.4314 159.198 69.4227C159.347 69.4141 159.508 69.3501 159.675 69.2321C159.79 69.1542 159.904 69.0506 160.018 68.931C160.132 68.8115 160.222 68.6776 160.283 68.5357C160.244 68.3685 160.226 68.2842 160.192 68.1157L159.101 68.8472C158.954 68.2015 158.878 67.8768 158.731 67.231C159.172 66.9038 159.613 66.5814 160.055 66.2591C160.497 65.9367 160.942 65.6082 161.388 65.2796C161.739 66.4354 162.09 67.5863 162.441 68.742L162.436 68.7433Z" fill="white"/>
<path d="M166.723 59.9744C166.806 60.2242 166.883 60.5121 166.962 60.8257C167.037 61.1455 167.105 61.4777 167.159 61.8346C167.213 62.1915 167.259 62.5608 167.289 62.9451C167.319 63.3293 167.323 63.7153 167.306 64.1015C167.289 64.4878 167.244 64.866 167.177 65.2396C167.11 65.6133 167.002 65.9717 166.867 66.3061C166.728 66.6466 166.554 66.9546 166.338 67.2426C166.127 67.5292 165.864 67.7775 165.56 67.9897C165.203 68.2371 164.877 68.3871 164.577 68.4363C164.277 68.4904 164 68.4705 163.751 68.3804C163.502 68.2902 163.274 68.1421 163.071 67.9298C162.867 67.7176 162.687 67.4731 162.523 67.1928C162.364 66.9112 162.22 66.6097 162.097 66.287C161.974 65.9644 161.867 65.6427 161.777 65.3268C161.637 64.8415 161.519 64.3447 161.423 63.8317C161.328 63.3186 161.246 62.7967 161.185 62.2586C161.886 61.8093 162.588 61.365 163.284 60.917C163.365 61.5124 163.46 62.1039 163.569 62.6866C163.672 63.2657 163.813 63.8503 163.974 64.3929C163.99 64.4514 164.018 64.5379 164.058 64.6476C164.098 64.7572 164.142 64.8814 164.199 65.0177C164.257 65.154 164.313 65.2854 164.385 65.4177C164.457 65.5501 164.525 65.6678 164.603 65.7621C164.68 65.8564 164.756 65.9249 164.835 65.9665C164.914 66.008 164.992 66.0031 165.07 65.9454C165.159 65.8851 165.226 65.7835 165.266 65.6419C165.307 65.5003 165.33 65.332 165.335 65.1371C165.34 64.9421 165.33 64.7303 165.304 64.4967C165.278 64.2631 165.246 64.0259 165.208 63.7851C165.165 63.5457 165.121 63.3062 165.068 63.0694C165.017 62.8375 164.964 62.6215 164.915 62.4201C164.862 62.22 164.821 62.0479 164.775 61.898C164.735 61.7467 164.705 61.6345 164.677 61.5688C164.595 61.303 164.509 61.0386 164.418 60.7803C164.328 60.522 164.238 60.2638 164.138 60.0081C164.826 59.5309 165.519 59.0524 166.207 58.5751C166.395 59.0217 166.566 59.4833 166.721 59.9647L166.723 59.9744Z" fill="white"/>
<path d="M172.204 54.1974C171.853 56.0488 171.485 57.8943 171.107 59.7424C171.431 60.8165 171.757 61.8955 172.076 62.9709L169.892 64.4818C169.561 63.4201 169.233 62.3521 168.901 61.2904C168.054 60.3354 167.217 59.3777 166.382 58.409C167.097 57.7781 167.818 57.1509 168.533 56.52C168.899 57.1645 169.265 57.8091 169.632 58.4536C169.76 57.4674 169.888 56.4813 170.011 55.4965C170.741 55.0602 171.468 54.6301 172.198 54.1938L172.204 54.1974Z" fill="white"/>
<path d="M173.809 58.0397L168.409 61.7773C167.584 62.3487 167.149 63.5532 167.426 64.4725L168.123 66.7596C168.405 67.6776 169.297 67.9616 170.122 67.3901L175.522 63.6525C176.347 63.0811 176.783 61.8766 176.505 60.9573L175.808 58.6702C175.526 57.7522 174.634 57.4682 173.809 58.0397Z" fill="#E55D2D"/>
<path d="M172.174 63.9592C172.137 64.0946 172.083 64.2242 172.009 64.359C171.935 64.4938 171.853 64.6153 171.759 64.7345C171.666 64.8537 171.564 64.9644 171.459 65.0606C171.351 65.1629 171.248 65.2479 171.146 65.317C170.948 65.4539 170.757 65.5417 170.564 65.5829C170.371 65.6242 170.197 65.6185 170.037 65.5673C169.877 65.5161 169.732 65.4242 169.606 65.2854C169.479 65.1466 169.386 64.9729 169.322 64.7546C169.273 64.59 169.242 64.4153 169.225 64.2367C169.209 64.0581 169.217 63.8729 169.237 63.6949C169.256 63.512 169.297 63.3336 169.354 63.1562C169.411 62.9788 169.485 62.8072 169.573 62.6476C169.661 62.4881 169.772 62.3331 169.897 62.1949C170.02 62.0519 170.161 61.9307 170.314 61.8215C170.371 61.7801 170.439 61.741 170.506 61.697C170.574 61.6579 170.642 61.6187 170.711 61.5845C170.78 61.5502 170.852 61.5257 170.919 61.5025C170.986 61.4794 171.056 61.4659 171.12 61.4698L171.327 62.3816C171.24 62.4052 171.153 62.4336 171.072 62.4815C170.99 62.5295 170.903 62.5738 170.829 62.6302C170.719 62.7068 170.622 62.7954 170.538 62.8912C170.454 62.987 170.384 63.0948 170.335 63.2071C170.287 63.3194 170.251 63.4389 170.242 63.5616C170.233 63.6843 170.246 63.8115 170.28 63.9383C170.301 64.0164 170.335 64.0857 170.378 64.1475C170.421 64.2092 170.469 64.2538 170.525 64.2859C170.581 64.3181 170.646 64.3268 170.713 64.3244C170.78 64.3221 170.855 64.2865 170.931 64.2399C170.984 64.2047 171.035 64.1597 171.083 64.105C171.131 64.0502 171.173 63.9919 171.203 63.9265L171.153 63.7411L170.661 64.0716L170.473 63.369C170.679 63.2197 170.879 63.0717 171.08 62.9237C171.281 62.7758 171.482 62.6278 171.688 62.4785L172.166 63.9507L172.174 63.9592Z" fill="white"/>
<path d="M175.014 61.9895C174.977 62.1249 174.923 62.2544 174.849 62.3893C174.775 62.5241 174.693 62.6455 174.599 62.7647C174.506 62.884 174.405 62.9947 174.3 63.0908C174.191 63.1932 174.088 63.2782 173.987 63.3473C173.788 63.4842 173.597 63.572 173.404 63.6132C173.211 63.6544 173.037 63.6488 172.877 63.5976C172.717 63.5464 172.572 63.4544 172.446 63.3156C172.32 63.1768 172.226 63.0032 172.162 62.7849C172.113 62.6203 172.082 62.4456 172.065 62.267C172.049 62.0883 172.057 61.9032 172.077 61.7252C172.096 61.5423 172.137 61.3639 172.194 61.1865C172.251 61.0091 172.326 60.8375 172.414 60.6779C172.502 60.5184 172.612 60.3633 172.737 60.2252C172.861 60.0822 173.001 59.961 173.155 59.8518C173.211 59.8104 173.279 59.7713 173.346 59.7273C173.414 59.6881 173.482 59.649 173.551 59.6147C173.62 59.5805 173.692 59.556 173.759 59.5328C173.826 59.5096 173.896 59.4962 173.96 59.5L174.168 60.4119C174.08 60.4354 173.993 60.4639 173.912 60.5118C173.831 60.5597 173.743 60.6041 173.669 60.6605C173.559 60.7371 173.463 60.8257 173.378 60.9215C173.294 61.0172 173.224 61.125 173.175 61.2374C173.127 61.3497 173.091 61.4691 173.082 61.5918C173.073 61.7145 173.086 61.8418 173.12 61.9686C173.141 62.0467 173.175 62.116 173.218 62.1777C173.261 62.2395 173.309 62.284 173.365 62.3162C173.421 62.3483 173.486 62.357 173.553 62.3547C173.621 62.3523 173.695 62.3168 173.771 62.2701C173.824 62.2349 173.875 62.19 173.923 62.1352C173.971 62.0805 174.013 62.0222 174.043 61.9568L173.993 61.7713L173.501 62.1019L173.313 61.3992C173.519 61.25 173.72 61.102 173.921 60.954C174.121 60.806 174.322 60.6581 174.528 60.5088L175.006 61.981L175.014 61.9895Z" fill="white"/>
<path d="M134.045 95.9208C133.774 95.4757 133.453 95.0755 133.091 94.7225C132.791 94.4212 132.454 94.1402 132.045 93.8628C131.388 93.4216 130.663 93.0772 129.884 92.8416C128.906 92.5493 127.888 92.4193 126.852 92.4564C126.67 92.4631 126.495 92.4734 126.326 92.4873C125.151 92.5879 124.041 92.9166 123.128 93.4332C122.277 93.907 121.532 94.5616 120.922 95.3684C120.64 94.9786 120.342 94.6294 120.013 94.2992L119.992 94.2787C119.445 93.7402 118.878 93.3221 118.265 93.0052C117.461 92.5825 116.541 92.3688 115.676 92.4017C115.599 92.4067 115.527 92.4104 115.455 92.414C114.815 92.4652 114.207 92.6384 113.604 92.9415L113.574 92.9493C112.819 93.3505 112.169 93.8908 111.574 94.6201C111.112 95.1989 110.725 95.8414 110.429 96.5326C109.818 97.9618 109.587 99.4619 109.734 100.986C109.794 101.619 109.928 102.257 110.13 102.894C109.204 102.99 108.407 103.371 107.866 103.987C107.821 104.035 107.782 104.083 107.743 104.135C106.834 103.416 105.689 102.986 104.544 103.026C104.492 103.029 104.435 103.029 104.384 103.037C100.166 103.278 95.9283 103.566 92.1299 103.873L88.6545 104.156C87.0822 104.221 85.8761 105.146 85.5673 106.531C85.4734 106.922 85.4878 107.269 85.4972 107.46C85.5353 108.637 85.6376 109.838 85.8086 111.042C85.0324 111.229 84.1915 111.429 83.2503 111.644C82.0187 111.927 81.0115 112.15 80.0664 112.351C79.4938 112.478 79.0358 112.564 78.5861 112.643C78.0607 112.731 77.518 112.814 77.0144 112.886C75.1722 113.155 72.7386 113.519 70.3055 113.983C67.8417 114.45 65.4883 114.997 63.704 115.422L63.6796 115.429C62.6253 115.691 61.8673 116.453 61.6541 117.473C61.056 120.237 60.983 123.107 61.4345 125.983C61.9099 129.182 62.8964 132.103 64.3525 134.667C64.5093 134.96 64.6717 135.215 64.8116 135.444C64.8595 135.525 64.9123 135.605 64.9602 135.686L64.9866 135.726C65.1441 135.982 65.3061 136.216 65.4518 136.428C65.5135 136.521 65.58 136.613 65.6403 136.702L65.6856 136.773L65.9238 137.097C66.0868 137.314 66.2511 137.537 66.4127 137.75L66.429 137.772C66.6268 138.022 66.8899 138.36 67.1649 138.683C68.3918 140.159 69.8434 141.438 71.3479 142.369C72.9367 143.36 74.6486 144.089 76.4437 144.523C76.9014 144.631 77.3649 144.721 77.8231 144.792C79.4914 145.767 81.1998 146.58 82.9014 147.212C84.7044 147.89 86.6343 148.398 88.6311 148.726L88.6532 148.73C90.5292 149.017 92.4122 149.135 94.2676 149.072L94.3447 149.067C95.1162 149.038 95.8971 148.986 96.7362 148.897C96.7816 148.969 96.8304 149.034 96.8806 149.104C97.0651 149.363 97.2643 149.619 97.4754 149.86C97.449 150.113 97.4302 150.374 97.4139 150.645C97.3185 152.261 98.397 153.943 100.047 154.772L100.204 154.851C100.659 155.084 101.132 155.329 101.629 155.562C107.331 158.38 113.61 159.757 119.793 159.549C123.027 159.436 126.14 158.894 129.045 157.928C133.385 156.561 137.5 154.349 141.264 151.359L141.54 151.138C141.859 150.885 142.185 150.62 142.512 150.318L142.555 150.281L142.592 150.244C143.552 149.26 143.706 147.707 142.99 146.263C142.796 145.812 142.59 145.339 142.431 144.88L142.39 144.765L142.381 144.731C142.327 144.61 142.245 144.401 142.096 144.159C141.935 141.253 141.719 138.633 141.437 136.156C141.069 133.101 140.57 129.95 139.944 126.797C139.612 125.129 139.281 123.601 138.939 122.129C138.593 120.643 138.2 118.959 137.591 117.234C137.243 116.266 136.862 115.39 136.426 114.566C136.123 113.998 135.785 113.44 135.413 112.892C135.381 112.754 135.354 112.614 135.323 112.476C134.829 110.36 134.17 108.235 133.357 106.157C133.577 105.69 133.8 105.212 134.017 104.715C134.281 104.1 134.61 103.28 134.812 102.373C135.016 101.476 135.091 100.546 135.046 99.5961C135.031 99.0927 134.971 98.5962 134.868 98.0747L134.854 98.021C134.745 97.5168 134.54 96.7507 134.042 95.927L134.045 95.9208Z" fill="white"/>
<path d="M80.3319 115.606C84.0228 115.171 86.9123 114.517 88.8716 114.003C92.7561 112.983 93.8275 112.277 99.5644 110.578C101.837 109.906 103.839 109.318 106.494 108.742C110.497 107.874 113.935 107.47 116.375 107.266C116.004 106.937 115.512 106.467 114.998 105.857C114.486 105.252 113.624 104.222 113.139 102.898C112.25 100.48 113.134 98.4906 113.357 98.0334C114.053 96.5917 115.184 95.8337 115.804 95.4949C116.075 95.4327 116.54 95.371 117.055 95.5572C117.991 95.887 118.49 96.794 118.906 97.5455C119.192 98.0652 119.51 98.7852 119.708 99.8357C119.95 101.131 119.813 101.868 119.785 102.895C119.76 103.817 119.824 105.186 120.254 106.949C120.573 106.968 120.934 107.007 121.33 107.079C121.945 107.191 122.487 107.359 122.929 107.524C122.632 106.824 122.228 105.708 122.045 104.34C121.907 103.32 121.345 99.057 124.248 96.8307C124.642 96.5263 126.139 95.4191 128.353 95.6576C128.912 95.7168 130.674 95.9089 131.479 97.0374C131.923 97.6611 131.788 98.7012 131.503 100.76C131.333 101.998 131.245 102.628 130.97 103.492C130.533 104.869 130.135 105.216 129.557 106.574C129.242 107.312 128.85 108.405 128.594 109.85C129.282 110.329 130.241 111.077 131.207 112.125C131.59 112.54 133.132 114.256 134.598 117.932C135.301 119.694 135.668 121.259 136.39 124.386C136.989 126.972 137.348 128.957 137.585 130.269C137.797 131.452 138.143 133.404 138.482 135.98C138.851 138.779 139.03 140.99 139.158 142.582C139.241 143.611 139.297 144.465 139.339 145.07C137.972 145.902 136.055 146.965 133.637 147.994C128.36 150.24 123.794 151.019 121.952 151.288C119.537 151.642 116.569 151.888 113.16 151.792C110.883 151.727 108.238 151.636 104.774 150.77C103.105 150.355 101.722 149.878 100.744 149.507C100.459 149.265 100.148 148.961 99.8448 148.592C98.9503 147.498 98.6157 146.406 98.4812 145.767C97.759 145.883 96.7868 146.002 95.6248 146.057C95.6248 146.057 93.2189 146.173 90.9534 145.897C86.0588 145.294 80.3464 142.107 79.6622 141.72C80.5234 138.571 81.2801 134.603 81.4844 129.92C81.728 124.369 81.1136 119.46 80.3407 115.619L80.3319 115.606Z" fill="#A8833F"/>
<path d="M114.531 118.184C115.246 118.511 116.758 119.099 118.601 119.029C119.947 118.977 120.93 118.588 121.503 118.304C121.567 118.077 121.643 117.675 121.552 117.161C121.446 116.551 121.159 116.084 120.993 115.856C120.22 115.546 119.012 115.158 117.54 115.051C116.041 114.94 114.877 115.163 114.148 115.369C114.12 115.753 114.122 116.228 114.197 116.783C114.27 117.329 114.398 117.807 114.533 118.194L114.531 118.184Z" fill="#EFE0D5"/>
<path d="M103.639 118.21C104.293 118.406 104.869 118.565 105.34 118.685C106.341 118.945 106.886 119.05 107.539 119.063C107.644 119.067 107.732 119.064 107.79 119.064C107.436 117.862 107.083 116.66 106.734 115.456C106.229 115.366 105.496 115.286 104.655 115.386C103.733 115.497 103.05 115.779 102.622 115.998C102.683 116.322 102.802 116.766 103.052 117.269C103.244 117.657 103.459 117.97 103.643 118.209L103.639 118.21Z" fill="#EFE0D5"/>
<path d="M139.424 145.079C139.742 145.972 140.06 146.864 140.382 147.756C139.7 148.467 138.789 149.323 137.635 150.208C137.205 150.537 135.855 151.548 133.82 152.621C133.187 152.953 130.721 154.23 127.002 155.264C124.958 155.832 122.976 156.379 120.129 156.509C118.062 156.603 116.381 156.436 114.575 156.256C112.63 156.06 111.185 155.919 109.192 155.428C105.94 154.631 103.672 153.508 103.074 153.208C101.99 152.656 101.116 152.127 100.495 151.723L100.662 149.514C101.103 149.657 101.754 149.864 102.551 150.085C107.217 151.397 111.006 151.679 113.008 151.754C115.839 151.858 117.906 151.645 119.541 151.463C120.644 151.345 125.102 150.825 130.562 148.991C133.048 148.158 136.121 146.921 139.418 145.075L139.424 145.079Z" fill="#F6BD08"/>
<path d="M65.27 118.788L80.7486 115.99L82.2493 118.078L84.59 122.246L86.2904 127.46L86.8771 130.216L87.2146 133.525L87.0633 136.551L85.9319 139.004L84.5369 140.356L81.7593 141.252L77.6592 141.545L76.0304 141.166L73.0015 139.796L70.6143 137.894L68.5503 135.032L66.7616 131.772L65.2682 128.15L64.9045 123.944L64.6634 121.482L65.27 118.788Z" fill="black"/>
<path d="M105.289 117.051C105.385 118.014 106.443 119.016 107.581 119.067C108.349 119.102 109.003 118.692 109.274 118.044C109.398 117.749 109.396 117.409 109.306 117.073C109.258 116.892 109.207 116.702 109.166 116.509C109.097 116.214 109.038 115.936 108.992 115.666C108.978 115.576 108.91 115.495 108.817 115.462C108.139 115.215 107.121 114.928 105.915 114.896C104.85 114.867 103.977 115.044 103.318 115.257C103.259 114.938 103.242 114.623 103.279 114.31C103.304 114.073 103.363 113.843 103.446 113.627C104.946 113.429 106.518 113.636 108.1 114.19C108.487 114.327 108.677 113.847 108.321 113.629C105.84 112.118 102.54 112.082 100.65 113.692C100.39 113.913 100.74 114.379 101.072 114.253C101.619 114.049 102.167 113.871 102.733 113.756C102.88 113.721 103.031 113.697 103.181 113.672C103.122 113.861 103.075 114.056 103.05 114.257C103.008 114.608 103.031 114.968 103.107 115.329C102.844 115.42 102.619 115.517 102.439 115.607C102.375 115.64 102.334 115.704 102.344 115.779C102.366 116.056 102.435 116.471 102.655 116.941C102.957 117.581 103.395 118.003 103.633 118.211C103.471 117.899 103.281 117.463 103.18 116.947C103.124 116.679 103.105 116.433 103.096 116.226C103.094 116.18 103.121 116.141 103.168 116.123C103.503 116.007 103.913 115.898 104.396 115.826C104.945 115.747 105.438 115.735 105.846 115.751C105.714 115.865 105.222 116.331 105.289 117.051Z" fill="black"/>
<path d="M114.547 113.582C114.393 113.571 114.238 113.56 114.084 113.549C114.036 113.546 113.996 113.573 113.987 113.617C113.918 113.965 113.864 114.387 113.857 114.87C113.471 114.989 113.154 115.116 112.916 115.222C112.897 115.289 112.888 115.371 112.887 115.465C112.889 115.668 112.958 115.848 113.023 115.972C113.056 116.037 113.129 116.075 113.197 116.056C113.421 115.996 113.661 115.932 113.907 115.877C114.02 116.824 114.291 117.62 114.524 118.18C114.435 117.633 114.374 117.012 114.371 116.338C114.371 116.145 114.374 115.961 114.383 115.78C115.097 115.652 115.897 115.574 116.775 115.589C116.601 115.782 116.24 116.266 116.345 116.954C116.489 117.941 117.537 119.02 118.695 119.008C119.659 118.995 120.327 118.23 120.321 117.348C120.316 116.821 120.066 116.376 119.805 116.048C119.845 116.059 119.879 116.07 119.903 116.08C120.248 116.196 120.543 116.321 120.775 116.426C120.882 116.476 120.972 116.557 121.03 116.656C121.117 116.805 121.2 116.977 121.278 117.17C121.453 117.631 121.497 118.027 121.507 118.301C121.613 118.148 121.718 117.957 121.783 117.73C122.022 116.903 121.652 116.071 121.431 115.675C121.373 115.576 121.282 115.49 121.175 115.441C120.372 115.08 119.18 114.652 117.744 114.503C116.446 114.365 115.351 114.491 114.49 114.695C114.542 114.342 114.6 114.012 114.672 113.716C114.686 113.649 114.631 113.58 114.557 113.579L114.547 113.582Z" fill="black"/>
<path d="M127.847 100.055C125.9 102.12 124.968 105.277 125.927 108.331C125.959 108.448 126.143 108.451 126.156 108.343C126.232 107.611 126.271 106.9 126.36 106.196C126.573 104.063 127.164 102.074 128.042 100.196C128.093 100.094 127.92 99.9779 127.843 100.061L127.847 100.055Z" fill="black"/>
<path d="M131.742 96.9093C131.619 96.7018 131.46 96.4986 131.285 96.3361C131.113 96.1626 130.926 96.0089 130.727 95.8737C130.331 95.6035 129.899 95.4159 129.477 95.2882C128.63 95.0341 127.801 94.9843 127.014 95.0539C126.226 95.1187 125.447 95.3327 124.794 95.7064C124.133 96.0717 123.597 96.5868 123.175 97.16C122.748 97.7345 122.432 98.3685 122.184 99.0258C121.937 99.6831 121.777 100.374 121.665 101.069C121.612 101.418 121.571 101.774 121.542 102.132C121.518 102.494 121.517 102.86 121.532 103.228C121.585 104.5 121.884 105.79 122.374 107.034C121.781 106.869 121.184 106.767 120.594 106.732C120.546 106.729 120.499 106.731 120.446 106.73C120.321 105.675 120.211 104.622 120.173 103.581C120.144 103.024 120.131 102.468 120.134 101.913C120.127 101.36 120.171 100.821 120.146 100.221C120.127 99.6241 119.994 98.9903 119.756 98.3951C119.519 97.8048 119.221 97.2363 118.839 96.6901C118.646 96.4176 118.433 96.1504 118.182 95.8985C117.927 95.6479 117.637 95.4065 117.28 95.225C116.928 95.0422 116.49 94.9504 116.128 94.9846C115.758 95.0105 115.449 95.1247 115.173 95.2666C114.623 95.5552 114.194 95.9472 113.842 96.3869C113.489 96.8267 113.199 97.307 112.981 97.8204C112.545 98.8473 112.33 99.9979 112.444 101.186C112.56 102.379 113.044 103.577 113.763 104.624C114.119 105.151 114.534 105.647 114.982 106.107C115.205 106.335 115.443 106.559 115.688 106.77C115.81 106.874 115.931 106.977 116.058 107.079C111.688 107.398 107.389 108.042 103.245 109.069C101.105 109.595 99.0091 110.204 96.9292 110.834C94.8528 111.459 92.7612 112.045 90.6542 112.594C88.5485 113.148 86.4199 113.656 84.2875 114.149C83.2181 114.393 82.1524 114.632 81.0778 114.857C80.5345 114.976 80.0228 115.077 79.4827 115.169C78.9475 115.26 78.4 115.344 77.8511 115.423C75.6507 115.741 73.4361 116.083 71.2521 116.501C69.0682 116.919 66.9185 117.406 64.7753 117.918L64.7606 117.922C64.5459 117.979 64.3733 118.135 64.3293 118.361C63.7996 120.815 63.7246 123.424 64.1339 126.044C64.518 128.63 65.3155 131.313 66.7321 133.789C66.8991 134.1 67.0953 134.403 67.2818 134.709C67.4732 135.013 67.6828 135.307 67.8826 135.604C68.0958 135.892 68.3164 136.189 68.5332 136.471C68.7486 136.748 68.9751 137.027 69.2078 137.31C70.1421 138.435 71.2884 139.493 72.5787 140.287C73.8666 141.093 75.2685 141.679 76.6946 142.024C77.2766 142.166 77.8676 142.264 78.4531 142.322C78.5078 142.37 78.5723 142.415 78.6417 142.459C80.2113 143.399 81.8497 144.204 83.5341 144.83C85.2198 145.461 86.944 145.904 88.6606 146.181C90.3745 146.449 92.0794 146.547 93.7425 146.488C94.5716 146.459 95.3964 146.395 96.205 146.309C96.885 146.232 97.5673 146.143 98.2394 146.036C98.3805 146.699 98.6696 147.349 99.0751 147.925C99.4555 148.467 99.9376 148.939 100.476 149.328C100.355 149.402 100.277 149.543 100.28 149.71L100.261 149.872C100.216 150.308 100.164 150.74 100.142 151.185C100.109 151.707 100.488 152.28 101.012 152.537C101.516 152.799 102.02 153.062 102.534 153.3C110.754 157.374 120.094 158.035 127.805 155.467C132.103 154.117 135.959 151.938 139.328 149.268C139.707 148.962 140.101 148.658 140.462 148.326C140.798 147.979 140.785 147.423 140.538 146.951C140.297 146.403 140.066 145.853 139.866 145.3C139.83 145.226 139.815 145.131 139.745 145.066C139.667 144.967 139.554 144.898 139.434 144.862C139.289 141.92 139.074 138.97 138.74 136.005C138.371 132.95 137.883 129.896 137.278 126.842C136.973 125.313 136.649 123.789 136.291 122.258C135.934 120.733 135.57 119.198 135.034 117.663C134.76 116.895 134.434 116.13 134.041 115.383C133.642 114.637 133.181 113.913 132.659 113.232C131.613 111.865 130.357 110.632 128.957 109.606C128.931 109.587 128.902 109.574 128.872 109.561C128.941 109.349 129.013 109.131 129.088 108.922C129.31 108.287 129.558 107.672 129.818 107.058C130.33 105.828 130.941 104.655 131.486 103.411C131.754 102.79 132.008 102.136 132.162 101.441C132.32 100.745 132.379 100.007 132.342 99.2642C132.331 98.8906 132.288 98.5152 132.21 98.128C132.126 97.7373 132.005 97.3252 131.753 96.9115L131.742 96.9093ZM79.7141 141.016C79.6695 140.986 79.6187 140.953 79.5741 140.923C79.5555 140.912 79.5308 140.898 79.5109 140.882C79.0752 140.623 78.5735 140.663 78.2842 140.95C77.7993 140.896 77.3101 140.808 76.8241 140.692C75.5764 140.389 74.3497 139.87 73.2363 139.169C72.118 138.47 71.1485 137.585 70.298 136.557C70.0829 136.301 69.8763 136.038 69.6621 135.765C69.4542 135.497 69.2622 135.229 69.0654 134.963C68.8818 134.688 68.6885 134.416 68.5148 134.138C68.3446 133.854 68.161 133.579 68.0103 133.29L67.7703 132.862L67.5485 132.425C67.3978 132.136 67.2716 131.84 67.1355 131.547C66.8829 130.956 66.6486 130.355 66.4546 129.748C66.0616 128.535 65.8008 127.308 65.6021 126.059C65.243 123.723 65.2959 121.403 65.7319 119.204C67.7349 118.736 69.7594 118.308 71.782 117.913C73.9376 117.487 76.1168 117.149 78.3142 116.8C78.8653 116.71 79.4164 116.62 79.9698 116.519C80.1738 116.48 80.3827 116.44 80.5867 116.401C82.1964 118.485 83.5088 120.748 84.4514 123.095C84.9423 124.302 85.317 125.525 85.6716 126.79C86.0297 128.048 86.3902 129.296 86.5846 130.509C86.6842 131.115 86.7409 131.717 86.7546 132.315C86.756 132.613 86.7511 132.907 86.7378 133.209C86.7209 133.517 86.7089 133.823 86.6846 134.123C86.5981 135.322 86.3981 136.469 85.9408 137.475C85.4884 138.481 84.7735 139.326 83.8325 139.913C82.9002 140.513 81.7663 140.848 80.5588 140.968C80.2836 140.994 79.9933 141.004 79.7066 141.008L79.7141 141.016ZM102.765 152.7C102.318 152.495 101.872 152.275 101.431 152.053L101.263 151.973C100.989 151.847 100.813 151.581 100.816 151.318C100.833 150.796 100.812 150.268 100.802 149.743C100.802 149.743 100.795 149.718 100.812 149.724C101.05 149.791 101.285 149.87 101.524 149.941C102.107 150.146 102.695 150.329 103.286 150.505C103.282 150.684 103.227 152.335 103.208 152.906C103.059 152.841 102.915 152.77 102.765 152.7ZM103.678 153.119L103.948 150.694C104.518 150.849 105.092 150.999 105.66 151.129C105.651 151.66 105.615 153.301 105.604 153.906C104.964 153.664 104.319 153.403 103.677 153.115L103.678 153.119ZM108.537 154.877C107.785 154.665 107.034 154.422 106.279 154.159L106.134 151.238C106.801 151.383 107.469 151.518 108.138 151.632C108.199 152.133 108.433 154.021 108.537 154.877ZM109.022 155.009L108.811 151.744C109.247 151.81 109.684 151.876 110.122 151.931C110.619 151.992 111.118 152.036 111.616 152.08C111.715 152.509 112.281 155.014 112.449 155.738C111.313 155.556 110.172 155.318 109.027 155.007L109.022 155.009ZM113.124 155.834L112.089 152.11C112.889 152.168 113.684 152.206 114.478 152.223C114.737 153.012 115.432 155.137 115.744 156.089C114.878 156.039 114.003 155.954 113.124 155.834ZM116.221 156.113L115.139 152.229C116.086 152.232 117.032 152.209 117.969 152.156C118.28 153.004 119.083 155.2 119.413 156.1C118.361 156.156 117.297 156.165 116.223 156.118L116.221 156.113ZM120.064 156.051L118.431 152.121C119.027 152.082 119.619 152.028 120.204 151.965C120.578 152.796 121.749 155.39 121.963 155.856C121.332 155.941 120.701 156.006 120.059 156.052L120.064 156.051ZM122.402 155.796L120.848 151.892C121.932 151.759 123.005 151.586 124.062 151.376C124.302 151.898 125.589 154.732 125.769 155.129C124.662 155.41 123.54 155.632 122.397 155.797L122.402 155.796ZM126.379 154.965L124.503 151.284C125.098 151.161 125.684 151.025 126.272 150.878C126.733 151.68 127.849 153.62 128.289 154.385C127.66 154.596 127.028 154.791 126.384 154.964L126.379 154.965ZM128.701 154.244L126.874 150.722C127.644 150.515 128.407 150.296 129.157 150.053C129.491 150.674 130.61 152.76 130.936 153.373C130.2 153.69 129.456 153.979 128.696 154.245L128.701 154.244ZM131.503 153.127L129.571 149.916C130.123 149.731 130.667 149.538 131.209 149.335C131.579 149.916 132.749 151.747 133.134 152.345C132.601 152.618 132.054 152.88 131.508 153.125L131.503 153.127ZM133.511 152.149L131.782 149.114C132.299 148.913 132.806 148.698 133.312 148.479C133.596 148.973 134.606 150.732 134.958 151.343C134.484 151.622 134.002 151.892 133.511 152.149ZM135.477 151.037L133.701 148.312C134.14 148.116 134.577 147.91 135.007 147.701C135.18 147.958 136.535 149.969 136.72 150.249C136.312 150.52 135.896 150.783 135.479 151.042L135.477 151.037ZM137.074 150.008L135.551 147.429C135.943 147.23 136.334 147.031 136.716 146.819C136.858 146.744 137.001 146.67 137.151 146.587C137.399 147.044 138.27 148.657 138.466 149.017C138.009 149.36 137.548 149.687 137.075 150.012L137.074 150.008ZM140.007 147.057L140.053 147.227C140.155 147.514 140.054 147.797 139.827 147.947C139.539 148.181 139.247 148.416 138.951 148.642L137.514 146.38C138.159 146.014 138.822 145.601 139.37 145.287C139.388 145.293 139.395 145.301 139.398 145.311C139.626 145.888 139.818 146.469 139.996 147.054L140.007 147.057ZM131.317 99.1675C131.376 99.8368 131.344 100.499 131.223 101.138C131.101 101.778 130.91 102.409 130.677 103.026C130.204 104.267 129.669 105.508 129.241 106.8C128.824 108.093 128.462 109.414 128.239 110.771C128.232 110.82 128.268 110.878 128.321 110.901C128.38 110.927 128.441 110.9 128.459 110.848C128.528 110.62 128.598 110.392 128.668 110.165C129.893 111.222 131.009 112.382 131.944 113.648C132.915 114.947 133.666 116.346 134.205 117.812C134.745 119.278 135.129 120.792 135.51 122.311C135.89 123.825 136.24 125.347 136.563 126.866C137.215 129.903 137.791 132.949 138.224 135.992C138.629 138.948 138.956 141.904 139.197 144.852C139.177 144.857 139.157 144.863 139.133 144.869C139.02 144.915 139.004 144.935 138.95 144.965L138.669 145.129C131.999 149.045 123.984 151.062 115.69 151.496C111.989 151.64 108.175 151.302 104.408 150.361L103.722 150.179C103.68 150.159 103.635 150.15 103.592 150.146C103.277 150.063 102.995 149.987 102.995 149.987C102.548 149.84 101.309 149.471 100.9 149.309C100.859 149.293 100.813 149.279 100.77 149.275C100.226 148.846 99.7667 148.32 99.4325 147.756C99.0464 147.096 98.8383 146.378 98.8267 145.691C98.8267 145.691 98.8185 145.641 98.812 145.616C98.7649 145.44 98.5754 145.319 98.3981 145.34L98.3785 145.345C97.586 145.432 96.7829 145.48 95.9772 145.518C95.1703 145.551 94.3629 145.564 93.5549 145.534C91.9366 145.487 90.3022 145.281 88.6861 144.93C87.0771 144.566 85.4817 144.057 83.9508 143.38C83.1743 143.039 82.4193 142.661 81.6794 142.242C82.7901 142.054 83.8525 141.686 84.7616 141.097C85.8808 140.394 86.7445 139.363 87.2713 138.186C87.8042 137.013 88.0151 135.712 88.1041 134.443C88.1281 134.123 88.1437 133.81 88.1592 133.497C88.1735 133.18 88.1789 132.849 88.1747 132.52C88.1599 131.86 88.0959 131.192 87.9868 130.531C87.7672 129.204 87.3914 127.919 87.032 126.655C86.6774 125.391 86.2769 124.091 85.7579 122.818C84.8105 120.473 83.5139 118.21 81.9309 116.108C82.8965 115.886 83.8545 115.656 84.8126 115.425C86.9483 114.905 89.0585 114.329 91.1573 113.73C93.2561 113.131 95.3383 112.49 97.4029 111.822C99.4625 111.155 101.51 110.481 103.598 109.9C105.686 109.32 107.82 108.832 109.982 108.43C112.148 108.022 114.348 107.705 116.572 107.475L116.582 107.472C116.633 107.469 116.684 107.445 116.714 107.4C116.779 107.31 116.748 107.177 116.644 107.1C116.553 107.093 116.489 107.047 116.428 106.996L116.251 106.844C116.136 106.745 116.019 106.64 115.907 106.534C115.678 106.323 115.462 106.104 115.255 105.877C114.84 105.423 114.466 104.943 114.152 104.436C113.51 103.426 113.14 102.317 113.092 101.242C113.045 100.167 113.285 99.1302 113.736 98.2194C113.959 97.7623 114.231 97.3337 114.558 96.9533C114.886 96.5777 115.261 96.2369 115.691 96.0274C115.903 95.9234 116.13 95.8522 116.346 95.8363C116.566 95.8191 116.754 95.8576 116.965 95.9631C117.388 96.1741 117.792 96.6097 118.12 97.071C118.449 97.5373 118.733 98.0521 118.949 98.5643C119.16 99.0779 119.277 99.5955 119.316 100.129C119.353 100.658 119.328 101.229 119.356 101.802C119.378 102.372 119.422 102.946 119.476 103.517C119.594 104.584 119.751 105.656 119.979 106.724C119.787 106.728 119.601 106.737 119.411 106.751C119.025 106.792 118.65 106.855 118.29 106.957C118.241 106.97 118.213 107.02 118.226 107.068C118.241 107.127 118.306 107.172 118.367 107.167C118.74 107.135 119.112 107.118 119.492 107.132C119.87 107.135 120.246 107.17 120.621 107.227C121.373 107.339 122.126 107.535 122.847 107.823C122.912 107.852 122.987 107.858 123.057 107.845C123.23 107.809 123.311 107.641 123.243 107.466L123.239 107.451C122.693 106.096 122.397 104.701 122.402 103.35C122.4 103.011 122.421 102.681 122.458 102.352C122.496 102.023 122.549 101.695 122.618 101.368C122.748 100.721 122.941 100.094 123.185 99.5003C123.424 98.9081 123.728 98.3455 124.111 97.8611C124.492 97.3719 124.952 96.961 125.489 96.6603C126.024 96.3548 126.637 96.1852 127.307 96.1261C127.97 96.0635 128.67 96.1216 129.319 96.2981C129.963 96.476 130.537 96.8401 130.846 97.3116C130.999 97.5528 131.108 97.8586 131.183 98.1784C131.253 98.4995 131.307 98.8356 131.328 99.1697L131.317 99.1675Z" fill="black"/>
<path d="M120.939 145.048C120.058 145.645 119.04 146.08 117.927 146.279C116.791 146.489 115.576 146.464 114.361 146.225C114.224 146.199 114.2 146.383 114.333 146.431C114.951 146.648 115.588 146.801 116.224 146.892C117.514 147.08 118.802 146.986 119.974 146.656C120.569 146.497 121.129 146.263 121.654 145.981C121.92 145.842 121.965 145.48 121.742 145.215C121.533 144.962 121.174 144.891 120.939 145.048Z" fill="black"/>
<path d="M126.663 138.383C126.366 138.269 126.073 138.17 125.784 138.07C124.902 137.762 124.072 137.357 123.231 136.913C123.121 136.854 123.016 136.97 123.105 137.067C123.425 137.442 123.819 137.76 124.241 138.028C123.434 138.705 122.564 139.325 121.643 139.87C120.643 140.467 119.587 140.996 118.474 141.43C117.361 141.864 116.198 142.228 114.998 142.492C113.801 142.766 112.562 142.946 111.296 143.04C111.239 143.044 111.2 143.092 111.211 143.151C111.226 143.21 111.281 143.258 111.343 143.257C112.629 143.216 113.899 143.095 115.146 142.887C116.392 142.678 117.603 142.375 118.777 141.997C119.364 141.804 119.94 141.592 120.506 141.362C121.07 141.127 121.625 140.873 122.169 140.602C123.252 140.056 124.28 139.424 125.256 138.734C125.266 138.731 125.278 138.718 125.287 138.71C125.329 138.673 125.359 138.628 125.384 138.585C125.799 138.73 126.231 138.818 126.653 138.815C126.742 138.812 126.818 138.765 126.837 138.682C126.865 138.57 126.789 138.444 126.667 138.398L126.663 138.383Z" fill="black"/>
<path d="M122.076 112.401C118.795 110.795 114.953 110.528 112.012 111.849C111.294 112.194 111.954 113.309 112.719 113.041C113.399 112.791 114.108 112.585 114.842 112.456C117.068 112.038 119.489 112.309 121.822 113.17C122.373 113.372 122.606 112.661 122.076 112.401Z" fill="black"/>
<path d="M130.461 112.718C130.007 110.712 129.387 108.712 128.609 106.745L128.592 106.682L128.575 106.655C128.575 106.655 128.584 106.689 128.597 106.701C128.718 106.957 128.998 107.143 129.254 107.142L129.192 107.143L128.925 107.142C126.003 107.151 122.14 107.098 119.244 107.121C117.056 107.153 113.474 107.155 111.319 107.173C111.282 107.173 111.314 107.175 111.319 107.173C111.333 107.169 111.348 107.165 111.363 107.162C111.509 107.122 111.61 106.991 111.606 106.819C111.751 109.489 112.165 112.187 112.739 114.873L112.876 115.563L112.18 115.561C111.146 115.546 109.073 115.578 108.049 115.622L107.774 115.628L107.238 114.977C106.773 114.411 106.685 113.849 106.586 113.284C106.471 112.719 106.347 112.156 106.212 111.596C105.875 110.201 105.472 108.776 105.028 107.389L104.96 107.177L104.932 107.07L104.907 107.019C104.907 107.019 104.919 107.063 104.934 107.08C105.066 107.316 105.224 107.4 105.402 107.42C105.424 107.424 105.49 107.417 105.423 107.42C100.149 107.567 94.7158 107.747 89.4875 108.065C89.4729 108.069 89.4778 108.068 89.4826 108.066L89.4924 108.064C89.5828 108.05 89.6364 107.957 89.6324 107.864C89.6324 107.864 89.6363 107.879 89.6328 107.885L89.6345 107.989C89.6731 111.666 90.5396 115.466 92.1638 119.068L92.188 119.119C92.188 119.119 92.1753 119.091 92.1678 119.083C92.1319 118.988 91.9873 118.917 91.9297 118.916C92.4197 118.911 95.8127 118.828 96.3971 118.823C100.208 118.738 104.023 118.668 107.853 118.677C107.677 118.661 107.426 118.838 107.442 119.132C107.444 119.142 107.446 119.168 107.446 119.147L107.442 119.095C107.437 119.034 107.411 118.842 107.41 118.78C107.344 118.18 107.241 117.622 107.567 117.101L107.824 116.498C107.944 116.498 110.115 116.423 110.325 116.425C110.738 116.424 112.757 116.427 113.124 116.428C113.353 117.067 113.859 118.469 114.084 119.115L114.119 119.205C114.079 119.074 113.954 118.961 113.825 118.949C113.798 118.946 113.84 118.945 113.845 118.944C113.941 118.949 114.313 118.933 114.413 118.938C120.192 118.859 126.132 118.873 131.924 118.921C131.653 118.905 131.43 119.127 131.416 119.408C131.298 117.191 130.993 114.94 130.474 112.71L130.461 112.718ZM132.674 112.606C133.194 114.915 133.512 117.235 133.613 119.525L133.616 119.634L133.621 119.69L133.627 119.715C133.656 120.429 133.096 120.971 132.378 121.007C127.706 120.92 122.995 120.77 118.311 120.602L114.651 120.448C114.208 120.415 113.711 120.475 113.291 120.195C113.007 120.031 112.744 119.714 112.659 119.418C112.646 119.369 112.524 118.952 112.51 118.899L112.018 117.142L112.772 117.709C111.668 117.691 109.469 117.721 108.38 117.772L108.911 117.159C109.143 117.458 109.254 117.757 109.324 118.058C109.397 118.425 109.411 118.793 109.455 119.152L109.465 119.265L109.469 119.321C109.52 119.841 109.221 120.308 108.762 120.489C108.404 120.653 107.913 120.58 107.503 120.591C104.172 120.573 100.028 120.449 96.6785 120.4L93.0687 120.337L92.1494 120.322C91.6385 120.328 91.0155 119.935 90.8278 119.41L90.7384 119.194C89.2016 115.469 88.3349 111.59 88.2197 107.803C88.2154 107.689 88.212 107.56 88.2346 107.449C88.3346 106.983 88.7664 106.721 89.2614 106.714L92.8041 106.428C96.7555 106.107 101.041 105.822 105.028 105.595C105.718 105.536 106.556 106.028 106.779 106.784C106.795 106.843 106.87 107.042 106.893 107.109C107.388 108.546 107.829 110.017 108.182 111.471C108.328 112.054 108.459 112.641 108.584 113.225C108.704 113.81 108.83 114.398 108.584 114.982L107.773 114.337C108.817 114.292 110.922 114.262 111.976 114.272L111.418 114.96C111.232 114.267 111.04 113.571 110.869 112.874C110.401 110.871 110.058 108.85 109.835 106.849L109.821 106.717L109.814 106.651C109.777 106.337 109.88 106.021 110.067 105.819C110.31 105.535 110.704 105.424 111.097 105.428L111.366 105.419C112.055 105.391 113.873 105.328 114.582 105.3C118.969 105.118 124.155 105.052 128.572 105.024L128.842 105.02C129.606 104.982 130.455 105.534 130.699 106.29C131.527 108.364 132.196 110.47 132.686 112.593L132.674 112.606Z" fill="black"/>
<path d="M131.569 112.66C131.038 110.344 130.342 108.256 129.612 106.427C129.532 106.229 129.311 106.084 129.075 106.085C126.175 106.072 123.228 106.083 120.23 106.117C117.128 106.153 114.091 106.219 111.112 106.306C110.864 106.315 110.689 106.482 110.706 106.702C110.867 108.689 111.174 110.887 111.69 113.264C111.815 113.827 111.942 114.378 112.076 114.918C111.379 114.911 110.683 114.909 109.994 114.916C109.301 114.924 108.601 114.949 107.908 114.978C107.812 114.423 107.708 113.86 107.589 113.28C107.105 110.947 106.493 108.799 105.83 106.869C105.756 106.653 105.51 106.495 105.257 106.51C99.7579 106.733 94.4362 107.035 89.3043 107.401C89.0778 107.414 88.915 107.568 88.9172 107.771C88.9415 109.365 89.1162 111.227 89.5629 113.304C90.056 115.593 90.775 117.613 91.5079 119.294C91.5907 119.486 91.8148 119.62 92.0403 119.622C94.6784 119.611 97.3386 119.604 100.012 119.609C102.696 119.612 105.366 119.623 108.022 119.639C108.28 119.643 108.468 119.467 108.449 119.242C108.392 118.561 108.319 117.859 108.229 117.131C108.952 117.099 109.679 117.077 110.403 117.066C111.147 117.054 111.907 117.06 112.662 117.067C112.892 117.847 113.135 118.598 113.382 119.322C113.452 119.528 113.682 119.681 113.923 119.684C120.047 119.743 126.097 119.837 132.073 119.967C132.331 119.971 132.518 119.811 132.511 119.588C132.42 117.573 132.157 115.243 131.569 112.66Z" fill="#83DAEE"/>
<path d="M105.636 113.349C105.935 114.796 106.17 116.26 106.334 117.712C106.35 117.828 106.253 117.916 106.122 117.915C103.98 117.903 101.839 117.896 99.7362 117.895C97.5598 117.892 95.3542 117.898 93.1486 117.903C93.0285 117.904 92.9146 117.83 92.8773 117.73C92.4726 116.688 92.1228 115.636 91.844 114.576C93.0331 115.188 94.3608 115.517 95.6982 115.473C99.4396 115.344 101.855 112.317 101.093 108.709C101.073 108.615 101.053 108.521 101.028 108.428C102.05 108.379 103.068 108.331 104.086 108.288C104.215 108.28 104.341 108.361 104.373 108.478C104.879 110.095 105.301 111.728 105.641 113.347L105.636 113.349Z" fill="black"/>
<path d="M129.623 112.754C130.024 114.503 130.297 116.266 130.438 118.022C130.448 118.134 130.351 118.223 130.22 118.221C125.193 118.12 120.136 118.042 115.131 117.986C115.006 117.988 114.895 117.903 114.861 117.797C114.467 116.559 114.126 115.306 113.829 114.062C115.223 114.813 116.793 115.229 118.379 115.176C122.515 115.035 125.221 111.763 124.541 107.803C125.67 107.799 126.798 107.795 127.928 107.795C128.048 107.794 128.164 107.873 128.201 107.973C128.783 109.559 129.253 111.159 129.622 112.749L129.623 112.754Z" fill="black"/>
<path d="M101.088 108.712C101.851 112.32 99.4414 115.35 95.6938 115.476C94.3564 115.52 93.0238 115.192 91.8396 114.579C91.7193 114.13 91.61 113.683 91.5155 113.233C91.2246 111.893 91.0365 110.547 90.9503 109.211C90.9437 109.108 91.0256 109.023 91.143 109.013C94.4099 108.791 97.7151 108.596 101.018 108.432C101.043 108.525 101.067 108.613 101.083 108.713L101.088 108.712Z" fill="white"/>
<path d="M124.546 107.801C125.224 111.756 122.519 115.033 118.384 115.174C116.798 115.227 115.228 114.816 113.833 114.06C113.766 113.77 113.699 113.479 113.636 113.188C113.275 111.527 113.003 109.848 112.817 108.177C112.803 108.066 112.893 107.974 113.023 107.97C115.525 107.901 118.05 107.858 120.547 107.827C121.876 107.81 123.207 107.799 124.549 107.795L124.546 107.801Z" fill="white"/>
<path d="M106.175 118.131L106.155 118.136C104.012 118.119 101.871 118.113 99.768 118.111C97.5917 118.109 95.3861 118.114 93.1805 118.119C92.9563 118.122 92.7345 117.977 92.6587 117.772C92.0761 116.281 91.6141 114.752 91.2873 113.24C90.9951 111.895 90.8066 110.528 90.7191 109.187C90.7045 108.976 90.8599 108.815 91.0864 108.801C95.3593 108.508 99.7126 108.262 104.024 108.075C104.263 108.068 104.505 108.228 104.574 108.45C105.083 110.076 105.508 111.72 105.843 113.34C106.142 114.787 106.38 116.261 106.546 117.723C106.57 117.947 106.407 118.121 106.164 118.129L106.175 118.131ZM93.0813 117.691C93.0813 117.691 93.0924 117.693 93.1035 117.695C95.3091 117.69 97.5147 117.685 99.691 117.687C101.799 117.687 103.94 117.694 106.082 117.706C106.096 117.702 106.101 117.701 106.106 117.699C105.943 116.253 105.709 114.793 105.409 113.362C105.079 111.756 104.652 110.124 104.148 108.517C104.148 108.517 104.137 108.515 104.126 108.513C99.8144 108.701 95.4659 108.945 91.1979 109.236C91.1832 109.24 91.1735 109.243 91.1735 109.243C91.2593 110.559 91.4474 111.905 91.7344 113.23C92.056 114.723 92.5101 116.222 93.0827 117.695L93.0813 117.691Z" fill="black"/>
<path d="M130.282 118.435C130.282 118.435 130.263 118.44 130.252 118.438C125.22 118.337 120.147 118.259 115.169 118.206C114.939 118.205 114.712 118.041 114.646 117.834C114.162 116.301 113.745 114.744 113.411 113.207C113.05 111.546 112.774 109.853 112.587 108.177C112.565 107.958 112.731 107.778 112.97 107.771C115.468 107.708 118.001 107.657 120.498 107.626C122.938 107.595 125.424 107.582 127.888 107.586C128.118 107.587 128.337 107.738 128.412 107.943C128.99 109.535 129.47 111.148 129.841 112.748C130.242 114.497 130.516 116.28 130.664 118.045C130.681 118.265 130.516 118.43 130.284 118.44L130.282 118.435ZM115.079 117.77C115.079 117.77 115.09 117.773 115.101 117.775C120.078 117.827 125.156 117.905 130.189 118.01L130.214 118.003C130.067 116.265 129.793 114.502 129.398 112.773C129.037 111.19 128.561 109.592 127.988 108.02C127.988 108.02 127.982 108.016 127.966 108.015C125.502 108.011 123.021 108.022 120.581 108.054C118.09 108.083 115.561 108.133 113.062 108.196L113.038 108.203C113.225 109.857 113.497 111.536 113.855 113.182C114.184 114.705 114.597 116.247 115.077 117.765L115.079 117.77Z" fill="black"/>
<path d="M14.869 108.54C45.0713 106.509 76.2143 103.577 108.203 99.5873C116.796 98.5139 125.311 97.383 133.739 96.2021C134.201 92.0145 134.756 87.7237 135.417 83.3367C136.985 72.9117 138.969 63.1389 141.19 54.0558C121.21 57.2335 100.957 60.3068 80.4266 63.2611C62.2931 65.8711 44.3384 68.3286 26.5664 70.6482L14.869 108.54Z" fill="#C99B59"/>
<g style="mix-blend-mode:multiply" opacity="0.24">
<path d="M36.7442 107.109C49.1967 106.094 61.8719 104.916 74.7597 103.554C95.0222 101.415 114.687 98.9381 133.739 96.2024C134.324 89.5031 135.319 82.0716 136.944 74.0841C138.404 66.9253 140.152 60.3903 141.987 54.5327C140.581 62.0325 139.49 71.6236 139.954 82.7227C140.324 91.5773 141.587 99.3189 143.061 105.676C122.51 109.315 100.632 112.453 77.515 114.813C64.6363 116.13 52.1063 117.129 39.9529 117.854C38.8829 114.271 37.8129 110.688 36.738 107.105L36.7442 107.109Z" fill="black"/>
</g>
<g style="mix-blend-mode:multiply" opacity="0.4">
<path d="M198.914 14.3636C199.929 18.7359 200.98 23.1456 202.073 27.5962C203.274 32.4885 204.496 37.323 205.73 42.0861C208.965 41.5489 212.352 40.8976 215.87 40.1118C219.251 39.3577 222.464 38.5439 225.509 37.6912C221.505 34.5174 217.419 31.1355 213.269 27.5352C208.145 23.0875 203.365 18.6781 198.913 14.3587L198.914 14.3636Z" fill="black"/>
</g>
<g style="mix-blend-mode:multiply" opacity="0.12">
<path d="M217.136 104.152C217.842 108.602 218.572 116.497 216.226 125.619C210.204 149.052 186.842 169.197 174.764 164.405C172.341 163.443 168.406 160.701 165.963 150.943L164.639 151.387C164.406 155.926 163.42 161.828 160.123 167.638C145.094 194.127 91.9998 201.116 66.5095 177.968C59.9852 172.044 56.3619 165.138 54.2834 159.88C56.1034 166.379 58.1792 173.15 60.5406 180.148C62.8399 186.953 65.2254 193.416 67.6443 199.535C86.3866 198.729 105.578 197.645 125.19 196.239C141.497 195.07 157.487 193.73 173.137 192.235C182.947 184.659 192.96 176.589 203.105 167.998C210.062 162.107 216.76 156.248 223.21 150.436C222.694 142.734 221.907 134.567 220.757 126C219.722 118.312 218.496 111.021 217.141 104.151L217.136 104.152Z" fill="black"/>
</g>
<g style="mix-blend-mode:multiply" opacity="0.24">
<path d="M27.9536 69.6959C37.3684 63.7267 47.5845 57.684 58.5964 51.7419C72.0163 44.5008 84.9247 38.3172 97.0883 33.0236C130.359 26.9852 163.636 20.9503 196.907 14.9119C178.484 27.7037 160.067 40.499 141.644 53.2907C123.049 56.6988 103.741 59.88 83.7415 62.7493C64.6029 65.4927 45.9887 67.7922 27.9487 69.6972L27.9536 69.6959Z" fill="black"/>
</g>
<path d="M226.263 37.3427C221.291 33.173 216.321 28.8722 211.496 24.5481C207.341 20.8291 203.181 16.9962 199.129 13.1554C199.073 13.1024 199.01 13.0618 198.938 13.0287C198.716 12.8425 198.418 12.7446 198.11 12.8061C180.589 16.0626 139.088 23.6475 122.189 27.2182C122.189 27.2182 101.543 31.3594 97.587 32.1526C97.3767 32.0311 97.1234 31.9839 96.8671 32.0421C96.5473 32.1174 96.2924 32.3373 96.1649 32.6225C83.2587 38.2093 70.6205 44.4251 58.2486 51.1082C47.3882 56.5809 36.4904 63.2612 26.0253 69.7995C25.7076 69.9997 25.5154 70.3754 25.5602 70.7766C25.5726 70.8621 25.5948 70.9451 25.6255 71.0206C21.0215 83.3887 16.8551 95.9847 13.6801 108.807C13.7212 109.428 14.2561 109.902 14.8779 109.861C22.0315 109.409 29.1755 108.901 36.3238 108.351C45.3932 138.822 55.5241 170.248 66.696 199.9C66.84 200.301 67.2393 200.581 67.6873 200.555C76.4279 200.111 98.8313 198.993 107.313 198.561C129.335 197.482 151.314 195.698 173.277 193.757L173.292 193.753C173.326 193.744 173.358 193.746 173.394 193.741C173.438 193.73 173.483 193.723 173.527 193.711C173.995 193.585 174.359 193.247 174.534 192.824C191.747 180.064 207.903 165.526 223.88 151.198C221.768 114.862 215.334 78.3761 206.632 42.6971C209.498 42.1697 212.387 41.615 215.243 41.0278C218.811 40.2914 222.411 39.4993 225.954 38.6701C225.964 38.6675 225.969 38.6662 225.979 38.6636C226.247 38.5917 226.457 38.3786 226.52 38.1055C226.586 37.8262 226.492 37.5325 226.27 37.3512L226.263 37.3427ZM194.554 15.5005C177.907 28.695 157.53 42.12 141.381 51.8026C129.308 53.9811 117.214 56.0606 105.107 58.0497C104.029 54.8658 103.011 51.6345 102.07 48.414C100.646 43.5291 99.361 38.5389 98.2493 33.5702C102.95 32.6505 122.512 28.8316 122.512 28.8316C138.452 25.549 175.227 18.9847 194.559 15.4992L194.554 15.5005ZM132.499 94.777C93.9539 100.492 55.1804 104.731 16.301 107.482C19.2819 95.3606 22.8656 83.3809 27.0372 71.6046C64.8588 67.014 102.575 61.505 140.137 55.0856C136.721 68.1187 134.167 81.386 132.504 94.7756L132.499 94.777ZM58.9896 52.4681C70.6182 45.8221 84.365 39.508 96.3148 34.1775C97.4288 39.135 98.7048 44.1119 100.13 48.981C101.044 52.1197 102.041 55.273 103.088 58.3814C79.0934 62.3056 55.0363 65.8595 30.9325 69.0442C40.0972 63.2152 49.4581 57.6893 58.9896 52.4681ZM93.975 196.952C93.975 196.952 69.6951 198.406 68.3217 198.491C57.1476 169.222 47.0154 138.299 37.8755 108.228C70.0423 105.702 102.136 102.16 134.083 97.6055C134.748 97.5109 135.295 96.9724 135.357 96.2704C136.59 83.5399 138.638 70.884 141.478 58.3924C146.448 76.4115 151.117 94.715 155.366 112.875C161.389 138.613 166.756 164.852 171.343 190.891C145.693 193.455 119.724 195.555 93.9688 196.949L93.975 196.952ZM222.154 150.029C207.573 163.339 187.495 178.912 174.222 189.728C169.649 163.841 164.311 137.768 158.324 112.187C153.775 92.7476 148.748 73.1488 143.388 53.906C162.539 42.5614 180.676 29.4069 197.941 15.3774C210.295 59.3559 218.426 104.513 222.159 150.027L222.154 150.029ZM214.937 39.5355C212.062 40.128 209.153 40.6879 206.267 41.2205C204.16 32.6537 201.924 24.132 199.588 15.6683C203.175 19.0427 206.832 22.4037 210.487 25.6814C214.952 29.6783 219.534 33.6597 224.128 37.533C221.079 38.235 217.991 38.9107 214.933 39.5417L214.937 39.5355Z" fill="#0E1219"/>
</svg>
